SplineFontDB: 3.0
FontName: Oswald-Regular
FullName: Oswald Regular
FamilyName: Oswald
Weight: Regular
Copyright: Copyright (c) 2011-12 by vernon adams. All rights reserved.
Version: 2.3
ItalicAngle: 0
UnderlinePosition: 0
UnderlineWidth: 0
Ascent: 1658
Descent: 390
UFOAscent: 1658
UFODescent: -390
LayerCount: 2
Layer: 0 0 "Back"  1
Layer: 1 0 "Fore"  0
OS2Version: 0
OS2_WeightWidthSlopeOnly: 0
OS2_UseTypoMetrics: 0
CreationTime: 1371841625
ModificationTime: 1371842359
PfmFamily: 0
TTFWeight: 400
TTFWidth: 5
LineGap: 0
VLineGap: 0
OS2TypoAscent: 2465
OS2TypoAOffset: 0
OS2TypoDescent: -596
OS2TypoDOffset: 0
OS2TypoLinegap: 0
OS2WinAscent: 2465
OS2WinAOffset: 0
OS2WinDescent: 596
OS2WinDOffset: 0
HheadAscent: 0
HheadAOffset: 1
HheadDescent: 0
HheadDOffset: 1
OS2Vendor: 'newt'
Lookup: 258 0 0 "'kern' Horizontal Kerning in Latin lookup 0"  {"'kern' Horizontal Kerning in Latin lookup 0 subtable"  "kernHorizontalKerninglookup0 kerning class 1"  } ['kern' ('latn' <'dflt' > ) ]
Lookup: 260 0 0 "'mark' Mark Positioning lookup 5"  {"'mark' Mark Positioning lookup 5-1"  } ['mark' ('DFLT' <'dflt' > 'cyrl' <'dflt' > 'grek' <'dflt' > 'latn' <'dflt' > ) ]
MarkAttachClasses: 1
DEI: 91125
KernClass2: 22 24 "kernHorizontalKerninglookup0 kerning class 1" 
 81 A Aacute Abreve Acircumflex Adieresis Agrave Amacron Aogonek Aring Atilde uni0202
 75 D Eth O Oacute Ocircumflex Odieresis Ograve Oslash Otilde Q uni020C uni020E
 1 F
 1 J
 1 K
 1 L
 1 P
 44 R Racute Rcaron Rcommaaccent uni0210 uni0212
 22 T Tcommaaccent uni021A
 45 U Uacute Ucircumflex Udieresis Ugrave uni0216
 1 V
 1 W
 18 Y Yacute Ydieresis
 69 b o oacute ocircumflex odieresis ograve oslash otilde p thorn uni020F
 27 k kcommaaccent kgreenlandic
 29 r rcaron rcommaaccent uni0213
 22 t tcommaaccent uni021B
 1 v
 1 w
 1 x
 18 y yacute ydieresis
 81 A Aacute Abreve Acircumflex Adieresis Agrave Amacron Aogonek Aring Atilde uni0202

StartChar: A
Encoding: 65 65 0
Width: 1015
VWidth: 0
GlyphClass: 2
Flags: W
AnchorPoint: "ogonek" 852 0 basechar 0
LayerCount: 2
UndoRedoHistory
Layer: 1
Undoes
EndUndoes
Redoes
EndRedoes
EndUndoRedoHistory
Fore
SplineSet
379.178 590 m 1
 508 1302 l 1
 637.851 590 l 1
 379.178 590 l 1
34 0 m 1
 270 0 l 1
 346.612 412 l 1
 670.095 412 l 1
 744 0 l 1
 981 0 l 1
 626 1658 l 1
 389 1658 l 1
 34 0 l 1
EndSplineSet
EndChar

StartChar: AE
Encoding: 256 198 1
Width: 1302
VWidth: 0
GlyphClass: 2
Flags: HW
LayerCount: 2
UndoRedoHistory
Layer: 1
Undoes
EndUndoes
Redoes
EndRedoes
EndUndoRedoHistory
Fore
SplineSet
363 592 m 1
 592 1200 l 1
 592 592 l 1
 363 592 l 1
-116 0 m 1
 119 0 l 1
 296 414 l 1
 592 414 l 1
 592 0 l 1
 1243 0 l 1
 1243 178 l 1
 829 178 l 1
 829 769 l 1
 1125 769 l 1
 1125 947 l 1
 829 947 l 1
 829 1480 l 1
 1243 1480 l 1
 1243 1658 l 1
 591 1658 l 1
 -116 0 l 1
EndSplineSet
EndChar

StartChar: B
Encoding: 66 66 11
Width: 1084
VWidth: 0
GlyphClass: 2
Flags: HW
LayerCount: 2
UndoRedoHistory
Layer: 1
Undoes
EndUndoes
Redoes
EndRedoes
EndUndoRedoHistory
Fore
SplineSet
511 1658 m 2
 126 1658 l 1
 126 0 l 1
 575 0 l 2
 868 0 1010 180 1010 473 c 0
 1010 720 918 846 720 893 c 1
 881 912 964 1028 964 1243 c 0
 964 1536 810 1658 511 1658 c 2
376 1474 m 1
 406 1474 l 2
 639 1474 747 1477 747 1243 c 0
 747 1043 686 971 490 971 c 2
 376 971 l 1
 376 1474 l 1
376 782 m 1
 490 782 l 2
 694 782 772 680 772 473 c 0
 772 266 719 178 515 178 c 2
 376 178 l 1
 376 782 l 1
EndSplineSet
EndChar

StartChar: C
Encoding: 67 67 12
Width: 1062
VWidth: 0
GlyphClass: 2
Flags: HW
LayerCount: 2
UndoRedoHistory
Layer: 1
Undoes
EndUndoes
Redoes
EndRedoes
EndUndoRedoHistory
Fore
SplineSet
547 -17 m 0
 879 -17 972 190 972 497 c 2
 972 627 l 1
 735 627 l 1
 735 501 l 2
 735 309 731 178 549 178 c 0
 402 178 348 251 348 501 c 2
 348 1145 l 2
 348 1347 361 1480 549 1480 c 0
 740 1480 735 1352 735 1177 c 2
 735 1056 l 1
 972 1056 l 1
 972 1195 l 2
 972 1497 862 1674 547 1674 c 0
 191 1674 96 1453 96 1109 c 2
 96 541 l 2
 96 226 191 -17 547 -17 c 0
EndSplineSet
EndChar

StartChar: D
Encoding: 68 68 18
Width: 1082
VWidth: 0
GlyphClass: 2
Flags: HW
LayerCount: 2
UndoRedoHistory
Layer: 1
Undoes
EndUndoes
Redoes
EndRedoes
EndUndoRedoHistory
Fore
SplineSet
486 1658 m 2
 126 1658 l 1
 126 0 l 1
 504 0 l 2
 857 0 986 187 986 549 c 2
 986 1147 l 2
 986 1495 861 1658 486 1658 c 2
376 1474 m 1
 481 1474 l 2
 716 1474 734 1374 734 1118 c 2
 734 598 l 2
 734 324 736 178 486 178 c 2
 376 178 l 1
 376 1474 l 1
EndSplineSet
EndChar

StartChar: Dcroat
Encoding: 272 272 20
Width: 1087
VWidth: 0
GlyphClass: 2
Flags: HW
LayerCount: 2
UndoRedoHistory
Layer: 1
Undoes
EndUndoes
Redoes
EndRedoes
EndUndoRedoHistory
Fore
SplineSet
381 178 m 1
 381 788 l 1
 494 788 l 1
 494 929 l 1
 381 929 l 1
 381 1474 l 1
 486 1474 l 2
 721 1474 739 1374 739 1118 c 2
 739 598 l 2
 739 324 741 178 491 178 c 2
 381 178 l 1
491 1658 m 2
 131 1658 l 1
 131 929 l 1
 36 929 l 1
 36 788 l 1
 131 788 l 1
 131 0 l 1
 509 0 l 2
 862 0 991 187 991 549 c 2
 991 1147 l 2
 991 1495 866 1658 491 1658 c 2
EndSplineSet
EndChar

StartChar: Delta
Encoding: 65536 916 21
Width: 991
VWidth: 0
Flags: HW
LayerCount: 2
UndoRedoHistory
Layer: 1
Undoes
EndUndoes
Redoes
EndRedoes
EndUndoRedoHistory
Fore
SplineSet
22 0 m 1
 969 0 l 1
 604 1658 l 1
 387 1658 l 1
 22 0 l 1
436 949 m 1
 497 1313 l 1
 563.347465602 916.680798935 638.912788484 529.57945515 711 139 c 1
 283 139 l 1
 436 949 l 1
EndSplineSet
EndChar

StartChar: E
Encoding: 69 69 22
Width: 839
VWidth: 0
GlyphClass: 2
Flags: HW
AnchorPoint: "ogonek" 562 0 basechar 0
LayerCount: 2
UndoRedoHistory
Layer: 1
Undoes
EndUndoes
Redoes
EndRedoes
EndUndoRedoHistory
Fore
SplineSet
779 1658 m 1
 126 1658 l 1
 126 0 l 1
 784 0 l 1
 784 178 l 1
 376 178 l 1
 376 767 l 1
 703 767 l 1
 703 945 l 1
 376 945 l 1
 376 1474 l 1
 779 1474 l 1
 779 1658 l 1
EndSplineSet
EndChar

StartChar: Eng
Encoding: 280 330 30
Width: 1106
VWidth: 0
GlyphClass: 2
Flags: HW
LayerCount: 2
UndoRedoHistory
Layer: 1
Undoes
EndUndoes
Redoes
EndRedoes
EndUndoRedoHistory
Fore
SplineSet
540 -389 m 1
 622 -389 l 2
 894 -389 959 -254 959 0 c 2
 959 1658 l 1
 751 1658 l 1
 751 604 l 1
 294 1658 l 1
 126 1658 l 1
 126 0 l 1
 336 0 l 1
 336 1091 l 1
 751 117.311827957 l 1
 751 26 l 2
 751 -158 751 -219 540 -219 c 1
 540 -389 l 1
EndSplineSet
EndChar

StartChar: Eth
Encoding: 282 208 32
Width: 1047
VWidth: 0
GlyphClass: 2
Flags: HW
LayerCount: 2
UndoRedoHistory
Layer: 1
Undoes
EndUndoes
Redoes
EndRedoes
EndUndoRedoHistory
Fore
SplineSet
126 788 m 1
 126 0 l 1
 504 0 l 2
 857 0 986 187 986 549 c 2
 986 1147 l 2
 986 1495 861 1658 486 1658 c 2
 126 1658 l 1
 126 929 l 1
 31 929 l 1
 31 788 l 1
 126 788 l 1
376 788 m 1
 489 788 l 1
 489 929 l 1
 376 929 l 1
 376 1474 l 1
 481 1474 l 2
 716 1474 734 1374 734 1118 c 2
 734 598 l 2
 734 324 736 178 486 178 c 2
 376 178 l 1
 376 788 l 1
EndSplineSet
EndChar

StartChar: Euro
Encoding: 283 8364 33
Width: 1023
VWidth: 0
GlyphClass: 2
Flags: HW
LayerCount: 2
UndoRedoHistory
Layer: 1
Undoes
EndUndoes
Redoes
EndRedoes
EndUndoRedoHistory
Fore
SplineSet
547 -17 m 0
 879 -17 972 190 972 497 c 2
 972 577 l 1
 735 577 l 1
 735 501 l 2
 735 309 731 178 549 178 c 0
 402 178 348 251 348 501 c 2
 348 614 l 1
 539 614 l 1
 539 743 l 1
 348 743 l 1
 348 933 l 1
 539 933 l 1
 539 1063 l 1
 348 1063 l 1
 348 1145 l 2
 348 1347 361 1480 549 1480 c 0
 740 1480 735 1352 735 1177 c 2
 735 1106 l 1
 972 1106 l 1
 972 1195 l 2
 972 1497 862 1674 547 1674 c 0
 191 1674 96 1453 96 1109 c 2
 96 1063 l 1
 -21 1063 l 1
 -21 933 l 1
 96 933 l 1
 96 743 l 1
 -21 743 l 1
 -21 614 l 1
 96 614 l 1
 96 541 l 2
 96 226 191 -17 547 -17 c 0
EndSplineSet
EndChar

StartChar: F
Encoding: 70 70 34
Width: 802
VWidth: 0
GlyphClass: 2
Flags: HW
LayerCount: 2
UndoRedoHistory
Layer: 1
Undoes
EndUndoes
Redoes
EndRedoes
EndUndoRedoHistory
Fore
SplineSet
126 0 m 1
 376 0 l 1
 376 769 l 1
 680 769 l 1
 680 947 l 1
 376 947 l 1
 376 1480 l 1
 777 1480 l 1
 777 1658 l 1
 126 1658 l 1
 126 0 l 1
EndSplineSet
EndChar

StartChar: G
Encoding: 71 71 35
Width: 1104
VWidth: 0
GlyphClass: 2
Flags: HW
LayerCount: 2
UndoRedoHistory
Layer: 1
Undoes
EndUndoes
Redoes
EndRedoes
EndUndoRedoHistory
Fore
SplineSet
842 0 m 1
 1000 0 l 1
 1000 827 l 1
 572 827 l 1
 572 651 l 1
 774 651 l 1
 774 555 l 2
 774 303 731 178 556 178 c 0
 383 178 346 289 346 528 c 2
 346 1125 l 2
 346 1327 352 1480 550 1480 c 0
 732 1480 752 1384 752 1175 c 2
 752 1125 l 1
 986 1125 l 1
 986 1187 l 2
 986 1522 861 1674 546 1674 c 0
 190 1674 96 1461 96 1085 c 2
 96 554 l 2
 96 185 215 -20 526 -20 c 0
 689.0819162 -20 774.297936746 69.6140834196 818.492618804 191.861714176 c 1
 842 0 l 1
EndSplineSet
EndChar

StartChar: H
Encoding: 72 72 40
Width: 1154
VWidth: 0
GlyphClass: 2
Flags: HW
LayerCount: 2
UndoRedoHistory
Layer: 1
Undoes
EndUndoes
Redoes
EndRedoes
EndUndoRedoHistory
Fore
SplineSet
126 0 m 1
 376 0 l 1
 376 769 l 1
 778 769 l 1
 778 0 l 1
 1028 0 l 1
 1028 1658 l 1
 778 1658 l 1
 778 947 l 1
 376 947 l 1
 376 1658 l 1
 126 1658 l 1
 126 0 l 1
EndSplineSet
EndChar

StartChar: Hbar
Encoding: 288 294 41
Width: 1154
VWidth: 0
GlyphClass: 2
Flags: HW
LayerCount: 2
UndoRedoHistory
Layer: 1
Undoes
EndUndoes
Redoes
EndRedoes
EndUndoRedoHistory
Fore
SplineSet
778 0 m 1
 1028 0 l 1
 1028 1260 l 1
 1128 1260 l 1
 1128 1388 l 1
 1028 1388 l 1
 1028 1658 l 1
 778 1658 l 1
 778 1388 l 1
 376 1388 l 1
 376 1658 l 1
 126 1658 l 1
 126 1388 l 1
 26 1388 l 1
 26 1260 l 1
 126 1260 l 1
 126 0 l 1
 376 0 l 1
 376 769 l 1
 778 769 l 1
 778 0 l 1
778 1260 m 1
 778 947 l 1
 376 947 l 1
 376 1260 l 1
 778 1260 l 1
EndSplineSet
EndChar

StartChar: I
Encoding: 73 73 43
Width: 520
VWidth: 0
GlyphClass: 2
Flags: HW
LayerCount: 2
UndoRedoHistory
Layer: 1
Undoes
EndUndoes
Redoes
EndRedoes
EndUndoRedoHistory
Fore
SplineSet
139 0 m 1
 384.194335938 0 l 1
 384.194335938 1658 l 1
 139 1658 l 1
 139 0 l 1
EndSplineSet
EndChar

StartChar: IJ
Encoding: 290 306 44
Width: 1093
VWidth: 0
GlyphClass: 2
Flags: HW
LayerCount: 2
UndoRedoHistory
Layer: 1
Undoes
EndUndoes
Redoes
EndRedoes
EndUndoRedoHistory
Fore
SplineSet
516 -31 m 1
 634 -31 l 2
 922.126993459 -31 1002.51476743 101.197685131 1003 386.403320312 c 0
 1003 810.268880208 1003 1234.1344401 1003 1658 c 1
 753 1658 l 1
 753 389 l 2
 753 190 710 147 516 147 c 1
 516 -31 l 1
139 0 m 1
 384.194335938 0 l 1
 384.194335938 1658 l 1
 139 1658 l 1
 139 0 l 1
EndSplineSet
EndChar

StartChar: J
Encoding: 74 74 54
Width: 629
VWidth: 0
GlyphClass: 2
Flags: HW
LayerCount: 2
UndoRedoHistory
Layer: 1
Undoes
EndUndoes
Redoes
EndRedoes
EndUndoRedoHistory
Fore
SplineSet
14 -31 m 1
 132 -31 l 2
 420.126993459 -31 500.514767426 101.197685131 501 386.403320312 c 0
 501 810.273763021 501 1234.14420573 501 1658.01464844 c 1
 251 1658.01464844 l 1
 251 389 l 2
 251 190 208 147 14 147 c 1
 14 -31 l 1
EndSplineSet
EndChar

StartChar: K
Encoding: 75 75 56
Width: 1053
VWidth: 0
GlyphClass: 2
Flags: HW
LayerCount: 2
UndoRedoHistory
Layer: 1
Undoes
EndUndoes
Redoes
EndRedoes
EndUndoRedoHistory
Fore
SplineSet
777 0 m 1
 1020 0 l 1
 647 922 l 1
 972 1658 l 1
 740 1658 l 1
 376 900.46653144 l 1
 376 1658 l 1
 126 1658 l 1
 126 0 l 1
 376 0 l 1
 376 662.495192308 l 1
 455 811 l 1
 777 0 l 1
EndSplineSet
EndChar

StartChar: L
Encoding: 76 76 58
Width: 821
VWidth: 0
GlyphClass: 2
Flags: HW
LayerCount: 2
UndoRedoHistory
Layer: 1
Undoes
EndUndoes
Redoes
EndRedoes
EndUndoRedoHistory
Fore
SplineSet
376 178 m 1
 376 1658 l 1
 126 1658 l 1
 126 0 l 1
 787 0 l 1
 787 178 l 1
 376 178 l 1
EndSplineSet
EndChar

StartChar: Lslash
Encoding: 306 321 63
Width: 821
VWidth: 0
GlyphClass: 2
Flags: HW
LayerCount: 2
UndoRedoHistory
Layer: 1
Undoes
EndUndoes
Redoes
EndRedoes
EndUndoRedoHistory
Fore
SplineSet
126 762.594009983 m 1
 126 0 l 1
 787 0 l 1
 787 178 l 1
 376 178 l 1
 376 901.945091514 l 1
 586 1019 l 1
 586 1210 l 1
 376 1092.94509151 l 1
 376 1658 l 1
 126 1658 l 1
 126 953.594009983 l 1
 -15 875 l 1
 -15 684 l 1
 126 762.594009983 l 1
EndSplineSet
EndChar

StartChar: M
Encoding: 77 77 64
Width: 1361
VWidth: 0
GlyphClass: 2
Flags: HW
LayerCount: 2
UndoRedoHistory
Layer: 1
Undoes
EndUndoes
Redoes
EndRedoes
EndUndoRedoHistory
Fore
SplineSet
124 0 m 1
 333 0 l 1
 347 1178 l 1
 612 0 l 1
 749 0 l 1
 1015 1178 l 1
 1029 0 l 1
 1237 0 l 1
 1209 1658 l 1
 946 1658 l 1
 680 421 l 1
 416 1658 l 1
 152 1658 l 1
 124 0 l 1
EndSplineSet
EndChar

StartChar: N
Encoding: 78 78 65
Width: 1085
VWidth: 0
GlyphClass: 2
Flags: HW
LayerCount: 2
UndoRedoHistory
Layer: 1
Undoes
EndUndoes
Redoes
EndRedoes
EndUndoRedoHistory
Fore
SplineSet
126 0 m 1
 336 0 l 1
 336 1091 l 1
 801 0 l 1
 959 0 l 1
 959 1658 l 1
 751 1658 l 1
 751 604 l 1
 294 1658 l 1
 126 1658 l 1
 126 0 l 1
EndSplineSet
EndChar

StartChar: O
Encoding: 79 79 70
Width: 1112
VWidth: 0
GlyphClass: 2
Flags: HW
AnchorPoint: "ogonek" 582 0 basechar 0
LayerCount: 2
UndoRedoHistory
Layer: 1
Undoes
EndUndoes
Redoes
EndRedoes
EndUndoRedoHistory
Fore
SplineSet
556 -17 m 0
 893 -17 1016 194 1016 527 c 2
 1016 1140 l 2
 1016 1473 893 1674 556 1674 c 0
 217 1674 96 1477 96 1140 c 2
 96 527 l 2
 96 190 217 -17 556 -17 c 0
556 178 m 0
 378 178 348 295 348 473 c 2
 348 1193 l 2
 348 1371 378 1480 556 1480 c 0
 734 1480 764 1371 764 1193 c 2
 764 473 l 2
 764 295 734 178 556 178 c 0
EndSplineSet
EndChar

StartChar: OE
Encoding: 311 338 71
Width: 1419
VWidth: 0
GlyphClass: 2
Flags: HW
LayerCount: 2
UndoRedoHistory
Layer: 1
Undoes
EndUndoes
Redoes
EndRedoes
EndUndoRedoHistory
Fore
SplineSet
601 184 m 2
 366 184 348 284 348 540 c 2
 348 1060 l 2
 348 1334 346 1480 596 1480 c 2
 706 1480 l 1
 706 184 l 1
 601 184 l 2
596 0 m 2
 1364 0 l 1
 1364 178 l 1
 956 178 l 1
 956 767 l 1
 1283 767 l 1
 1283 945 l 1
 956 945 l 1
 956 1474 l 1
 1359 1474 l 1
 1359 1658 l 1
 578 1658 l 2
 225 1658 96 1471 96 1109 c 2
 96 511 l 2
 96 163 221 0 596 0 c 2
EndSplineSet
EndChar

StartChar: Oslash
Encoding: 319 216 79
Width: 1112
VWidth: 0
GlyphClass: 2
Flags: HW
LayerCount: 2
UndoRedoHistory
Layer: 1
Undoes
EndUndoes
Redoes
EndRedoes
EndUndoRedoHistory
Fore
SplineSet
556 -17 m 0
 893 -17 1016 194 1016 527 c 2
 1016 1140 l 2
 1016 1373.02384373 955.769375277 1541.40994386 804.125708703 1621.51448959 c 1
 845 1776 l 1
 759 1798 l 1
 720.966588499 1653.98415724 l 1
 672.855292447 1667.18444202 618.05582883 1674 556 1674 c 0
 217 1674 96 1477 96 1140 c 2
 96 527 l 2
 96 297.168788821 152.278638198 127.802230251 295.604607614 43.3249568942 c 1
 253 -118 l 1
 337 -144 l 1
 377.08573013 7.50512175215 l 1
 428.427791472 -8.6226613177 487.802640101 -17 556 -17 c 0
739.54010434 1377.41141798 m 1
 758.736949715 1330.00545133 764 1267.55523349 764 1193 c 2
 764 473 l 2
 764 295 734 178 556 178 c 0
 501.367117769 178 460.6763915 189.02183951 430.51601511 209.446356322 c 1
 739.54010434 1377.41141798 l 1
669.076441269 1457.49893571 m 1
 365.218326377 306.921567861 l 1
 351.897544485 352.607796293 348 408.841394587 348 473 c 2
 348 1193 l 2
 348 1371 378 1480 556 1480 c 0
 603.473372846 1480 640.419327211 1472.24669855 669.076441269 1457.49893571 c 1
EndSplineSet
EndChar

StartChar: P
Encoding: 80 80 81
Width: 981
VWidth: 0
GlyphClass: 2
Flags: HW
LayerCount: 2
UndoRedoHistory
Layer: 1
Undoes
EndUndoes
Redoes
EndRedoes
EndUndoRedoHistory
Fore
SplineSet
126 0 m 1
 376 0 l 1
 376 769 l 1
 541 769 l 2
 809 769 955 924 955 1195 c 0
 955 1491 837 1658 541 1658 c 2
 126 1658 l 1
 126 0 l 1
376 1480 m 1
 461 1480 l 2
 696 1480 719 1424 719 1194 c 0
 719 996 657 947 457 947 c 2
 376 947 l 1
 376 1480 l 1
EndSplineSet
EndChar

StartChar: Q
Encoding: 81 81 82
Width: 1098
VWidth: 0
GlyphClass: 2
Flags: HW
LayerCount: 2
UndoRedoHistory
Layer: 1
Undoes
EndUndoes
Redoes
EndRedoes
EndUndoRedoHistory
Fore
SplineSet
893 -337 m 1
 933 -142 l 1
 882.531105629 -107.899395695 826.015384946 -39.8435359436 776.776558131 24.0998073079 c 1
 948.570972106 100.769333727 1016 280.444254656 1016 527 c 2
 1016 1140 l 2
 1016 1473 893 1674 556 1674 c 0
 217 1674 96 1477 96 1140 c 2
 96 527 l 2
 96 190 217 -17 556 -17 c 0
 568.126875727 -17 579.976641692 -16.726774954 591.553538213 -16.1844719868 c 1
 665.129747291 -127.871490352 778.068245596 -279.941682211 893 -337 c 1
556 178 m 0
 378 178 348 295 348 473 c 2
 348 1193 l 2
 348 1371 378 1480 556 1480 c 0
 734 1480 764 1371 764 1193 c 2
 764 473 l 2
 764 295 734 178 556 178 c 0
EndSplineSet
EndChar

StartChar: R
Encoding: 82 82 83
Width: 1045
VWidth: 0
GlyphClass: 2
Flags: HW
LayerCount: 2
UndoRedoHistory
Layer: 1
Undoes
EndUndoes
Redoes
EndRedoes
EndUndoRedoHistory
Fore
SplineSet
746 0 m 1
 988 0 l 1
 756 828 l 1
 894 878 955 1019 955 1214 c 0
 955 1543 786 1658 449 1658 c 2
 126 1658 l 1
 126 0 l 1
 376 0 l 1
 376 769 l 1
 535 769 l 1
 746 0 l 1
376 1480 m 1
 449 1480 l 2
 661 1480 715 1407 715 1214 c 0
 715 998 626 947 432 947 c 2
 376 947 l 1
 376 1480 l 1
EndSplineSet
EndChar

StartChar: S
Encoding: 83 83 87
Width: 976
VWidth: 0
GlyphClass: 2
Flags: HW
LayerCount: 2
UndoRedoHistory
Layer: 1
Undoes
EndUndoes
Redoes
EndRedoes
EndUndoRedoHistory
Fore
SplineSet
525 -17 m 0
 760 -17 926 136 926 382 c 0
 926 594 812 738 689 848 c 1
 413 1087 l 1
 339 1153 306 1205 306 1308 c 0
 306 1421 367 1472 476 1480 c 0
 644 1493 677 1337 687 1184 c 1
 898 1243 l 1
 871 1529 752 1678 476 1674 c 0
 234 1671 82 1530 82 1284 c 0
 82 1108 137 1006 246 909 c 1
 520 670 l 1
 617 583 694 511 694 362 c 0
 694 244 637 178 525 178 c 0
 354 178 309 362 301 533 c 1
 78 473 l 1
 94 183 232 -17 525 -17 c 0
EndSplineSet
EndChar

StartChar: T
Encoding: 84 84 93
Width: 826
VWidth: 0
GlyphClass: 2
Flags: HW
LayerCount: 2
UndoRedoHistory
Layer: 1
Undoes
EndUndoes
Redoes
EndRedoes
EndUndoRedoHistory
Fore
SplineSet
294 0 m 1
 544 0 l 1
 544 1474 l 1
 828 1474 l 1
 828 1658 l 1
 -1 1658 l 1
 -1 1474 l 1
 294 1474 l 1
 294 0 l 1
EndSplineSet
EndChar

StartChar: Tbar
Encoding: 329 358 94
Width: 826
VWidth: 0
GlyphClass: 2
Flags: HW
LayerCount: 2
UndoRedoHistory
Layer: 1
Undoes
EndUndoes
Redoes
EndRedoes
EndUndoRedoHistory
Fore
SplineSet
294 0 m 1
 544 0 l 1
 544 793 l 1
 742 793 l 1
 742 933 l 1
 544 933 l 1
 544 1474 l 1
 828 1474 l 1
 828 1658 l 1
 -1 1658 l 1
 -1 1474 l 1
 294 1474 l 1
 294 933 l 1
 83 933 l 1
 83 793 l 1
 294 793 l 1
 294 0 l 1
EndSplineSet
EndChar

StartChar: Thorn
Encoding: 332 222 97
Width: 1030
VWidth: 0
GlyphClass: 2
Flags: HW
LayerCount: 2
UndoRedoHistory
Layer: 1
Undoes
EndUndoes
Redoes
EndRedoes
EndUndoRedoHistory
Fore
SplineSet
126 0 m 1
 376 0 l 1
 376 472 l 1
 561 472 l 2
 853 472 999 629 999 955 c 0
 999 1255 877 1440 604 1440 c 2
 376 1440 l 1
 376 1658 l 1
 126 1658 l 1
 126 0 l 1
376 1234 m 1
 527 1234 l 2
 698 1234 757 1162 757 957 c 0
 757 730 676 672 497 672 c 2
 376 672 l 1
 376 1234 l 1
EndSplineSet
EndChar

StartChar: U
Encoding: 85 85 98
Width: 1116
VWidth: 0
GlyphClass: 2
Flags: HW
AnchorPoint: "ogonek" 632 0 basechar 0
LayerCount: 2
UndoRedoHistory
Layer: 1
Undoes
EndUndoes
Redoes
EndRedoes
EndUndoRedoHistory
Fore
SplineSet
559 -17 m 0
 927 -17 1004 220 1004 585 c 2
 1004 1658 l 1
 767 1658 l 1
 767 573 l 2
 767 354 748 178 559 178 c 0
 370 178 349 354 349 573 c 2
 349 1658 l 1
 112 1658 l 1
 112 585 l 2
 112 220 191 -17 559 -17 c 0
EndSplineSet
EndChar

StartChar: V
Encoding: 86 86 109
Width: 991
VWidth: 0
GlyphClass: 2
Flags: HW
LayerCount: 2
UndoRedoHistory
Layer: 1
Undoes
EndUndoes
Redoes
EndRedoes
EndUndoRedoHistory
Fore
SplineSet
377 0 m 1
 614 0 l 1
 969 1658 l 1
 737 1658 l 1
 560 709 l 1
 497 345 l 1
 425.6881054 791.354772066 337.672303311 1221.00563664 257 1658 c 1
 22 1658 l 1
 377 0 l 1
EndSplineSet
EndChar

StartChar: W
Encoding: 87 87 110
Width: 1460
VWidth: 0
GlyphClass: 2
Flags: HW
LayerCount: 2
UndoRedoHistory
Layer: 1
Undoes
EndUndoes
Redoes
EndRedoes
EndUndoRedoHistory
Fore
SplineSet
312 0 m 1
 536 0 l 1
 652 800 l 1
 737 1313 l 1
 810 769 l 1
 928 0 l 1
 1150 0 l 1
 1412 1658 l 1
 1202 1658 l 1
 1147.86044781 1240.80621886 1094.282918 823.05041533 1037 409 c 1
 981.644890758 831.311557425 916.561086821 1243.89442015 853 1658 c 1
 616 1658 l 1
 492 888 l 1
 429 414 l 1
 379.329332392 834.329332392 320.400688294 1245.40068829 263 1658 c 1
 48 1658 l 1
 312 0 l 1
EndSplineSet
EndChar

StartChar: X
Encoding: 88 88 115
Width: 997
VWidth: 0
GlyphClass: 2
Flags: HW
LayerCount: 2
UndoRedoHistory
Layer: 1
Undoes
EndUndoes
Redoes
EndRedoes
EndUndoRedoHistory
Fore
SplineSet
738 0 m 1
 971 0 l 1
 608.690033837 849.660429843 l 1
 953 1658 l 1
 721 1658 l 1
 505.143067357 1092.49051531 l 1
 264 1658 l 1
 32 1658 l 1
 368.09912324 868.690727576 l 1
 26 0 l 1
 257 0 l 1
 480.193333376 605.443984791 l 1
 738 0 l 1
EndSplineSet
EndChar

StartChar: Y
Encoding: 89 89 116
Width: 992
VWidth: 0
GlyphClass: 2
Flags: HW
LayerCount: 2
UndoRedoHistory
Layer: 1
Undoes
EndUndoes
Redoes
EndRedoes
EndUndoRedoHistory
Fore
SplineSet
377 0 m 1
 615 0 l 1
 615 594 l 1
 970 1658 l 1
 735 1658 l 1
 495 890 l 1
 253 1658 l 1
 22 1658 l 1
 377 594 l 1
 377 0 l 1
EndSplineSet
EndChar

StartChar: Z
Encoding: 90 90 121
Width: 858
VWidth: 0
GlyphClass: 2
Flags: HW
LayerCount: 2
UndoRedoHistory
Layer: 1
Undoes
EndUndoes
Redoes
EndRedoes
EndUndoRedoHistory
Fore
SplineSet
80 0 m 1
 816 0 l 1
 816 178 l 1
 316 178 l 1
 816 1553 l 1
 816 1658 l 1
 106 1658 l 1
 106 1480 l 1
 550 1480 l 1
 80 178 l 1
 80 0 l 1
EndSplineSet
EndChar

StartChar: a
Encoding: 97 97 125
Width: 887
VWidth: 0
GlyphClass: 2
Flags: HW
HStem: -17 206<255.5 462.517> 1023 177<353.255 529.78>
VStem: 86 238<207.301 456.479 809 997.219> 552 236<229.655 296 727.128 744 829 1004.27>
AnchorPoint: "ogonek" 712 0 basechar 0
LayerCount: 2
UndoRedoHistory
Layer: 1
Undoes
EndUndoes
Redoes
EndRedoes
EndUndoRedoHistory
Fore
SplineSet
421 189 m 0
 354 189 324 247 324 336 c 0
 324 479 457 546 552 603 c 1
 552 276 l 1
 536 254 479 189 421 189 c 0
324 -17 m 0
 462 -17 535 84 563 178 c 1
 572 93 594 0 594 0 c 1
 810 0 l 1
 799 83 788 175 788 296 c 2
 788 829 l 2
 788 1067 696 1200 456 1200 c 0
 224.420914963 1200 92 1088.48537873 92 809 c 1
 326 800 l 1
 326 864 l 2
 326 953 352 1023 440 1023 c 0
 539 1023 552 953 552 829 c 2
 552 744 l 1
 322 654 86 569 86 261 c 0
 86 123 187 -17 324 -17 c 0
EndSplineSet
EndChar

StartChar: acute
Encoding: 357 180 129
Width: 591
VWidth: 0
GlyphClass: 2
Flags: HW
LayerCount: 2
UndoRedoHistory
Layer: 1
Undoes
EndUndoes
Redoes
EndRedoes
EndUndoRedoHistory
Fore
SplineSet
118 1302 m 1
 237 1302 l 1
 473 1658 l 1
 237 1658 l 1
 118 1302 l 1
EndSplineSet
EndChar

StartChar: acutecomb
Encoding: 587 769 130
Width: 0
VWidth: 0
GlyphClass: 2
Flags: HW
LayerCount: 2
UndoRedoHistory
Layer: 1
Undoes
EndUndoes
Redoes
EndRedoes
EndUndoRedoHistory
Fore
SplineSet
-59 1302 m 1
 60 1302 l 1
 296 1658 l 1
 60 1658 l 1
 -59 1302 l 1
EndSplineSet
EndChar

StartChar: ae
Encoding: 359 230 132
Width: 1354
VWidth: 0
GlyphClass: 2
Flags: HW
LayerCount: 2
UndoRedoHistory
Layer: 1
Undoes
EndUndoes
Redoes
EndRedoes
EndUndoRedoHistory
Fore
SplineSet
800 699 m 1
 800 818 l 2
 800 922 826.26171875 1007 918 1007 c 0
 1006 1007 1036 937 1036 850 c 0
 1036 748 983 731 897 716 c 2
 800 699 l 1
425 168 m 0
 369 168 326 226 326 315 c 0
 326 452.530198061 445.562905003 505.6283375 563 536 c 1
 563 431 l 2
 563 261 497 168 425 168 c 0
326 -17 m 0
 493 -30 590 86 651 225 c 1
 670 85 768 -17 917 -17 c 0
 1154 -17 1261 127 1261 368 c 2
 1261 414 l 1
 1025 414 l 1
 1025 368 l 2
 1025 270 1013 171 918 171 c 0
 784 171 800 395 800 533 c 2
 800 572 l 1
 931 595 l 2
 1080 621 1253 652 1253 828 c 0
 1253 1056 1143 1200 918 1200 c 0
 802 1200 723 1136 681 1060 c 1
 652 1149 561 1200 445 1200 c 0
 221 1200 93 1052 90 829 c 1
 326 829 l 1
 326 933 348 1018 445 1018 c 0
 544 1018 563 934 563 829 c 2
 563 670 l 1
 406 630 l 2
 228 585 90 487.04290247 90 261 c 0
 90 123 189 -6 326 -17 c 0
EndSplineSet
EndChar

StartChar: afii00208
Encoding: 597 8213 133
Width: 4096
VWidth: 0
GlyphClass: 2
Flags: HW
LayerCount: 2
UndoRedoHistory
Layer: 1
Undoes
EndUndoes
Redoes
EndRedoes
EndUndoRedoHistory
Fore
SplineSet
0 414 m 1
 4097 414 l 1
 4097 592 l 1
 0 592 l 1
 0 414 l 1
EndSplineSet
EndChar

StartChar: afii10017
Encoding: 176 1040 134
Width: 1015
VWidth: 0
GlyphClass: 2
Flags: HW
LayerCount: 2
UndoRedoHistory
Layer: 1
Undoes
EndUndoes
Redoes
EndRedoes
EndUndoRedoHistory
Fore
SplineSet
379.177734375 590 m 1
 508 1302 l 1
 637.850585938 590 l 1
 379.177734375 590 l 1
34 0 m 1
 270 0 l 1
 346.612304688 412 l 1
 670.094726562 412 l 1
 744 0 l 1
 981 0 l 1
 626 1658 l 1
 389 1658 l 1
 34 0 l 1
EndSplineSet
EndChar

StartChar: afii10018
Encoding: 177 1041 135
Width: 1020
VWidth: 0
GlyphClass: 2
Flags: HW
LayerCount: 2
UndoRedoHistory
Layer: 1
Undoes
EndUndoes
Redoes
EndRedoes
EndUndoRedoHistory
Fore
SplineSet
849.172851562 1658 m 1
 126 1658 l 1
 126 0 l 1
 420 0 l 2
 783 0 953 136 953 488 c 0
 953 877 774 969 407 969 c 2
 376 969 l 1
 376 1478 l 1
 849.172851562 1478 l 1
 849.172851562 1658 l 1
376 178 m 1
 376 791 l 1
 415 791 l 2
 646 791 718 712 718 490 c 0
 718 215 620 178 420 178 c 2
 376 178 l 1
EndSplineSet
EndChar

StartChar: afii10019
Encoding: 178 1042 136
Width: 1084
VWidth: 0
GlyphClass: 2
Flags: HW
LayerCount: 2
UndoRedoHistory
Layer: 1
Undoes
EndUndoes
Redoes
EndRedoes
EndUndoRedoHistory
Fore
SplineSet
376 178 m 1
 376 782 l 1
 490 782 l 2
 694 782 772 680 772 473 c 0
 772 266 719 178 515 178 c 2
 376 178 l 1
376 971 m 1
 376 1474 l 1
 406 1474 l 2
 639 1474 747 1477 747 1243 c 0
 747 1043 686 971 490 971 c 2
 376 971 l 1
511 1658 m 2
 126 1658 l 1
 126 0 l 1
 575 0 l 2
 868 0 1010 180 1010 473 c 0
 1010 720 918 846 720 893 c 1
 881 912 964 1028 964 1243 c 0
 964 1536 810 1658 511 1658 c 2
EndSplineSet
EndChar

StartChar: afii10020
Encoding: 179 1043 137
Width: 773
VWidth: 0
GlyphClass: 2
Flags: HW
LayerCount: 2
UndoRedoHistory
Layer: 1
Undoes
EndUndoes
Redoes
EndRedoes
EndUndoRedoHistory
Fore
SplineSet
126 0 m 1
 376 0 l 1
 376 1474 l 1
 766 1474 l 1
 766 1658 l 1
 126 1658 l 1
 126 0 l 1
EndSplineSet
EndChar

StartChar: afii10021
Encoding: 180 1044 138
Width: 1351
VWidth: 0
GlyphClass: 2
Flags: HW
LayerCount: 2
UndoRedoHistory
Layer: 1
Undoes
EndUndoes
Redoes
EndRedoes
EndUndoRedoHistory
Fore
SplineSet
-3 -306 m 1
 190 -306 l 1
 210 0 l 1
 511.333333333 -0 812.666666667 0 1114 0 c 1
 1134 -306 l 1
 1327 -306 l 1
 1327 178 l 1
 1121 178 l 1
 1121 1658 l 1
 370 1658 l 1
 348 1339 l 2
 292 530 310 268 96 178 c 1
 -3 178 l 1
 -3 -306 l 1
871 178 m 1
 424.725689022 178 l 1
 505.953579592 336.504344399 530.742997697 642.475748365 570 1279 c 2
 582 1474 l 1
 871 1474 l 1
 871 178 l 1
EndSplineSet
EndChar

StartChar: afii10022
Encoding: 181 1045 139
Width: 839
VWidth: 0
GlyphClass: 2
Flags: HW
LayerCount: 2
UndoRedoHistory
Layer: 1
Undoes
EndUndoes
Redoes
EndRedoes
EndUndoRedoHistory
Fore
SplineSet
779 1658 m 1
 126 1658 l 1
 126 0 l 1
 784 0 l 1
 784 178 l 1
 376 178 l 1
 376 767 l 1
 703 767 l 1
 703 945 l 1
 376 945 l 1
 376 1474 l 1
 779 1474 l 1
 779 1658 l 1
EndSplineSet
EndChar

StartChar: afii10024
Encoding: 182 1046 141
Width: 1310
VWidth: 0
GlyphClass: 2
Flags: HW
LayerCount: 2
UndoRedoHistory
Layer: 1
Undoes
EndUndoes
Redoes
EndRedoes
EndUndoRedoHistory
Fore
SplineSet
526 941 m 1
 255 1658 l 1
 39 1658 l 1
 377 835 l 1
 0 0 l 1
 219 0 l 1
 525 752 l 1
 539.104492188 752 l 1
 539.104492188 0 l 1
 770.258789062 0 l 1
 770.258789062 752 l 1
 785 752 l 1
 1091 0 l 1
 1310 0 l 1
 932 835 l 1
 1271 1658 l 1
 1055 1658 l 1
 786 941 l 1
 770.258789062 941 l 1
 770.258789062 1658 l 1
 539.104492188 1658 l 1
 539.104492188 941 l 1
 526 941 l 1
EndSplineSet
EndChar

StartChar: afii10025
Encoding: 183 1047 142
Width: 996
VWidth: 0
GlyphClass: 2
Flags: HW
LayerCount: 2
UndoRedoHistory
Layer: 1
Undoes
EndUndoes
Redoes
EndRedoes
EndUndoRedoHistory
Fore
SplineSet
486 178 m 0
 325.097329173 178 308 311.087088202 308 473 c 1
 71 473 l 1
 71 414 l 2
 71 144 213 -17 486 -17 c 0
 783 -17 900 176 900 473 c 0
 900 688 818 837 663 888 c 1
 806 932 900 1050 900 1243 c 0
 900 1513 759 1674 486 1674 c 0
 215 1674 71 1512 71 1243 c 2
 71 1184 l 1
 308 1184 l 1
 308 1346.01909334 325.129956109 1480 486 1480 c 0
 627 1480 663 1387 663 1243 c 0
 663 1066.82475679 594.772522009 1007 426 1007 c 1
 426 769 l 1
 603.910710389 769 663 651.061528829 663 473 c 0
 663 308 646 178 486 178 c 0
EndSplineSet
EndChar

StartChar: afii10026
Encoding: 184 1048 143
Width: 1085
VWidth: 0
GlyphClass: 2
Flags: HW
LayerCount: 2
UndoRedoHistory
Layer: 1
Undoes
EndUndoes
Redoes
EndRedoes
EndUndoRedoHistory
Fore
SplineSet
126 0 m 1
 294 0 l 1
 751 1090 l 1
 751 0 l 1
 959 0 l 1
 959 1658 l 1
 797 1658 l 1
 336 561 l 1
 336 1658 l 1
 126 1658 l 1
 126 0 l 1
EndSplineSet
EndChar

StartChar: afii10028
Encoding: 186 1050 145
Width: 1053
VWidth: 0
GlyphClass: 2
Flags: HW
LayerCount: 2
UndoRedoHistory
Layer: 1
Undoes
EndUndoes
Redoes
EndRedoes
EndUndoRedoHistory
Fore
SplineSet
126 0 m 1
 376 0 l 1
 376 662.495192308 l 1
 455 811 l 1
 777 0 l 1
 1020 0 l 1
 647 922 l 1
 972 1658 l 1
 740 1658 l 1
 376 900.46653144 l 1
 376 1658 l 1
 126 1658 l 1
 126 0 l 1
EndSplineSet
EndChar

StartChar: afii10029
Encoding: 187 1051 146
Width: 1196
VWidth: 0
GlyphClass: 2
Flags: HW
LayerCount: 2
UndoRedoHistory
Layer: 1
Undoes
EndUndoes
Redoes
EndRedoes
EndUndoRedoHistory
Fore
SplineSet
45 -11 m 1
 425 60 449 144 519 1279 c 2
 531 1474 l 1
 820 1474 l 1
 820 0 l 1
 1070 0 l 1
 1070 1658 l 1
 319 1658 l 1
 297 1339 l 2
 241 530 259 268 45 178 c 1
 45 -11 l 1
EndSplineSet
EndChar

StartChar: afii10030
Encoding: 188 1052 147
Width: 1271
VWidth: 0
GlyphClass: 2
Flags: HW
LayerCount: 2
UndoRedoHistory
Layer: 1
Undoes
EndUndoes
Redoes
EndRedoes
EndUndoRedoHistory
Fore
SplineSet
124 0 m 1
 333 0 l 1
 347 1178 l 1
 612 0 l 1
 749 0 l 1
 1015 1178 l 1
 1029 0 l 1
 1237 0 l 1
 1209 1658 l 1
 946 1658 l 1
 680 421 l 1
 416 1658 l 1
 152 1658 l 1
 124 0 l 1
EndSplineSet
EndChar

StartChar: afii10031
Encoding: 189 1053 148
Width: 1154
VWidth: 0
GlyphClass: 2
Flags: HW
LayerCount: 2
UndoRedoHistory
Layer: 1
Undoes
EndUndoes
Redoes
EndRedoes
EndUndoRedoHistory
Fore
SplineSet
778 0 m 1
 1028 0 l 1
 1028 1658 l 1
 778 1658 l 1
 778 947 l 1
 376 947 l 1
 376 1658 l 1
 126 1658 l 1
 126 0 l 1
 376 0 l 1
 376 769 l 1
 778 769 l 1
 778 0 l 1
EndSplineSet
EndChar

StartChar: afii10032
Encoding: 190 1054 149
Width: 1112
VWidth: 0
GlyphClass: 2
Flags: HW
LayerCount: 2
UndoRedoHistory
Layer: 1
Undoes
EndUndoes
Redoes
EndRedoes
EndUndoRedoHistory
Fore
SplineSet
556 -17 m 0
 893 -17 1016 194 1016 527 c 2
 1016 1140 l 2
 1016 1473 893 1674 556 1674 c 0
 217 1674 96 1477 96 1140 c 2
 96 527 l 2
 96 190 217 -17 556 -17 c 0
556 178 m 0
 378 178 348 295 348 473 c 2
 348 1193 l 2
 348 1371 378 1480 556 1480 c 0
 734 1480 764 1371 764 1193 c 2
 764 473 l 2
 764 295 734 178 556 178 c 0
EndSplineSet
EndChar

StartChar: afii10033
Encoding: 191 1055 150
Width: 1207
VWidth: 0
GlyphClass: 2
Flags: HW
LayerCount: 2
UndoRedoHistory
Layer: 1
Undoes
EndUndoes
Redoes
EndRedoes
EndUndoRedoHistory
Fore
SplineSet
831 0 m 1
 1081 0 l 1
 1081 1658 l 1
 126 1658 l 1
 126 0 l 1
 376 0 l 1
 376 1480 l 1
 831 1480 l 1
 831 0 l 1
EndSplineSet
EndChar

StartChar: afii10034
Encoding: 192 1056 151
Width: 981
VWidth: 0
GlyphClass: 2
Flags: HW
LayerCount: 2
UndoRedoHistory
Layer: 1
Undoes
EndUndoes
Redoes
EndRedoes
EndUndoRedoHistory
Fore
SplineSet
126 0 m 1
 376 0 l 1
 376 769 l 1
 541 769 l 2
 809 769 955 924 955 1195 c 0
 955 1491 837 1658 541 1658 c 2
 126 1658 l 1
 126 0 l 1
376 947 m 1
 376 1480 l 1
 461 1480 l 2
 696 1480 719 1424 719 1194 c 0
 719 996 657 947 457 947 c 2
 376 947 l 1
EndSplineSet
EndChar

StartChar: afii10035
Encoding: 193 1057 152
Width: 1062
VWidth: 0
GlyphClass: 2
Flags: HW
LayerCount: 2
UndoRedoHistory
Layer: 1
Undoes
EndUndoes
Redoes
EndRedoes
EndUndoRedoHistory
Fore
SplineSet
547 -17 m 0
 879 -17 972 190 972 497 c 2
 972 627 l 1
 735 627 l 1
 735 501 l 2
 735 309 731 178 549 178 c 0
 402 178 348 251 348 501 c 2
 348 1145 l 2
 348 1347 361 1480 549 1480 c 0
 740 1480 735 1352 735 1177 c 2
 735 1056 l 1
 972 1056 l 1
 972 1195 l 2
 972 1497 862 1674 547 1674 c 0
 191 1674 96 1453 96 1109 c 2
 96 541 l 2
 96 226 191 -17 547 -17 c 0
EndSplineSet
EndChar

StartChar: afii10036
Encoding: 194 1058 153
Width: 832
VWidth: 0
GlyphClass: 2
Flags: HW
LayerCount: 2
UndoRedoHistory
Layer: 1
Undoes
EndUndoes
Redoes
EndRedoes
EndUndoRedoHistory
Fore
SplineSet
296 0 m 1
 546 0 l 1
 546 1474 l 1
 830 1474 l 1
 830 1658 l 1
 1 1658 l 1
 1 1474 l 1
 296 1474 l 1
 296 0 l 1
EndSplineSet
EndChar

StartChar: afii10037
Encoding: 195 1059 154
Width: 925
VWidth: 0
GlyphClass: 2
Flags: HW
LayerCount: 2
UndoRedoHistory
Layer: 1
Undoes
EndUndoes
Redoes
EndRedoes
EndUndoRedoHistory
Fore
SplineSet
254 0 m 1
 479 0 l 1
 605.544175585 568.122491082 760.346765378 1107.98656796 905 1658 c 1
 674 1658 l 1
 477 856 l 1
 262 1658 l 1
 35 1658 l 1
 357 501 l 1
 254 0 l 1
EndSplineSet
EndChar

StartChar: afii10038
Encoding: 196 1060 155
Width: 1378
VWidth: 0
GlyphClass: 2
Flags: HW
LayerCount: 2
UndoRedoHistory
Layer: 1
Undoes
EndUndoes
Redoes
EndRedoes
EndUndoRedoHistory
Fore
SplineSet
533 376 m 1
 339 364 323 430 323 666 c 2
 323 1017 l 2
 323 1253 339 1319 533 1307 c 1
 560 1306.09395973 l 1
 560 376.906040268 l 1
 533 376 l 1
560 4 m 1
 810 4 l 1
 810 229.198019802 l 1
 884 227 l 1
 1140 202 1282 327 1282 666 c 2
 1282 1017 l 2
 1282 1358 1140 1472 885 1456 c 1
 810 1454.52216749 l 1
 810 1662 l 1
 560 1662 l 1
 560 1454.59574468 l 1
 494 1456 l 1
 238 1472 96 1356 96 1017 c 2
 96 666 l 2
 96 325 238 203 493 227 c 1
 560 229.126984127 l 1
 560 4 l 1
810 1305.92638037 m 1
 845 1307 l 1
 1039 1319 1055 1253 1055 1017 c 2
 1055 666 l 2
 1055 430 1039 364 845 376 c 1
 810 377.073619632 l 1
 810 1305.92638037 l 1
EndSplineSet
EndChar

StartChar: afii10039
Encoding: 197 1061 156
Width: 997
VWidth: 0
GlyphClass: 2
Flags: HW
LayerCount: 2
UndoRedoHistory
Layer: 1
Undoes
EndUndoes
Redoes
EndRedoes
EndUndoRedoHistory
Fore
SplineSet
738 0 m 1
 971 0 l 1
 608.690033837 849.660429843 l 1
 953 1658 l 1
 721 1658 l 1
 505.143067357 1092.49051531 l 1
 264 1658 l 1
 32 1658 l 1
 368.09912324 868.690727576 l 1
 26 0 l 1
 257 0 l 1
 480.193333376 605.443984791 l 1
 738 0 l 1
EndSplineSet
EndChar

StartChar: afii10040
Encoding: 198 1062 157
Width: 1353
VWidth: 0
GlyphClass: 2
Flags: HW
LayerCount: 2
UndoRedoHistory
Layer: 1
Undoes
EndUndoes
Redoes
EndRedoes
EndUndoRedoHistory
Fore
SplineSet
1130 -306 m 1
 1323 -306 l 1
 1323 178 l 1
 1078 178 l 1
 1078 1658 l 1
 828 1658 l 1
 828 178 l 1
 376 178 l 1
 376 1658 l 1
 126 1658 l 1
 126 0 l 1
 1110 0 l 1
 1130 -306 l 1
EndSplineSet
EndChar

StartChar: afii10041
Encoding: 199 1063 158
Width: 1112
VWidth: 0
GlyphClass: 2
Flags: HW
LayerCount: 2
UndoRedoHistory
Layer: 1
Undoes
EndUndoes
Redoes
EndRedoes
EndUndoRedoHistory
Fore
SplineSet
736 0 m 1
 986 0 l 1
 986 1658 l 1
 736 1658 l 1
 736 920.310264946 l 1
 657.754586426 904.479168256 593.336426545 897 541 897 c 0
 372 897 323 977 323 1125 c 2
 323 1658 l 1
 98 1658 l 1
 98 1124 l 2
 98 866 229 735 491 735 c 0
 562.895476585 735 644.562143251 744.771190082 736 764.313570246 c 1
 736 0 l 1
EndSplineSet
EndChar

StartChar: afii10042
Encoding: 200 1064 159
Width: 1552
VWidth: 0
GlyphClass: 2
Flags: HW
LayerCount: 2
UndoRedoHistory
Layer: 1
Undoes
EndUndoes
Redoes
EndRedoes
EndUndoRedoHistory
Fore
SplineSet
1176 180 m 1
 908 180 l 1
 908 1658 l 1
 658 1658 l 1
 658 180 l 1
 376 180 l 1
 376 1658 l 1
 126 1658 l 1
 126 0 l 1
 1426 0 l 1
 1426 1658 l 1
 1176 1658 l 1
 1176 180 l 1
EndSplineSet
EndChar

StartChar: afii10043
Encoding: 201 1065 160
Width: 1713
VWidth: 0
GlyphClass: 2
Flags: HW
LayerCount: 2
UndoRedoHistory
Layer: 1
Undoes
EndUndoes
Redoes
EndRedoes
EndUndoRedoHistory
Fore
SplineSet
1490 -306 m 1
 1683 -306 l 1
 1683 178 l 1
 1427 178 l 1
 1427 1658 l 1
 1177 1658 l 1
 1177 178 l 1
 908 178 l 1
 908 1658 l 1
 658 1658 l 1
 658 178 l 1
 376 178 l 1
 376 1658 l 1
 126 1658 l 1
 126 0 l 1
 1470 0 l 1
 1490 -306 l 1
EndSplineSet
EndChar

StartChar: afii10044
Encoding: 202 1066 161
Width: 957
VWidth: 0
GlyphClass: 2
Flags: HW
LayerCount: 2
UndoRedoHistory
Layer: 1
Undoes
EndUndoes
Redoes
EndRedoes
EndUndoRedoHistory
Fore
SplineSet
158 1469 m 1
 158 0 l 1
 466 0 l 2
 829 0 999 136 999 488 c 0
 999 877 820 969 453 969 c 2
 408 969 l 1
 408 1658 l 1
 -46 1658 l 1
 -46 1469 l 1
 158 1469 l 1
408 178 m 1
 408 791 l 1
 461 791 l 2
 692 791 764 712 764 490 c 0
 764 215 666 178 466 178 c 2
 408 178 l 1
EndSplineSet
EndChar

StartChar: afii10045
Encoding: 203 1067 162
Width: 1420
VWidth: 0
GlyphClass: 2
Flags: HW
LayerCount: 2
UndoRedoHistory
Layer: 1
Undoes
EndUndoes
Redoes
EndRedoes
EndUndoRedoHistory
Fore
SplineSet
1150 0 m 1
 1400 0 l 1
 1400 1658 l 1
 1150 1658 l 1
 1150 0 l 1
368 178 m 1
 368 791 l 1
 421 791 l 2
 652 791 724 712 724 490 c 0
 724 215 626 178 426 178 c 2
 368 178 l 1
368 969 m 1
 368 1658 l 1
 118 1658 l 1
 118 0 l 1
 426 0 l 2
 789 0 959 136 959 488 c 0
 959 877 780 969 413 969 c 2
 368 969 l 1
EndSplineSet
EndChar

StartChar: afii10046
Encoding: 204 1068 163
Width: 1028
VWidth: 0
GlyphClass: 2
Flags: HW
LayerCount: 2
UndoRedoHistory
Layer: 1
Undoes
EndUndoes
Redoes
EndRedoes
EndUndoRedoHistory
Fore
SplineSet
376 178 m 1
 376 791 l 1
 429 791 l 2
 660 791 732 712 732 490 c 0
 732 215 634 178 434 178 c 2
 376 178 l 1
376 969 m 1
 376 1658 l 1
 126 1658 l 1
 126 0 l 1
 434 0 l 2
 797 0 967 136 967 488 c 0
 967 877 788 969 421 969 c 2
 376 969 l 1
EndSplineSet
EndChar

StartChar: afii10047
Encoding: 205 1069 164
Width: 1060
VWidth: 0
GlyphClass: 2
Flags: HW
LayerCount: 2
UndoRedoHistory
Layer: 1
Undoes
EndUndoes
Redoes
EndRedoes
EndUndoRedoHistory
Fore
SplineSet
513 8 m 0
 869 8 964 229 964 573 c 2
 964 1141 l 2
 964 1456 869 1699 513 1699 c 0
 181 1699 88 1492 88 1185 c 2
 88 1112 l 1
 325 1112 l 1
 325 1181 l 2
 325 1373 329 1504 511 1504 c 0
 658 1504 712 1431 712 1181 c 2
 712 949 l 1
 437 949 l 1
 437 786 l 1
 712 786 l 1
 712 537 l 2
 712 335 699 202 511 202 c 0
 320 202 325 330 325 505 c 2
 325 571 l 1
 88 571 l 1
 88 487 l 2
 88 185 198 8 513 8 c 0
EndSplineSet
EndChar

StartChar: afii10048
Encoding: 206 1070 165
Width: 1464
VWidth: 0
GlyphClass: 2
Flags: HW
LayerCount: 2
UndoRedoHistory
Layer: 1
Undoes
EndUndoes
Redoes
EndRedoes
EndUndoRedoHistory
Fore
SplineSet
945 -17 m 0
 1263 -17 1377 200 1377 533 c 2
 1377 1134 l 2
 1377 1467 1263 1674 945 1674 c 0
 625 1674 513 1471 513 1134 c 2
 513 950 l 1
 368 950 l 1
 368 1658 l 1
 118 1658 l 1
 118 0 l 1
 368 0 l 1
 368 762 l 1
 513 762 l 1
 513 533 l 2
 513 196 625 -17 945 -17 c 0
945 178 m 0
 777 178 737 295 737 473 c 2
 737 1193 l 2
 737 1371 777 1480 945 1480 c 0
 1113 1480 1153 1371 1153 1193 c 2
 1153 473 l 2
 1153 295 1113 178 945 178 c 0
EndSplineSet
EndChar

StartChar: afii10049
Encoding: 207 1071 166
Width: 1065
VWidth: 0
GlyphClass: 2
Flags: HW
LayerCount: 2
UndoRedoHistory
Layer: 1
Undoes
EndUndoes
Redoes
EndRedoes
EndUndoRedoHistory
Fore
SplineSet
82 0 m 1
 321 0 l 1
 517.290579851 769.028847086 l 1
 519.516815757 769.009621234 521.753280394 769 524 769 c 2
 710 769 l 1
 710 0 l 1
 960 0 l 1
 960 1658 l 1
 524 1658 l 2
 256 1658 110 1503 110 1232 c 0
 110 1020.93697945 169.996081081 875.462894995 311.740912897 809.354437419 c 1
 82 0 l 1
710 947 m 1
 604 947 l 2
 369 947 346 1003 346 1233 c 0
 346 1431 408 1480 608 1480 c 2
 710 1480 l 1
 710 947 l 1
EndSplineSet
EndChar

StartChar: afii10051
Encoding: 162 1026 167
Width: 924
VWidth: 0
GlyphClass: 2
Flags: HW
HStem: -406 237
LayerCount: 2
UndoRedoHistory
Layer: 1
Undoes
EndUndoes
Redoes
EndRedoes
EndUndoRedoHistory
Fore
SplineSet
343 -386 m 1
 414 -386 l 2
 657 -386 822 -255 822 -12 c 0
 822 248.270507812 822 508.541015625 822 768.811523438 c 0
 822 852.098632812 793 961.013671875 647 961.013671875 c 0
 531.10254574 961.013671875 436.331577645 913.947971961 357.92578125 857.375392244 c 1
 357.92578125 1474 l 1
 634.579101562 1474 l 1
 634.579101562 1658 l 1
 -172.974609375 1658 l 1
 -172.974609375 1474 l 1
 114.393554688 1474 l 1
 114.393554688 0 l 1
 357.92578125 0 l 1
 357.92578125 761.823693483 l 1
 403.281267476 789.533818547 453.232265007 812.056640625 497 812.056640625 c 0
 574 812.056640625 586 771.213867188 586 711.150390625 c 0
 586 470.766927083 586 230.383463542 586 -10 c 0
 586 -146 547 -208 343 -208 c 1
 343 -386 l 1
EndSplineSet
EndChar

StartChar: afii10053
Encoding: 164 1028 169
Width: 1038
VWidth: 0
GlyphClass: 2
Flags: HW
LayerCount: 2
UndoRedoHistory
Layer: 1
Undoes
EndUndoes
Redoes
EndRedoes
EndUndoRedoHistory
Fore
SplineSet
547 -17 m 0
 879 -17 972 190 972 497 c 2
 972 566 l 1
 735 566 l 1
 735 501 l 2
 735 309 731 178 549 178 c 0
 402 178 348 251 348 501 c 2
 348 771 l 1
 755 771 l 1
 755 945 l 1
 348 945 l 1
 348 1145 l 2
 348 1347 361 1480 549 1480 c 0
 740 1480 735 1352 735 1177 c 2
 735 1135 l 1
 972 1135 l 1
 972 1195 l 2
 972 1497 862 1674 547 1674 c 0
 191 1674 96 1453 96 1109 c 2
 96 541 l 2
 96 226 191 -17 547 -17 c 0
EndSplineSet
EndChar

StartChar: afii10054
Encoding: 165 1029 170
Width: 967
VWidth: 0
GlyphClass: 2
Flags: HW
LayerCount: 2
UndoRedoHistory
Layer: 1
Undoes
EndUndoes
Redoes
EndRedoes
EndUndoRedoHistory
Fore
SplineSet
525 -17 m 0
 760 -17 926 136 926 382 c 0
 926 594 812 738 689 848 c 1
 413 1087 l 1
 339 1153 306 1205 306 1308 c 0
 306 1421 367 1472 476 1480 c 0
 644 1493 677 1337 687 1184 c 1
 898 1243 l 1
 871 1529 752 1678 476 1674 c 0
 234 1671 82 1530 82 1284 c 0
 82 1108 137 1006 246 909 c 1
 520 670 l 1
 617 583 694 511 694 362 c 0
 694 244 637 178 525 178 c 0
 354 178 309 362 301 533 c 1
 78 473 l 1
 94 183 232 -17 525 -17 c 0
EndSplineSet
EndChar

StartChar: afii10055
Encoding: 166 1030 171
Width: 520
VWidth: 0
GlyphClass: 2
Flags: HW
LayerCount: 2
UndoRedoHistory
Layer: 1
Undoes
EndUndoes
Redoes
EndRedoes
EndUndoRedoHistory
Fore
SplineSet
139 0 m 1
 384.194335938 0 l 1
 384.194335938 1658 l 1
 139 1658 l 1
 139 0 l 1
EndSplineSet
EndChar

StartChar: afii10057
Encoding: 168 1032 173
Width: 629
VWidth: 0
GlyphClass: 2
Flags: HW
LayerCount: 2
UndoRedoHistory
Layer: 1
Undoes
EndUndoes
Redoes
EndRedoes
EndUndoRedoHistory
Fore
SplineSet
14 -31 m 1
 132 -31 l 2
 420.126993459 -31 500.514767426 101.197685131 501 386.403320312 c 0
 501 810.273763021 501 1234.14420573 501 1658.01464844 c 1
 251 1658.01464844 l 1
 251 389 l 2
 251 190 208 147 14 147 c 1
 14 -31 l 1
EndSplineSet
EndChar

StartChar: afii10058
Encoding: 169 1033 174
Width: 1638
VWidth: 0
GlyphClass: 2
Flags: HW
HStem: 0 285
VStem: 1442 386
LayerCount: 2
UndoRedoHistory
Layer: 1
Undoes
EndUndoes
Redoes
EndRedoes
EndUndoRedoHistory
Fore
SplineSet
49 0 m 1
 106 0 l 2
 402 0 498 129 498 454 c 2
 498 1477 l 1
 764 1477 l 1
 764 0 l 1
 1036 0 l 2
 1399 0 1569 136 1569 488 c 0
 1569 877 1390 969 1023 969 c 2
 1014 969 l 1
 1014 1658 l 1
 764 1658 l 1
 764 1657 l 1
 498 1657 l 1
 498 1657.72753906 l 1
 248 1657.72753906 l 1
 248 454 l 2
 248 252 218 178 49 178 c 1
 49 0 l 1
1014 178 m 1
 1014 791 l 1
 1031 791 l 2
 1262 791 1334 712 1334 490 c 0
 1334 215 1236 178 1036 178 c 2
 1014 178 l 1
EndSplineSet
EndChar

StartChar: afii10059
Encoding: 170 1034 175
Width: 1612
VWidth: 0
GlyphClass: 2
Flags: HW
LayerCount: 2
UndoRedoHistory
Layer: 1
Undoes
EndUndoes
Redoes
EndRedoes
EndUndoRedoHistory
Fore
SplineSet
126 2 m 1
 376 2 l 1
 376 789 l 1
 748 789 l 1
 748 2 l 1
 840 2 l 1
 840 0 l 1
 1022 0 l 2
 1385 0 1555 136 1555 488 c 0
 1555 877 1376 969 1009 969 c 2
 998 969 l 1
 998 1660 l 1
 748 1660 l 1
 748 969 l 1
 376 969 l 1
 376 1660 l 1
 126 1660 l 1
 126 2 l 1
998 178 m 1
 998 791 l 1
 1017 791 l 2
 1248 791 1320 712 1320 490 c 0
 1320 215 1222 178 1022 178 c 2
 998 178 l 1
EndSplineSet
EndChar

StartChar: afii10060
Encoding: 171 1035 176
Width: 924
VWidth: 0
GlyphClass: 2
Flags: HW
LayerCount: 2
UndoRedoHistory
Layer: 1
Undoes
EndUndoes
Redoes
EndRedoes
EndUndoRedoHistory
Fore
SplineSet
586 0 m 1
 822 0 l 1
 822 768.811523438 l 2
 822 852.098632812 793 961.013671875 647 961.013671875 c 0
 531.10254574 961.013671875 436.331577645 913.947971961 357.92578125 857.375392244 c 1
 357.92578125 1474 l 1
 634.579101562 1474 l 1
 634.579101562 1658 l 1
 -172.974609375 1658 l 1
 -172.974609375 1474 l 1
 114.393554688 1474 l 1
 114.393554688 0 l 1
 357.92578125 0 l 1
 357.92578125 761.823693483 l 1
 403.281267476 789.533818547 453.232265007 812.056640625 497 812.056640625 c 0
 574 812.056640625 586 771.213867188 586 711.150390625 c 2
 586 0 l 1
EndSplineSet
EndChar

StartChar: afii10065
Encoding: 208 1072 179
Width: 887
VWidth: 0
GlyphClass: 2
Flags: HW
LayerCount: 2
UndoRedoHistory
Layer: 1
Undoes
EndUndoes
Redoes
EndRedoes
EndUndoRedoHistory
Fore
SplineSet
421 189 m 0
 354 189 324 247 324 336 c 0
 324 479 457 546 552 603 c 1
 552 276 l 1
 536 254 479 189 421 189 c 0
324 -17 m 0
 462 -17 535 84 563 178 c 1
 572 93 594 0 594 0 c 1
 810 0 l 1
 799 83 788 175 788 296 c 2
 788 829 l 2
 788 1067 696 1200 456 1200 c 0
 224.421448836 1200 92 1088.48554559 92 809 c 1
 326 800 l 1
 326 864 l 2
 326 953 352 1023 440 1023 c 0
 539 1023 552 953 552 829 c 2
 552 744 l 1
 322 654 86 569 86 261 c 0
 86 123 187 -17 324 -17 c 0
EndSplineSet
EndChar

StartChar: afii10066
Encoding: 209 1073 180
Width: 881
VWidth: 0
GlyphClass: 2
Flags: HW
LayerCount: 2
UndoRedoHistory
Layer: 1
Undoes
EndUndoes
Redoes
EndRedoes
EndUndoRedoHistory
Fore
SplineSet
443 158 m 0
 347 158 324 222 324 391 c 2
 324 868 l 1
 384 906 430 920 465 920 c 0
 530 920 556 866 556 738 c 2
 556 360 l 2
 556 216 523 158 443 158 c 0
324 1021 m 1
 324 1340.26049823 465.443914693 1427.72082248 711 1551 c 1
 622 1721 l 1
 233 1508 88 1416 88 950 c 2
 88 399 l 2
 88 127 207 -17 421 -17 c 0
 636 -17 793 64 793 434 c 2
 793 664 l 2
 793 981 666 1082 527 1082 c 0
 458 1082 385 1057 324 1021 c 1
EndSplineSet
EndChar

StartChar: afii10067
Encoding: 210 1074 181
Width: 863
VWidth: 0
GlyphClass: 2
Flags: HW
LayerCount: 2
UndoRedoHistory
Layer: 1
Undoes
EndUndoes
Redoes
EndRedoes
EndUndoRedoHistory
Fore
SplineSet
452 1184 m 2
 110.181640625 1184 l 1
 110.181640625 0 l 1
 462 0 l 2
 728 0 805 138 805 345 c 0
 805 480 768 620 620 647 c 1
 749 685 777 783 775 901 c 0
 772 1050 696 1184 452 1184 c 2
340.544921875 1012 m 1
 416 1012 l 2
 507 1012 569 983 569 872 c 0
 569 749 520 713 437 713 c 2
 340.544921875 713 l 1
 340.544921875 1012 l 1
340.544921875 543 m 1
 416 543 l 2
 505 543 573 537 573 353 c 0
 573 196 490 178 406 178 c 2
 340.544921875 178 l 1
 340.544921875 543 l 1
EndSplineSet
EndChar

StartChar: afii10068
Encoding: 211 1075 182
Width: 598
VWidth: 0
GlyphClass: 2
Flags: HW
LayerCount: 2
UndoRedoHistory
Layer: 1
Undoes
EndUndoes
Redoes
EndRedoes
EndUndoRedoHistory
Fore
SplineSet
118 0 m 1
 354 0 l 1
 354 1016 l 1
 604 1016 l 1
 604 1184 l 1
 118 1184 l 1
 118 0 l 1
EndSplineSet
EndChar

StartChar: afii10069
Encoding: 212 1076 183
Width: 1029
VWidth: 0
GlyphClass: 2
Flags: HW
LayerCount: 2
UndoRedoHistory
Layer: 1
Undoes
EndUndoes
Redoes
EndRedoes
EndUndoRedoHistory
Fore
SplineSet
17 -306 m 1
 189 -306 l 1
 209 0 l 1
 398.333333333 -0 587.666666667 0 777 0 c 1
 797 -306 l 1
 969 -306 l 1
 969 157 l 1
 852.37890625 157 l 1
 852.37890625 1184 l 1
 264 1184 l 1
 264 1009 l 2
 264 574.235145018 189.259759529 296.78644135 132.433326719 157 c 1
 17 157 l 1
 17 -306 l 1
467 1014 m 1
 624.79296875 1014 l 1
 624.79296875 157 l 1
 346.37696189 157 l 1
 397.855495877 293.90910528 467 573.22278534 467 1010 c 2
 467 1014 l 1
EndSplineSet
EndChar

StartChar: afii10070
Encoding: 213 1077 184
Width: 877
VWidth: 0
GlyphClass: 2
Flags: HW
LayerCount: 2
UndoRedoHistory
Layer: 1
Undoes
EndUndoes
Redoes
EndRedoes
EndUndoRedoHistory
Fore
SplineSet
446 -17 m 0
 688 -17 786 129 786 373 c 2
 786 414 l 1
 556 414 l 1
 556 344 l 2
 556 244 547 158 444 158 c 0
 311 158 324 293 324 430 c 2
 324 583 l 1
 788 583 l 1
 788 677 l 2
 788 998 753 1200 444 1200 c 0
 158 1200 88 1028 88 723 c 2
 88 459 l 2
 88 159 151 -17 446 -17 c 0
556 710 m 1
 324 710 l 1
 324 770 l 2
 324 961 340 1026 442 1026 c 0
 541 1026 556 954 556 820 c 2
 556 710 l 1
EndSplineSet
EndChar

StartChar: afii10072
Encoding: 214 1078 186
Width: 1209
VWidth: 0
GlyphClass: 2
Flags: HW
LayerCount: 2
UndoRedoHistory
Layer: 1
Undoes
EndUndoes
Redoes
EndRedoes
EndUndoRedoHistory
Fore
SplineSet
8 0 m 1
 237 0 l 1
 478 557 l 1
 494.90625 557 l 1
 494.90625 0 l 1
 714.719726562 0 l 1
 714.719726562 557 l 1
 732 557 l 1
 972 0 l 1
 1201 0 l 1
 913 593 l 1
 1182 1184 l 1
 947 1184 l 1
 731 665 l 1
 714.719726562 665 l 1
 714.719726562 1184 l 1
 494.90625 1184 l 1
 494.90625 665 l 1
 479 665 l 1
 262 1184 l 1
 26 1184 l 1
 297 593 l 1
 8 0 l 1
EndSplineSet
EndChar

StartChar: afii10073
Encoding: 215 1079 187
Width: 772
VWidth: 0
GlyphClass: 2
Flags: HW
LayerCount: 2
UndoRedoHistory
Layer: 1
Undoes
EndUndoes
Redoes
EndRedoes
EndUndoRedoHistory
Fore
SplineSet
390 -20 m 0
 604 -20 706 100 706 324 c 0
 706 578 591 597 505 614 c 1
 588 620 705 673 705 885 c 0
 705 1043 623 1200 400 1200 c 0
 194 1200 69 1110 69 836 c 1
 270 836 l 1
 270 993 314 1026 390 1026 c 0
 455 1026 500 986 500 872 c 0
 500 741 454 693 304 693 c 1
 304 527 l 1
 428 527 499 512 499 358 c 0
 499 270 489 153 385 153 c 0
 307 153 270 208 270 371 c 1
 69 371 l 1
 69 101 167 -20 390 -20 c 0
EndSplineSet
EndChar

StartChar: afii10074
Encoding: 216 1080 188
Width: 940
VWidth: 0
GlyphClass: 2
Flags: HW
LayerCount: 2
UndoRedoHistory
Layer: 1
Undoes
EndUndoes
Redoes
EndRedoes
EndUndoRedoHistory
Fore
SplineSet
109.873046875 0 m 1
 174.58203125 -0 239.291015625 0 304 0 c 1
 642.23046875 760.628888249 l 1
 642.23046875 0 l 1
 830.692382812 0 l 1
 830.692382812 1184 l 1
 767.794921875 1184 704.897460937 1184 642 1184 c 1
 303.619140625 416.68565691 l 1
 303.619140625 1184 l 1
 109.873046875 1184 l 1
 109.873046875 0 l 1
EndSplineSet
EndChar

StartChar: afii10076
Encoding: 218 1082 190
Width: 862
VWidth: 0
GlyphClass: 2
Flags: HW
LayerCount: 2
UndoRedoHistory
Layer: 1
Undoes
EndUndoes
Redoes
EndRedoes
EndUndoRedoHistory
Fore
SplineSet
611 0 m 1
 858 0 l 1
 592 657 l 1
 856 1184 l 1
 613 1184 l 1
 346 651.394255875 l 1
 346 1184 l 1
 110 1184 l 1
 110 0 l 1
 346 0 l 1
 346 447.627906977 l 1
 402 544 l 1
 611 0 l 1
EndSplineSet
EndChar

StartChar: afii10077
Encoding: 219 1083 191
Width: 1010
VWidth: 0
GlyphClass: 2
Flags: HW
HStem: -14 422 0 246
LayerCount: 2
UndoRedoHistory
Layer: 1
Undoes
EndUndoes
Redoes
EndRedoes
EndUndoRedoHistory
Fore
SplineSet
63 -10 m 2
 364 -10 425 127 449 673 c 2
 463.250489237 1004 l 1
 660 1004 l 1
 660 0 l 1
 896 0 l 1
 896 1184 l 1
 258 1184 l 1
 233 673 l 2
 214 287 204 168 38 168 c 1
 38 -10 l 1
 63 -10 l 2
EndSplineSet
EndChar

StartChar: afii10078
Encoding: 220 1084 192
Width: 1065
VWidth: 0
GlyphClass: 2
Flags: HW
LayerCount: 2
UndoRedoHistory
Layer: 1
Undoes
EndUndoes
Redoes
EndRedoes
EndUndoRedoHistory
Fore
SplineSet
104 0 m 1
 291 0 l 1
 291 678 l 1
 484 85 l 1
 578 85 l 1
 774 681 l 1
 774 0 l 1
 961 0 l 1
 950 1183 l 1
 772 1183 l 1
 531 426 l 1
 289 1183 l 1
 117 1183 l 1
 104 0 l 1
EndSplineSet
EndChar

StartChar: afii10079
Encoding: 221 1085 193
Width: 950
VWidth: 0
GlyphClass: 2
Flags: HW
LayerCount: 2
UndoRedoHistory
Layer: 1
Undoes
EndUndoes
Redoes
EndRedoes
EndUndoRedoHistory
Fore
SplineSet
110 0 m 1
 346 0 l 1
 346 519 l 1
 604 519 l 1
 604 0 l 1
 840 0 l 1
 840 1184 l 1
 604 1184 l 1
 604 692 l 1
 346 692 l 1
 346 1184 l 1
 110 1184 l 1
 110 0 l 1
EndSplineSet
EndChar

StartChar: afii10080
Encoding: 222 1086 194
Width: 881
VWidth: 0
GlyphClass: 2
Flags: HW
LayerCount: 2
UndoRedoHistory
Layer: 1
Undoes
EndUndoes
Redoes
EndRedoes
EndUndoRedoHistory
Fore
SplineSet
440 -17 m 0
 707 -17 793 156 793 418 c 2
 793 765 l 2
 793 1027 707 1200 440 1200 c 0
 173 1200 88 1027 88 765 c 2
 88 418 l 2
 88 156 173 -17 440 -17 c 0
440 158 m 0
 322 158 324 284 324 402 c 2
 324 780 l 2
 324 898 322 1026 440 1026 c 0
 558 1026 556 898 556 780 c 2
 556 402 l 2
 556 284 558 158 440 158 c 0
EndSplineSet
EndChar

StartChar: afii10081
Encoding: 223 1087 195
Width: 921
VWidth: 0
GlyphClass: 2
Flags: HW
LayerCount: 2
UndoRedoHistory
Layer: 1
Undoes
EndUndoes
Redoes
EndRedoes
EndUndoRedoHistory
Fore
SplineSet
110 0 m 1
 346 0 l 1
 346 1005 l 1
 575 1005 l 1
 575 0 l 1
 811 0 l 1
 811 1184 l 1
 110 1184 l 1
 110 0 l 1
EndSplineSet
EndChar

StartChar: afii10082
Encoding: 224 1088 196
Width: 929
VWidth: 0
GlyphClass: 2
Flags: HW
LayerCount: 2
UndoRedoHistory
Layer: 1
Undoes
EndUndoes
Redoes
EndRedoes
EndUndoRedoHistory
Fore
SplineSet
110 -390 m 1
 346 -390 l 1
 346 86.9193970088 l 1
 397.270233205 30.9850095661 463.950195384 -17 545 -17 c 0
 781 -17 841 226 841 466 c 2
 841 761 l 2
 841 879 822 1200 571 1200 c 0
 470.65467638 1200 398.731695709 1149.89218143 346 1089.78996239 c 1
 346 1184 l 1
 110 1184 l 1
 110 -390 l 1
346 213.640788819 m 1
 346 960.566065594 l 1
 385.207142719 990.240704648 432.943948745 1014 486 1014 c 0
 593 1014 605 889 605 761 c 2
 605 465 l 2
 605 310 603 170 496 170 c 0
 433.829003565 170 385.043916441 188.534335968 346 213.640788819 c 1
EndSplineSet
EndChar

StartChar: afii10083
Encoding: 225 1089 197
Width: 841
VWidth: 0
GlyphClass: 2
Flags: HW
LayerCount: 2
UndoRedoHistory
Layer: 1
Undoes
EndUndoes
Redoes
EndRedoes
EndUndoRedoHistory
Fore
SplineSet
440 -17 m 0
 693 -17 769 118 769 360 c 2
 769 447 l 1
 556 447 l 1
 556 344 l 2
 556 240 546 158 445 158 c 0
 354 158 324 201 324 395 c 2
 324 779 l 2
 324 965 342 1026 444 1026 c 0
 533 1026 556 971 556 830 c 2
 556 755 l 1
 769 755 l 1
 769 829 l 2
 769 1078 700 1200 440 1200 c 0
 146 1200 88 1017 88 729 c 2
 88 455 l 2
 88 167 145 -17 440 -17 c 0
EndSplineSet
EndChar

StartChar: afii10084
Encoding: 226 1090 198
Width: 714
VWidth: 0
GlyphClass: 2
Flags: HW
LayerCount: 2
UndoRedoHistory
Layer: 1
Undoes
EndUndoes
Redoes
EndRedoes
EndUndoRedoHistory
Fore
SplineSet
236.463867188 0 m 1
 472.463867188 0 l 1
 472.463867188 1007 l 1
 690.1875 1007 l 1
 690.1875 1184 l 1
 23.537109375 1184 l 1
 23.537109375 1007 l 1
 236.463867188 1007 l 1
 236.463867188 0 l 1
EndSplineSet
EndChar

StartChar: afii10085
Encoding: 227 1091 199
Width: 819
VWidth: 0
GlyphClass: 2
Flags: HW
LayerCount: 2
UndoRedoHistory
Layer: 1
Undoes
EndUndoes
Redoes
EndRedoes
EndUndoRedoHistory
Fore
SplineSet
103 -292 m 1
 322 -292 473 -261 528 5 c 1
 781 1184 l 1
 551 1184 l 1
 415 315 l 1
 247 1184 l 1
 27 1184 l 1
 271 110 l 2
 312 -70 308 -114 103 -116 c 1
 103 -292 l 1
EndSplineSet
EndChar

StartChar: afii10086
Encoding: 228 1092 200
Width: 1264
VWidth: 0
GlyphClass: 2
Flags: HW
LayerCount: 2
UndoRedoHistory
Layer: 1
Undoes
EndUndoes
Redoes
EndRedoes
EndUndoRedoHistory
Fore
SplineSet
414 167 m 1
 312 159 301 244 301 391 c 2
 301 827 l 2
 301 939 324 1019 410 1011 c 2
 521.39453125 1000.50993203 l 1
 521.39453125 170.496566134 l 1
 414 167 l 1
521.39453125 -390 m 1
 740.451171875 -390 l 1
 740.451171875 6.9593426821 l 1
 907 -20 l 1
 1085 -54 1176 40 1176 389 c 2
 1176 792 l 2
 1176 1052 1129 1241 912 1197 c 2
 740.451171875 1161.92496079 l 1
 740.451171875 1657.53027344 l 1
 521.39453125 1657.53027344 l 1
 521.39453125 1164.98385148 l 1
 352 1197 l 2
 134 1238 88 1052 88 792 c 2
 88 389 l 2
 88 40 180 -57 357 -20 c 1
 521.39453125 7.19762465533 l 1
 521.39453125 -390 l 1
740.451171875 1000.21029235 m 1
 854 1011 l 2
 941 1019 963 939 963 827 c 2
 963 391 l 2
 963 244 952 159 850 167 c 1
 740.451171875 170.469872384 l 1
 740.451171875 1000.21029235 l 1
EndSplineSet
EndChar

StartChar: afii10087
Encoding: 229 1093 201
Width: 800
VWidth: 0
GlyphClass: 2
Flags: HW
LayerCount: 2
UndoRedoHistory
Layer: 1
Undoes
EndUndoes
Redoes
EndRedoes
EndUndoRedoHistory
Fore
SplineSet
564 0 m 1
 789 0 l 1
 516.041186169 592.996762525 l 1
 784 1184 l 1
 553 1184 l 1
 409.883413377 823.622089105 l 1
 244 1184 l 1
 18 1184 l 1
 276.826644559 622.734895315 l 1
 16 0 l 1
 238 0 l 1
 386.04652976 385.891774293 l 1
 564 0 l 1
EndSplineSet
EndChar

StartChar: afii10088
Encoding: 230 1094 202
Width: 1057
VWidth: 0
GlyphClass: 2
Flags: HW
LayerCount: 2
UndoRedoHistory
Layer: 1
Undoes
EndUndoes
Redoes
EndRedoes
EndUndoRedoHistory
Fore
SplineSet
881 -306 m 1
 1052 -306 l 1
 1052 178 l 1
 853 178 l 1
 853 1184 l 1
 617 1184 l 1
 617 178 l 1
 346 178 l 1
 346 1184 l 1
 110 1184 l 1
 110 0 l 1
 861 0 l 1
 881 -306 l 1
EndSplineSet
EndChar

StartChar: afii10089
Encoding: 231 1095 203
Width: 899
VWidth: 0
GlyphClass: 2
Flags: HW
LayerCount: 2
UndoRedoHistory
Layer: 1
Undoes
EndUndoes
Redoes
EndRedoes
EndUndoRedoHistory
Fore
SplineSet
553 0 m 1
 789 0 l 1
 789 1184 l 1
 553 1184 l 1
 553 668.288806875 l 1
 514.690511649 663.060015967 482.270235866 661 455 661 c 0
 329 661 306 713 306 791 c 2
 306 1183 l 1
 70 1183 l 1
 70 794 l 2
 70 551 218 493 398 493 c 0
 448.507330592 493 500.771541654 497.685014589 553 503.917935689 c 1
 553 0 l 1
EndSplineSet
EndChar

StartChar: afii10090
Encoding: 232 1096 204
Width: 1303
VWidth: 0
GlyphClass: 2
Flags: HW
LayerCount: 2
UndoRedoHistory
Layer: 1
Undoes
EndUndoes
Redoes
EndRedoes
EndUndoRedoHistory
Fore
SplineSet
532.010742188 168 m 1
 338.033203125 168 l 1
 338.033203125 1184 l 1
 110.010742188 1184 l 1
 110.010742188 0 l 1
 1193.03320312 0 l 1
 1193.03320312 1184 l 1
 965.010742188 1184 l 1
 965.010742188 168 l 1
 760.033203125 168 l 1
 760.033203125 1184 l 1
 532.010742188 1184 l 1
 532.010742188 168 l 1
EndSplineSet
EndChar

StartChar: afii10091
Encoding: 233 1097 205
Width: 1404
VWidth: 0
GlyphClass: 2
Flags: HW
LayerCount: 2
UndoRedoHistory
Layer: 1
Undoes
EndUndoes
Redoes
EndRedoes
EndUndoRedoHistory
Fore
SplineSet
1218 -306 m 1
 1401 -306 l 1
 1401 168 l 1
 1193.03320312 168 l 1
 1193.03320312 1184 l 1
 965.010742188 1184 l 1
 965.010742188 168 l 1
 760.033203125 168 l 1
 760.033203125 1184 l 1
 532.010742188 1184 l 1
 532.010742188 168 l 1
 338.033203125 168 l 1
 338.033203125 1184 l 1
 110.010742188 1184 l 1
 110.010742188 0 l 1
 1198 0 l 1
 1218 -306 l 1
EndSplineSet
EndChar

StartChar: afii10092
Encoding: 234 1098 206
Width: 969
VWidth: 0
GlyphClass: 2
Flags: HW
LayerCount: 2
UndoRedoHistory
Layer: 1
Undoes
EndUndoes
Redoes
EndRedoes
EndUndoRedoHistory
Fore
SplineSet
208 1010 m 1
 208 0 l 1
 446 0 l 2
 795 0 927 76 927 349 c 0
 927 648.115616981 787.699512853 691.193014629 444 691.988588218 c 1
 444 1184 l 1
 18 1184 l 1
 18 1010 l 1
 208 1010 l 1
444 138 m 1
 444 553.997409953 l 1
 660.502856047 553.62172166 715 512.25314776 715 350 c 0
 715 167 646 138 446 138 c 2
 444 138 l 1
EndSplineSet
EndChar

StartChar: afii10093
Encoding: 235 1099 207
Width: 1306
VWidth: 0
GlyphClass: 2
Flags: HW
LayerCount: 2
UndoRedoHistory
Layer: 1
Undoes
EndUndoes
Redoes
EndRedoes
EndUndoRedoHistory
Fore
SplineSet
960 0 m 1
 1196 0 l 1
 1196 1184 l 1
 960 1184 l 1
 960 0 l 1
346 138 m 1
 346 553.997409953 l 1
 562.502856047 553.62172166 617 512.25314776 617 350 c 0
 617 167 548 138 348 138 c 2
 346 138 l 1
346 691.988588218 m 1
 346 1184 l 1
 110 1184 l 1
 110 0 l 1
 348 0 l 2
 697 0 829 76 829 349 c 0
 829 648.115616981 689.699512853 691.193014629 346 691.988588218 c 1
EndSplineSet
EndChar

StartChar: afii10094
Encoding: 236 1100 208
Width: 867
VWidth: 0
GlyphClass: 2
Flags: HW
LayerCount: 2
UndoRedoHistory
Layer: 1
Undoes
EndUndoes
Redoes
EndRedoes
EndUndoRedoHistory
Fore
SplineSet
346 138 m 1
 346 553.997409953 l 1
 562.502856047 553.62172166 617 512.25314776 617 350 c 0
 617 167 548 138 348 138 c 2
 346 138 l 1
346 691.988588218 m 1
 346 1184 l 1
 110 1184 l 1
 110 0 l 1
 348 0 l 2
 697 0 829 76 829 349 c 0
 829 648.115616981 689.699512853 691.193014629 346 691.988588218 c 1
EndSplineSet
EndChar

StartChar: afii10095
Encoding: 237 1101 209
Width: 852
VWidth: 0
GlyphClass: 2
Flags: HW
LayerCount: 2
UndoRedoHistory
Layer: 1
Undoes
EndUndoes
Redoes
EndRedoes
EndUndoRedoHistory
Fore
SplineSet
412 -17 m 0
 706 -17 764 166 764 454 c 2
 764 728 l 2
 764 1016 707 1200 412 1200 c 0
 159 1200 83 1065 83 823 c 2
 83 776 l 1
 296 776 l 1
 296 839 l 2
 296 943 306 1025 407 1025 c 0
 498 1025 528 982 528 788 c 2
 528 656 l 1
 303 656 l 1
 303 525 l 1
 528 525 l 1
 528 404 l 2
 528 218 510 157 408 157 c 0
 319 157 296 212 296 353 c 2
 296 388 l 1
 83 388 l 1
 83 354 l 2
 83 105 152 -17 412 -17 c 0
EndSplineSet
EndChar

StartChar: afii10096
Encoding: 238 1102 210
Width: 1192
VWidth: 0
GlyphClass: 2
Flags: HW
LayerCount: 2
UndoRedoHistory
Layer: 1
Undoes
EndUndoes
Redoes
EndRedoes
EndUndoRedoHistory
Fore
SplineSet
783.875976562 -17 m 0
 1023.49316406 -17 1100.67382812 156 1100.67382812 418 c 2
 1100.67382812 765 l 2
 1100.67382812 1027 1023.49316406 1200 783.875976562 1200 c 0
 544.2578125 1200 467.975585938 1027 467.975585938 765 c 2
 467.975585938 672 l 1
 327.223632812 672 l 1
 327.223632812 1184 l 1
 110 1184 l 1
 110 0 l 1
 327.223632812 0 l 1
 327.223632812 517 l 1
 467.975585938 517 l 1
 467.975585938 418 l 2
 467.975585938 156 544.2578125 -17 783.875976562 -17 c 0
783.875976562 158 m 0
 677.977539062 158 679.772460938 284 679.772460938 402 c 2
 679.772460938 780 l 2
 679.772460938 898 677.977539062 1026 783.875976562 1026 c 0
 889.774414062 1026 887.979492188 898 887.979492188 780 c 2
 887.979492188 402 l 2
 887.979492188 284 889.774414062 158 783.875976562 158 c 0
EndSplineSet
EndChar

StartChar: afii10097
Encoding: 239 1103 211
Width: 889
VWidth: 0
GlyphClass: 2
Flags: HW
LayerCount: 2
UndoRedoHistory
Layer: 1
Undoes
EndUndoes
Redoes
EndRedoes
EndUndoRedoHistory
Fore
SplineSet
95 0 m 1
 332 0 l 1
 432.894433212 516.616866356 l 1
 466.940273286 515.012485324 503.608654668 514.29261259 543 514.138036534 c 1
 543 0 l 1
 779 0 l 1
 779 1184 l 1
 702 1184 625 1184 548 1184 c 2
 543 1183.99492339 l 0
 197.7385198 1183.29083111 67 1109.16188802 67 846.1484375 c 0
 67 673.888577646 116.299530516 589.347896462 228.604456911 548.959809351 c 1
 95 0 l 1
543 1050.4022187 m 1
 543 647.725782165 l 1
 332.319299476 648.947544079 279 689.817334533 279 845.180664062 c 0
 279 1020.85053877 346.848506554 1049.92726977 543 1050.4022187 c 1
EndSplineSet
EndChar

StartChar: afii10099
Encoding: 242 1106 212
Width: 932
VWidth: 0
GlyphClass: 2
Flags: HW
HStem: -338 172
VStem: 595 372
LayerCount: 2
UndoRedoHistory
Layer: 1
Undoes
EndUndoes
Redoes
EndRedoes
EndUndoRedoHistory
Fore
SplineSet
374 -311 m 1
 446 -311 l 2
 777 -311 829 -220 829 210 c 2
 829 1007.94238281 l 2
 829 1094.38574219 800 1207.42773438 654 1207.42773438 c 0
 528.106159854 1207.42773438 427.140377253 1149.78868314 345 1084.47425763 c 1
 345 1390 l 1
 641 1390 l 1
 641 1530 l 1
 345 1530 l 1
 345 1658 l 1
 109 1658 l 1
 109 1530 l 1
 -42 1530 l 1
 -42 1390 l 1
 109 1390 l 1
 109 0 l 1
 345 0 l 1
 345 987.539668418 l 1
 395.263549911 1021.96753638 453.713003708 1052.82617188 504 1052.82617188 c 0
 581 1052.82617188 593 1010.43554688 593 948.096679688 c 2
 593 210 l 1
 594 210 l 1
 594 -95 593 -144 397 -144 c 2
 374 -144 l 1
 374 -311 l 1
EndSplineSet
EndChar

StartChar: afii10101
Encoding: 244 1108 214
Width: 820
VWidth: 0
GlyphClass: 2
Flags: HW
LayerCount: 2
UndoRedoHistory
Layer: 1
Undoes
EndUndoes
Redoes
EndRedoes
EndUndoRedoHistory
Fore
SplineSet
442 -17 m 0
 695 -17 771 118 771 360 c 2
 771 403 l 1
 558 403 l 1
 558 344 l 2
 558 240 548 158 447 158 c 0
 356 158 326 201 326 395 c 2
 326 525 l 1
 614 525 l 1
 614 679 l 1
 326 679 l 1
 326 779 l 2
 326 965 344 1026 446 1026 c 0
 535 1026 558 971 558 830 c 2
 558 795 l 1
 771 795 l 1
 771 829 l 2
 771 1078 702 1200 442 1200 c 0
 148 1200 90 1017 90 729 c 2
 90 455 l 2
 90 167 147 -17 442 -17 c 0
EndSplineSet
EndChar

StartChar: afii10102
Encoding: 245 1109 215
Width: 729
VWidth: 0
GlyphClass: 2
Flags: HW
LayerCount: 2
UndoRedoHistory
Layer: 1
Undoes
EndUndoes
Redoes
EndRedoes
EndUndoRedoHistory
Fore
SplineSet
380 -17 m 0
 568 -17 708 83 708 290 c 0
 708 439 632 531 549 605 c 2
 323 807 l 2
 289.216796875 837.0703125 273.626953125 874.99609375 273.004882812 910.80078125 c 0
 271.951171875 971.443359375 313.8359375 1026 383 1026 c 0
 473 1026 510 942 528 829 c 1
 686 888 l 1
 670 1057 569 1200 380 1200 c 0
 192 1200 75 1092 69 902 c 0
 65 762 134 681 211 615 c 2
 423 433 l 2
 477.599609375 386.084960938 503.247070312 332.135742188 506.359375 284.516601562 c 0
 510.94140625 214.396484375 466.658203125 158 394 158 c 0
 304 158 257 231 239 375 c 1
 63 316 l 1
 88 137 194 -17 380 -17 c 0
EndSplineSet
EndChar

StartChar: afii10103
Encoding: 246 1110 216
Width: 474
VWidth: 0
GlyphClass: 2
Flags: HW
LayerCount: 2
UndoRedoHistory
Layer: 1
Undoes
EndUndoes
Redoes
EndRedoes
EndUndoRedoHistory
Fore
SplineSet
118 0 m 1
 354 0 l 1
 354 1184 l 1
 118 1184 l 1
 118 0 l 1
120 1338 m 1
 356 1338 l 1
 356 1574 l 1
 120 1574 l 1
 120 1338 l 1
EndSplineSet
EndChar

StartChar: afii10105
Encoding: 248 1112 218
Width: 468
VWidth: 0
GlyphClass: 2
Flags: HW
LayerCount: 2
UndoRedoHistory
Layer: 1
Undoes
EndUndoes
Redoes
EndRedoes
EndUndoRedoHistory
Fore
SplineSet
138 1362 m 1
 376 1362 l 1
 376 1598 l 1
 138 1598 l 1
 138 1362 l 1
-39 -281 m 1
 -8 -293 40 -296 80 -296 c 0
 262 -296 374 -190 374 -6 c 2
 374 1184 l 1
 138 1184 l 1
 138 19 l 2
 138 -64 106 -118 20 -118 c 0
 3 -118 -25 -115 -39 -112 c 1
 -39 -281 l 1
EndSplineSet
EndChar

StartChar: afii10106
Encoding: 249 1113 219
Width: 1366
VWidth: 0
GlyphClass: 2
Flags: HW
LayerCount: 2
UndoRedoHistory
Layer: 1
Undoes
EndUndoes
Redoes
EndRedoes
EndUndoRedoHistory
Fore
SplineSet
32 0 m 1
 56 0 l 2
 316 0 407 122 435 638 c 2
 455.10989011 1004 l 1
 634 1004 l 1
 634 0 l 1
 870 0 l 1
 870 0.338549576997 l 1
 1189.87941054 6.08546976155 1312 86.4148707778 1312 349 c 0
 1312 635.92769743 1183.82025455 687.257412017 870 691.666278089 c 1
 870 1184 l 1
 266 1184 l 1
 236 673 l 2
 214 298 198 178 32 178 c 1
 32 0 l 1
870 138.441535926 m 1
 870 553.357481663 l 1
 1052.49702238 547.597697321 1100 501.483969297 1100 350 c 0
 1100 179.443243553 1040.06441235 142.65576968 870 138.441535926 c 1
EndSplineSet
EndChar

StartChar: afii10107
Encoding: 250 1114 220
Width: 1307
VWidth: 0
GlyphClass: 2
Flags: HW
LayerCount: 2
UndoRedoHistory
Layer: 1
Undoes
EndUndoes
Redoes
EndRedoes
EndUndoRedoHistory
Fore
SplineSet
110 0 m 1
 346 0 l 1
 346 542 l 1
 578 542 l 1
 578 0 l 1
 814 0 l 1
 814 0.210886279786 l 1
 1139.84529745 4.76551845669 1264 84.2370152826 1264 349 c 0
 1264 638.353701844 1133.64354417 688.108565861 814 691.768161488 c 1
 814 1184 l 1
 578 1184 l 1
 578 702.024414062 l 1
 346 702.024414062 l 1
 346 1184 l 1
 110 1184 l 1
 110 0 l 1
814 138.26844287 m 1
 814 553.582183559 l 1
 1003.11359051 548.909009003 1052 503.673976848 1052 350 c 0
 1052 176.795536504 990.189099523 141.545836391 814 138.26844287 c 1
EndSplineSet
EndChar

StartChar: afii10108
Encoding: 251 1115 221
Width: 849
VWidth: 0
GlyphClass: 2
Flags: HW
LayerCount: 2
UndoRedoHistory
Layer: 1
Undoes
EndUndoes
Redoes
EndRedoes
EndUndoRedoHistory
Fore
SplineSet
346 138.441535926 m 1
 346 553.357481663 l 1
 528.497022377 547.597697321 576 501.483969297 576 350 c 0
 576 179.443243553 516.064412353 142.65576968 346 138.441535926 c 1
346 691.666278089 m 1
 346 1184 l 1
 110 1184 l 1
 110 0 l 1
 346 0 l 1
 346 0.338549576997 l 1
 665.879410542 6.08546976155 788 86.4148707778 788 349 c 0
 788 635.92769743 659.820254545 687.257412017 346 691.666278089 c 1
EndSplineSet
EndChar

StartChar: afii10145
Encoding: 175 1039 224
Width: 1131
VWidth: 0
GlyphClass: 2
Flags: HW
LayerCount: 2
UndoRedoHistory
Layer: 1
Undoes
EndUndoes
Redoes
EndRedoes
EndUndoRedoHistory
Fore
SplineSet
475 -306 m 1
 662 -306 l 1
 677.376884422 0 l 1
 1005 0 l 1
 1005 1658 l 1
 755 1658 l 1
 755 178 l 1
 376 178 l 1
 376 1658 l 1
 126 1658 l 1
 126 0 l 1
 459.623115578 0 l 1
 475 -306 l 1
EndSplineSet
EndChar

StartChar: afii10193
Encoding: 255 1119 225
Width: 927
VWidth: 0
GlyphClass: 2
Flags: HW
HStem: 2 20 1094 105
VStem: 111 153 593 153
LayerCount: 2
UndoRedoHistory
Layer: 1
Undoes
EndUndoes
Redoes
EndRedoes
EndUndoRedoHistory
Fore
SplineSet
401 -306 m 1
 533 -306 l 1
 548.652173913 0 l 1
 817 0 l 1
 817 1184 l 1
 581 1184 l 1
 581 178 l 1
 346 178 l 1
 346 1184 l 1
 110 1184 l 1
 110 0 l 1
 383.782608696 0 l 1
 401 -306 l 1
EndSplineSet
EndChar

StartChar: ampersand
Encoding: 38 38 229
Width: 1242
VWidth: 0
GlyphClass: 2
Flags: HW
LayerCount: 2
UndoRedoHistory
Layer: 1
Undoes
EndUndoes
Redoes
EndRedoes
EndUndoRedoHistory
Fore
SplineSet
504 947 m 1
 465 1045 414 1173 414 1302 c 0
 414 1389 447 1480 533 1480 c 0
 605 1480 651 1434 651 1362 c 0
 651 1210 577 1039 504 947 c 1
473 178 m 0
 382 178 355 263 355 355 c 0
 355 472 397 592 448 661 c 1
 684 298 l 1
 640 242 572 178 473 178 c 0
473 -17 m 0
 636 -17 756 51 829 145 c 1
 898 78 974 -18 1098 -18 c 0
 1107 -18 1116 -18 1125 -17 c 1
 1125 227 l 1
 1061 227 999 269 970 306 c 1
 1040 411 1125 605 1125 769 c 1
 888 769 l 1
 874 653 854 533 819 454 c 1
 587 820 l 1
 705 938 888 1137 888 1362 c 0
 888 1558 730 1674 533 1674 c 0
 314 1674 178 1521 178 1302 c 0
 178 1117 289 963 355 829 c 1
 235 723 118 572 118 355 c 0
 118 134 250 -17 473 -17 c 0
EndSplineSet
EndChar

StartChar: approxequal
Encoding: 65537 8776 231
Width: 936
VWidth: 0
Flags: HW
LayerCount: 2
UndoRedoHistory
Layer: 1
Undoes
EndUndoes
Redoes
EndRedoes
EndUndoRedoHistory
Fore
SplineSet
619 506 m 0
 699 506 811 607 866 672 c 1
 781 781 l 1
 727 739 674 698 633 698 c 0
 539 698 428 815 323 815 c 0
 250 815 128 719 70 661 c 1
 154 547 l 1
 203 586 267 625 306 625 c 0
 398 625 513 506 619 506 c 0
619 893 m 0
 699 893 811 994 866 1059 c 1
 781 1168 l 1
 727 1126 674 1085 633 1085 c 0
 539 1085 428 1202 323 1202 c 0
 250 1202 128 1106 70 1048 c 1
 154 934 l 1
 203 973 267 1012 306 1012 c 0
 398 1012 513 893 619 893 c 0
EndSplineSet
EndChar

StartChar: asciicircum
Encoding: 94 94 233
Width: 933
VWidth: 0
GlyphClass: 2
Flags: HW
LayerCount: 2
UndoRedoHistory
Layer: 1
Undoes
EndUndoes
Redoes
EndRedoes
EndUndoRedoHistory
Fore
SplineSet
466 1480 m 1
 635 986 l 1
 861 986 l 1
 585 1658 l 1
 348 1658 l 1
 72 986 l 1
 298 986 l 1
 466 1480 l 1
EndSplineSet
EndChar

StartChar: asciitilde
Encoding: 126 126 234
Width: 936
VWidth: 0
GlyphClass: 2
Flags: HW
LayerCount: 2
UndoRedoHistory
Layer: 1
Undoes
EndUndoes
Redoes
EndRedoes
EndUndoRedoHistory
Fore
SplineSet
619 737 m 0
 699 737 811 838 866 903 c 1
 781 1012 l 1
 727 970 674 929 633 929 c 0
 539 929 428 1046 323 1046 c 0
 250 1046 128 950 70 892 c 1
 154 778 l 1
 203 817 267 856 306 856 c 0
 398 856 513 737 619 737 c 0
EndSplineSet
EndChar

StartChar: asterisk
Encoding: 42 42 235
Width: 828
VWidth: 0
GlyphClass: 2
Flags: HW
LayerCount: 2
UndoRedoHistory
Layer: 1
Undoes
EndUndoes
Redoes
EndRedoes
EndUndoRedoHistory
Fore
SplineSet
317 952 m 1
 444 1208 l 1
 570 952 l 1
 712 1036 l 1
 552 1259 l 1
 790 1351 l 1
 734 1500 l 1
 506 1378 l 1
 533 1656 l 1
 355 1656 l 1
 381 1378 l 1
 154 1500 l 1
 98 1351 l 1
 336 1260 l 1
 177 1036 l 1
 317 952 l 1
EndSplineSet
EndChar

StartChar: at
Encoding: 64 64 236
Width: 1884
VWidth: 0
GlyphClass: 2
Flags: HW
LayerCount: 2
UndoRedoHistory
Layer: 1
Undoes
EndUndoes
Redoes
EndRedoes
EndUndoRedoHistory
Fore
SplineSet
940 378 m 1
 840 357 799 459 799 564 c 0
 799 832 946 1064 1109 1064 c 0
 1123 1064 1140 1061 1155 1057 c 1
 1084 590 l 2
 1062 449 998 389 940 378 c 1
970 -285 m 0
 1107 -285 1253 -262 1403 -217 c 1
 1362 -46 l 1
 1229 -85 1104 -103 992 -103 c 0
 590 -103 335 135 335 571 c 0
 335 1119 620 1474 1055 1474 c 0
 1464 1474 1623 1151 1623 847 c 0
 1623 576 1497 321 1311 321 c 0
 1251 321 1261 385 1270 456 c 1
 1389 1219 l 1
 1218 1219 l 1
 1197 1185 l 1
 1167 1209 1111 1238 1067 1238 c 0
 770 1238 579 861 579 566 c 0
 579 367 678 176 892 196 c 0
 1009 207 1060 297 1078 379 c 1
 1084 264 1167 191 1287 191 c 0
 1611 191 1794 523 1794 871 c 0
 1794 1255 1572 1658 1070 1658 c 0
 512 1658 120 1310 120 561 c 0
 120 -2 485 -285 970 -285 c 0
EndSplineSet
EndChar

StartChar: b
Encoding: 98 98 238
Width: 932
VWidth: 0
GlyphClass: 2
Flags: HW
LayerCount: 2
UndoRedoHistory
Layer: 1
Undoes
EndUndoes
Redoes
EndRedoes
EndUndoRedoHistory
Fore
SplineSet
548 -17 m 0
 784 -17 844 226 844 466 c 2
 844 761 l 2
 844 879 825 1200 574 1200 c 0
 474.287536077 1200 402.640036539 1150.52223014 350 1090.925921 c 1
 350 1658 l 1
 114 1658 l 1
 114 0 l 1
 350 0 l 1
 350 85.8315633537 l 1
 401.136190136 30.3642953952 467.476115009 -17 548 -17 c 0
350 961.320251609 m 1
 389.01773411 990.642245949 436.394193094 1014 489 1014 c 0
 596 1014 608 889 608 761 c 2
 608 465 l 2
 608 310 606 170 499 170 c 0
 437.358654946 170 388.876114427 188.219883201 350 213.000561386 c 1
 350 961.320251609 l 1
EndSplineSet
EndChar

StartChar: backslash
Encoding: 92 92 239
Width: 769
VWidth: 0
GlyphClass: 2
Flags: HW
LayerCount: 2
UndoRedoHistory
Layer: 1
Undoes
EndUndoes
Redoes
EndRedoes
EndUndoRedoHistory
Fore
SplineSet
706 0 m 1
 265 1658 l 1
 61 1658 l 1
 502 0 l 1
 706 0 l 1
EndSplineSet
EndChar

StartChar: bar
Encoding: 124 124 240
Width: 501
VWidth: 0
GlyphClass: 2
Flags: HW
LayerCount: 2
UndoRedoHistory
Layer: 1
Undoes
EndUndoes
Redoes
EndRedoes
EndUndoRedoHistory
Fore
SplineSet
140 -306 m 1
 359 -306 l 1
 361 1658.66406 l 1
 142 1659 l 1
 140 -306 l 1
EndSplineSet
EndChar

StartChar: braceleft
Encoding: 123 123 241
Width: 637
VWidth: 0
GlyphClass: 2
Flags: HW
LayerCount: 2
UndoRedoHistory
Layer: 1
Undoes
EndUndoes
Redoes
EndRedoes
EndUndoRedoHistory
Fore
SplineSet
588 -406 m 1
 588 -231 l 1
 451 -231 451 -206 451 7 c 2
 451 333 l 2
 451 538 393 615 310 634 c 1
 393 653 451 730 451 935 c 2
 451 1261 l 2
 451 1474 451 1499 588 1499 c 1
 588 1674 l 1
 226 1674 201 1626 201 1261 c 2
 201 967 l 2
 201 743 182 714 82 714 c 1
 82 554 l 1
 182 554 201 525 201 301 c 2
 201 7 l 2
 201 -358 226 -406 588 -406 c 1
EndSplineSet
EndChar

StartChar: braceright
Encoding: 125 125 242
Width: 685
VWidth: 0
GlyphClass: 2
Flags: HW
LayerCount: 2
UndoRedoHistory
Layer: 1
Undoes
EndUndoes
Redoes
EndRedoes
EndUndoRedoHistory
Fore
SplineSet
96 -406 m 1
 458 -406 483 -358 483 7 c 2
 483 301 l 2
 483 525 502 554 602 554 c 1
 602 714 l 1
 502 714 483 743 483 967 c 2
 483 1261 l 2
 483 1626 458 1674 96 1674 c 1
 96 1499 l 1
 233 1499 233 1474 233 1261 c 2
 233 935 l 2
 233 730 291 653 374 634 c 1
 291 615 233 538 233 333 c 2
 233 7 l 2
 233 -206 233 -231 96 -231 c 1
 96 -406 l 1
EndSplineSet
EndChar

StartChar: bracketleft
Encoding: 91 91 243
Width: 717
VWidth: 0
GlyphClass: 2
Flags: HW
LayerCount: 2
UndoRedoHistory
Layer: 1
Undoes
EndUndoes
Redoes
EndRedoes
EndUndoRedoHistory
Fore
SplineSet
126 -390 m 1
 600 -390 l 1
 600 -270 l 1
 363 -270 l 1
 363 1539 l 1
 600 1539 l 1
 600 1658 l 1
 126 1658 l 1
 126 -390 l 1
EndSplineSet
EndChar

StartChar: bracketright
Encoding: 93 93 244
Width: 647
VWidth: 0
GlyphClass: 2
Flags: HW
LayerCount: 2
UndoRedoHistory
Layer: 1
Undoes
EndUndoes
Redoes
EndRedoes
EndUndoRedoHistory
Fore
SplineSet
47 -390 m 1
 521 -390 l 1
 521 1658 l 1
 47 1658 l 1
 47 1538 l 1
 284 1538 l 1
 284 -271 l 1
 47 -271 l 1
 47 -390 l 1
EndSplineSet
EndChar

StartChar: breve
Encoding: 365 728 245
Width: 709
VWidth: 0
GlyphClass: 2
Flags: HW
LayerCount: 2
UndoRedoHistory
Layer: 1
Undoes
EndUndoes
Redoes
EndRedoes
EndUndoRedoHistory
Fore
SplineSet
355 1342 m 0
 587 1342 631 1484 631 1658 c 1
 493 1658 l 1
 493 1527 460 1474 355 1474 c 0
 250 1474 217 1526 217 1658 c 1
 80 1658 l 1
 80 1485 126 1342 355 1342 c 0
EndSplineSet
EndChar

StartChar: brevecomb
Encoding: -1 774 246
Width: 709
VWidth: 0
GlyphClass: 2
Flags: HW
LayerCount: 2
UndoRedoHistory
Layer: 1
Undoes
EndUndoes
Redoes
EndRedoes
EndUndoRedoHistory
Fore
SplineSet
355 1342 m 0
 587 1342 631 1484 631 1658 c 1
 493 1658 l 1
 493 1527 460 1474 355 1474 c 0
 250 1474 217 1526 217 1658 c 1
 80 1658 l 1
 80 1485 126 1342 355 1342 c 0
EndSplineSet
EndChar

StartChar: brokenbar
Encoding: 366 166 247
Width: 440
VWidth: 0
GlyphClass: 2
Flags: HW
LayerCount: 2
UndoRedoHistory
Layer: 1
Undoes
EndUndoes
Redoes
EndRedoes
EndUndoRedoHistory
Fore
SplineSet
126 823 m 1
 314 823 l 1
 314 1658 l 1
 126 1658 l 1
 126 823 l 1
126 -306 m 1
 314 -306 l 1
 314 529 l 1
 126 529 l 1
 126 -306 l 1
EndSplineSet
EndChar

StartChar: bullet
Encoding: 367 8226 248
Width: 775
VWidth: 0
GlyphClass: 2
Flags: HW
LayerCount: 2
UndoRedoHistory
Layer: 1
Undoes
EndUndoes
Redoes
EndRedoes
EndUndoRedoHistory
Fore
SplineSet
387 544 m 0
 543 544 633 643 633 798 c 0
 633 952 543 1052 387 1052 c 0
 231 1052 142 953 142 798 c 0
 142 644 231 544 387 544 c 0
EndSplineSet
EndChar

StartChar: c
Encoding: 99 99 249
Width: 837
VWidth: 0
GlyphClass: 2
Flags: HW
LayerCount: 2
UndoRedoHistory
Layer: 1
Undoes
EndUndoes
Redoes
EndRedoes
EndUndoRedoHistory
Fore
SplineSet
440 -17 m 0
 693 -17 769 118 769 360 c 2
 769 447 l 1
 556 447 l 1
 556 344 l 2
 556 240 546 158 445 158 c 0
 354 158 324 201 324 395 c 2
 324 779 l 2
 324 965 342 1026 444 1026 c 0
 533 1026 556 971 556 830 c 2
 556 755 l 1
 769 755 l 1
 769 829 l 2
 769 1078 700 1200 440 1200 c 0
 146 1200 88 1017 88 729 c 2
 88 455 l 2
 88 167 145 -17 440 -17 c 0
EndSplineSet
EndChar

StartChar: caron
Encoding: 369 711 251
Width: 709
VWidth: 0
GlyphClass: 2
Flags: HW
LayerCount: 2
UndoRedoHistory
Layer: 1
Undoes
EndUndoes
Redoes
EndRedoes
EndUndoRedoHistory
Fore
SplineSet
237 1302 m 1
 473 1302 l 1
 651 1658 l 1
 473 1658 l 1
 355 1421 l 1
 237 1658 l 1
 60 1658 l 1
 237 1302 l 1
EndSplineSet
EndChar

StartChar: cedilla
Encoding: 374 184 256
Width: 532
VWidth: 0
GlyphClass: 2
Flags: HW
LayerCount: 2
UndoRedoHistory
Layer: 1
Undoes
EndUndoes
Redoes
EndRedoes
EndUndoRedoHistory
Fore
SplineSet
60 -473 m 1
 60 -473 473 -463 473 -296 c 0
 473 -190 324 -142 237 -118 c 1
 237 0 l 1
 118 0 l 1
 118 -178 l 1
 167 -196 296 -234 296 -296 c 0
 296 -375.127 144.8 -355 60 -355 c 1
 60 -473 l 1
EndSplineSet
EndChar

StartChar: cent
Encoding: 375 162 257
Width: 797
VWidth: 0
GlyphClass: 2
Flags: HW
LayerCount: 2
UndoRedoHistory
Layer: 1
Undoes
EndUndoes
Redoes
EndRedoes
EndUndoRedoHistory
Fore
SplineSet
368 -151 m 1
 440 -151 l 1
 440 -17 l 1
 693 -17 769 118 769 360 c 2
 769 447 l 1
 556 447 l 1
 556 344 l 2
 556 240 546 158 445 158 c 0
 354 158 324 201 324 395 c 2
 324 779 l 2
 324 965 342 1026 444 1026 c 0
 533 1026 556 971 556 830 c 2
 556 755 l 1
 769 755 l 1
 769 829 l 2
 769 1078 700 1200 440 1200 c 1
 440 1333 l 1
 368 1333 l 1
 368 1195.83332268 l 1
 136.27651052 1167.10734825 88 991.752239682 88 729 c 2
 88 455 l 2
 88 192.165259566 135.473955252 15.949665557 368 -12.8387668926 c 1
 368 -151 l 1
EndSplineSet
EndChar

StartChar: circumflex
Encoding: 376 710 258
Width: 709
VWidth: 0
GlyphClass: 2
Flags: HW
LayerCount: 2
UndoRedoHistory
Layer: 1
Undoes
EndUndoes
Redoes
EndRedoes
EndUndoRedoHistory
Fore
SplineSet
60 1302 m 1
 237 1302 l 1
 355 1540 l 1
 473 1302 l 1
 651 1302 l 1
 473 1658 l 1
 237 1658 l 1
 60 1302 l 1
EndSplineSet
EndChar

StartChar: colon
Encoding: 58 58 259
Width: 405
VWidth: 0
GlyphClass: 2
Flags: HW
LayerCount: 2
UndoRedoHistory
Layer: 1
Undoes
EndUndoes
Redoes
EndRedoes
EndUndoRedoHistory
Fore
SplineSet
118 844 m 1
 355 844 l 1
 355 1082 l 1
 118 1082 l 1
 118 844 l 1
118 204 m 1
 355 204 l 1
 355 440 l 1
 118 440 l 1
 118 204 l 1
EndSplineSet
EndChar

StartChar: comma
Encoding: 44 44 260
Width: 385
VWidth: 0
GlyphClass: 2
Flags: HW
LayerCount: 2
UndoRedoHistory
Layer: 1
Undoes
EndUndoes
Redoes
EndRedoes
EndUndoRedoHistory
Fore
SplineSet
113 -237 m 1
 262 -237 318 -147 318 2 c 2
 318 238 l 1
 76 238 l 1
 76 0 l 1
 200 0 l 1
 200 -83 162 -134 76 -134 c 1
 113 -237 l 1
EndSplineSet
EndChar

StartChar: copyright
Encoding: 377 169 261
Width: 1765
VWidth: 0
GlyphClass: 2
Flags: HW
LayerCount: 2
UndoRedoHistory
Layer: 1
Undoes
EndUndoes
Redoes
EndRedoes
EndUndoRedoHistory
Fore
SplineSet
883 -22 m 0
 1469 -22 1705 426 1705 843 c 0
 1705 1260 1467 1708 883 1708 c 0
 298 1708 60 1260 60 843 c 0
 60 427 298 -22 883 -22 c 0
889 71 m 0
 389 71 170 458 170 844 c 0
 170 1231 389 1613 889 1613 c 0
 1387 1613 1607 1231 1607 844 c 0
 1607 458 1387 71 889 71 c 0
888 255 m 0
 1169 255 1254 396 1254 649 c 2
 1254 699 l 1
 1023 699 l 1
 1023 632 l 2
 1023 523 1006 437 894 437 c 0
 793 437 752 482 752 684 c 2
 752 1015 l 2
 752 1209 780 1273 893 1273 c 0
 992 1273 1023 1215 1023 1068 c 2
 1023 1011 l 1
 1254 1011 l 1
 1254 1067 l 2
 1254 1327 1177 1454 888 1454 c 0
 562 1454 498 1263 498 963 c 2
 498 747 l 2
 498 447 561 255 888 255 c 0
EndSplineSet
EndChar

StartChar: currency
Encoding: 378 164 262
Width: 1138
VWidth: 0
GlyphClass: 2
Flags: HW
LayerCount: 2
UndoRedoHistory
Layer: 1
Undoes
EndUndoes
Redoes
EndRedoes
EndUndoRedoHistory
Fore
SplineSet
569 521 m 0
 380 521 235 677 235 866 c 0
 235 1056 380 1211 569 1211 c 0
 759 1211 904 1056 904 866 c 0
 904 677 759 521 569 521 c 0
114 381 m 1
 276 543 l 1
 352 471 455 427 569 428 c 1
 683 427 786 471 862 543 c 1
 1024 381 l 1
 1054 411 l 1
 891 573 l 1
 960 650 1002 754 1002 866 c 0
 1002 979 960 1082 892 1159 c 1
 1054 1321 l 1
 1024 1351 l 1
 862 1189 l 1
 786 1261 683 1305 569 1304 c 1
 455 1305 352 1261 276 1189 c 1
 114 1351 l 1
 84 1321 l 1
 247 1159 l 1
 178 1082 136 979 136 866 c 0
 136 754 178 650 247 573 c 1
 84 411 l 1
 114 381 l 1
EndSplineSet
EndChar

StartChar: d
Encoding: 100 100 263
Width: 920
VWidth: 0
GlyphClass: 2
Flags: HW
LayerCount: 2
UndoRedoHistory
Layer: 1
Undoes
EndUndoes
Redoes
EndRedoes
EndUndoRedoHistory
Fore
SplineSet
574 0 m 1
 810 0 l 1
 810 1658 l 1
 574 1658 l 1
 574 1110.57712962 l 1
 522.71433811 1161.37223868 457.6801657 1200 380 1200 c 0
 135 1200 88 955 88 695 c 2
 88 462 l 2
 88 112 186 -18 388 -17 c 0
 460.652643834 -16.4696887311 522.056085992 18.370687647 574 73.3528804012 c 1
 574 0 l 1
574 204.770568791 m 1
 528.826986961 180.564128631 484.326437627 170 449 170 c 0
 336 170 324 294 324 441 c 2
 324 790 l 2
 324 902 348 1014 445 1014 c 0
 491.665009713 1014 535.367266866 995.630934129 574 969.777788257 c 1
 574 204.770568791 l 1
EndSplineSet
EndChar

StartChar: dagger
Encoding: 381 8224 264
Width: 785
VWidth: 0
GlyphClass: 2
Flags: HW
LayerCount: 2
UndoRedoHistory
Layer: 1
Undoes
EndUndoes
Redoes
EndRedoes
EndUndoRedoHistory
Fore
SplineSet
278 0 m 1
 509 0 l 1
 509 1098 l 1
 695 1098 l 1
 695 1282 l 1
 509 1282 l 1
 509 1651 l 1
 278 1651 l 1
 278 1282 l 1
 93 1282 l 1
 93 1098 l 1
 278 1098 l 1
 278 0 l 1
EndSplineSet
EndChar

StartChar: daggerdbl
Encoding: 382 8225 265
Width: 785
VWidth: 0
GlyphClass: 2
Flags: HW
LayerCount: 2
UndoRedoHistory
Layer: 1
Undoes
EndUndoes
Redoes
EndRedoes
EndUndoRedoHistory
Fore
SplineSet
281 0 m 1
 506 0 l 1
 506 517 l 1
 715 517 l 1
 715 675 l 1
 506 675 l 1
 506 1026 l 1
 715 1026 l 1
 715 1184 l 1
 506 1184 l 1
 506 1652 l 1
 281 1652 l 1
 281 1184 l 1
 73 1184 l 1
 73 1026 l 1
 281 1026 l 1
 281 675 l 1
 73 675 l 1
 73 517 l 1
 281 517 l 1
 281 0 l 1
EndSplineSet
EndChar

StartChar: dcroat
Encoding: 384 273 267
Width: 976
VWidth: 0
GlyphClass: 2
Flags: HW
LayerCount: 2
UndoRedoHistory
Layer: 1
Undoes
EndUndoes
Redoes
EndRedoes
EndUndoRedoHistory
Fore
SplineSet
574 0 m 1
 810 0 l 1
 810 1387 l 1
 932 1387 l 1
 932 1515 l 1
 810 1515 l 1
 810 1658 l 1
 574 1658 l 1
 574 1515 l 1
 336 1515 l 1
 336 1387 l 1
 574 1387 l 1
 574 1110.57712962 l 1
 522.71433811 1161.37223868 457.6801657 1200 380 1200 c 0
 135 1200 88 955 88 695 c 2
 88 462 l 2
 88 112 186 -18 388 -17 c 0
 460.652643834 -16.4696887311 522.056085992 18.370687647 574 73.3528804012 c 1
 574 0 l 1
574 969.777788257 m 1
 574 204.770568791 l 1
 528.826986961 180.564128631 484.326437627 170 449 170 c 0
 336 170 324 294 324 441 c 2
 324 790 l 2
 324 902 348 1014 445 1014 c 0
 491.665009713 1014 535.367266866 995.630934129 574 969.777788257 c 1
EndSplineSet
EndChar

StartChar: degree
Encoding: 385 176 268
Width: 947
VWidth: 0
GlyphClass: 2
Flags: HW
LayerCount: 2
UndoRedoHistory
Layer: 1
Undoes
EndUndoes
Redoes
EndRedoes
EndUndoRedoHistory
Fore
SplineSet
473 964 m 0
 696 964 829 1101 829 1320 c 0
 829 1538 696 1674 473 1674 c 0
 251 1674 118 1539 118 1320 c 0
 118 1101 249 964 473 964 c 0
473 1121 m 0
 357 1121 296 1205 296 1320 c 0
 296 1435 357 1517 473 1517 c 0
 589 1517 651 1435 651 1320 c 0
 651 1205 589 1121 473 1121 c 0
EndSplineSet
EndChar

StartChar: dieresis
Encoding: 386 168 269
Width: 828
VWidth: 0
GlyphClass: 2
Flags: HW
LayerCount: 2
UndoRedoHistory
Layer: 1
Undoes
EndUndoes
Redoes
EndRedoes
EndUndoRedoHistory
Fore
SplineSet
473 1421 m 1
 711 1421 l 1
 711 1658 l 1
 473 1658 l 1
 473 1421 l 1
118 1421 m 1
 355 1421 l 1
 355 1658 l 1
 118 1658 l 1
 118 1421 l 1
EndSplineSet
EndChar

StartChar: divide
Encoding: 387 247 270
Width: 714
VWidth: 0
GlyphClass: 2
Flags: HW
LayerCount: 2
UndoRedoHistory
Layer: 1
Undoes
EndUndoes
Redoes
EndRedoes
EndUndoRedoHistory
Fore
SplineSet
262 1076 m 1
 448 1076 l 1
 448 1313 l 1
 262 1313 l 1
 262 1076 l 1
34 754 m 1
 680 754 l 1
 680 924 l 1
 34 924 l 1
 34 754 l 1
262 341 m 1
 448 341 l 1
 448 578 l 1
 262 578 l 1
 262 341 l 1
EndSplineSet
EndChar

StartChar: dollar
Encoding: 36 36 271
Width: 1018
VWidth: 0
GlyphClass: 2
Flags: HW
LayerCount: 2
UndoRedoHistory
Layer: 1
Undoes
EndUndoes
Redoes
EndRedoes
EndUndoRedoHistory
Fore
SplineSet
509 -151 m 1
 581 -151 l 1
 581 -13.9869915389 l 1
 785.941698491 8.54231384353 926 156.037958005 926 382 c 0
 926 594 812 738 689 848 c 1
 413 1087 l 1
 339 1153 306 1205 306 1308 c 0
 306 1421 367 1472 476 1480 c 0
 644 1493 677 1337 687 1184 c 1
 898 1243 l 1
 872.972444485 1508.10669915 768.895746003 1655.49891367 534 1672.43328243 c 1
 534 1800 l 1
 462 1800 l 1
 462 1673.66920957 l 1
 228.152244376 1665.48261677 82 1525.22152437 82 1284 c 0
 82 1108 137 1006 246 909 c 1
 520 670 l 1
 617 583 694 511 694 362 c 0
 694 244 637 178 525 178 c 0
 354 178 309 362 301 533 c 1
 78 473 l 1
 93.7059039721 188.330490505 226.968062588 -9.61719179252 509 -16.79796639 c 1
 509 -151 l 1
EndSplineSet
EndChar

StartChar: dotaccent
Encoding: 388 729 272
Width: 354
VWidth: 0
GlyphClass: 2
Flags: HW
LayerCount: 2
UndoRedoHistory
Layer: 1
Undoes
EndUndoes
Redoes
EndRedoes
EndUndoRedoHistory
Fore
SplineSet
60 1338 m 1
 296 1338 l 1
 296 1574 l 1
 60 1574 l 1
 60 1338 l 1
EndSplineSet
EndChar

StartChar: dotlessi
Encoding: 389 305 273
Width: 473
VWidth: 0
GlyphClass: 2
Flags: HW
LayerCount: 2
UndoRedoHistory
Layer: 1
Undoes
EndUndoes
Redoes
EndRedoes
EndUndoRedoHistory
Fore
SplineSet
124 0 m 1
 360 0 l 1
 360 1184 l 1
 124 1184 l 1
 124 0 l 1
EndSplineSet
EndChar

StartChar: e
Encoding: 101 101 274
Width: 875
VWidth: 0
GlyphClass: 2
Flags: HW
AnchorPoint: "ogonek" 522 0 basechar 0
LayerCount: 2
UndoRedoHistory
Layer: 1
Undoes
EndUndoes
Redoes
EndRedoes
EndUndoRedoHistory
Fore
SplineSet
446 -17 m 0
 688 -17 786 129 786 373 c 2
 786 414 l 1
 556 414 l 1
 556 344 l 2
 556 244 547 158 444 158 c 0
 311 158 324 293 324 430 c 2
 324 583 l 1
 788 583 l 1
 788 677 l 2
 788 998 753 1200 444 1200 c 0
 158 1200 88 1028 88 723 c 2
 88 459 l 2
 88 159 151 -17 446 -17 c 0
556 710 m 1
 324 710 l 1
 324 770 l 2
 324 961 340 1026 442 1026 c 0
 541 1026 556 954 556 820 c 2
 556 710 l 1
EndSplineSet
EndChar

StartChar: eight
Encoding: 56 56 281
Width: 976
VWidth: 0
GlyphClass: 2
Flags: HW
LayerCount: 2
UndoRedoHistory
Layer: 1
Undoes
EndUndoes
Redoes
EndRedoes
EndUndoRedoHistory
Fore
SplineSet
489 983 m 0
 359 983 329 1128 329 1257 c 0
 329 1379 367 1490 489 1490 c 0
 609 1490 647 1377 647 1257 c 0
 647 1128 618 983 489 983 c 0
489 170 m 0
 329 170 300 309 300 468 c 0
 300 613 342 757 489 757 c 0
 635 757 675 612 675 468 c 0
 675 312 649 170 489 170 c 0
489 -17 m 0
 791 -17 902 170 902 472 c 0
 902 679 826 794 704 875 c 1
 809 954 878 1063 878 1243 c 0
 878 1509 755 1674 489 1674 c 0
 222 1674 97 1510 97 1243 c 0
 97 1063 167 954 272 875 c 1
 147 795 74 680 74 472 c 0
 74 170 186 -17 489 -17 c 0
EndSplineSet
EndChar

StartChar: ellipsis
Encoding: 65538 8230 282
Width: 1144
VWidth: 0
Flags: HW
LayerCount: 2
UndoRedoHistory
Layer: 1
Undoes
EndUndoes
Redoes
EndRedoes
EndUndoRedoHistory
Fore
SplineSet
70 0 m 1
 306 0 l 1
 306 248 l 1
 70 248 l 1
 70 0 l 1
454 0 m 1
 690 0 l 1
 690 248 l 1
 454 248 l 1
 454 0 l 1
838 0 m 1
 1074 0 l 1
 1074 248 l 1
 838 248 l 1
 838 0 l 1
EndSplineSet
EndChar

StartChar: emdash
Encoding: 397 8212 284
Width: 2048
VWidth: 0
GlyphClass: 2
Flags: HW
LayerCount: 2
UndoRedoHistory
Layer: 1
Undoes
EndUndoes
Redoes
EndRedoes
EndUndoRedoHistory
Fore
SplineSet
0 562 m 1
 2046 562 l 1
 2046 732 l 1
 0 732 l 1
 0 562 l 1
EndSplineSet
EndChar

StartChar: endash
Encoding: 398 8211 285
Width: 1024
VWidth: 0
GlyphClass: 2
Flags: HW
LayerCount: 2
UndoRedoHistory
Layer: 1
Undoes
EndUndoes
Redoes
EndRedoes
EndUndoRedoHistory
Fore
SplineSet
0 414 m 1
 355 414 l 1
 355 592 l 1
 0 592 l 1
 0 414 l 1
EndSplineSet
EndChar

StartChar: eng
Encoding: 399 331 286
Width: 794
VWidth: 0
GlyphClass: 2
Flags: HW
HStem: -406 237
LayerCount: 2
UndoRedoHistory
Layer: 1
Undoes
EndUndoes
Redoes
EndRedoes
EndUndoRedoHistory
Fore
SplineSet
340 -386 m 1
 411 -386 l 2
 654 -386 819 -255 819 -12 c 2
 819 0 l 1
 790 0 l 1
 790 960 l 2
 790 1064 761 1200 615 1200 c 0
 498.152039667 1200 402.77851443 1140.26202601 324 1068.84840726 c 1
 324 1184 l 1
 88 1184 l 1
 88 0 l 1
 324 0 l 1
 324 949.799881678 l 1
 369.864032288 985.07323301 420.611908969 1014 465 1014 c 0
 542 1014 554 963 554 888 c 2
 554 0 l 1
 582 0 l 1
 582 -10 l 2
 582 -146 544 -208 340 -208 c 1
 340 -386 l 1
EndSplineSet
EndChar

StartChar: equal
Encoding: 61 61 288
Width: 857
VWidth: 0
GlyphClass: 2
Flags: HW
LayerCount: 2
UndoRedoHistory
Layer: 1
Undoes
EndUndoes
Redoes
EndRedoes
EndUndoRedoHistory
Fore
SplineSet
112 936 m 1
 745 936 l 1
 745 1114 l 1
 112 1114 l 1
 112 936 l 1
112 569 m 1
 745 569 l 1
 745 747 l 1
 112 747 l 1
 112 569 l 1
EndSplineSet
EndChar

StartChar: estimated
Encoding: 65539 8494 289
Width: 875
VWidth: 0
Flags: HW
LayerCount: 2
UndoRedoHistory
Layer: 1
Undoes
EndUndoes
Redoes
EndRedoes
EndUndoRedoHistory
Fore
SplineSet
477 -17 m 0
 733 -17 786 75 786 319 c 2
 786 414 l 1
 669 414 l 1
 669 311 l 2
 669 143 668 58 505 58 c 0
 325 58 324 141 324 320 c 2
 324 583 l 1
 788 583 l 1
 788 717 l 2
 788 1038 763 1200 454 1200 c 0
 168 1200 88 1068 88 763 c 2
 88 419 l 2
 88 119 182 -17 477 -17 c 0
576 659 m 1
 324 659 l 1
 324 830 l 2
 324 1021 335 1116 452 1116 c 0
 567 1116 576 1014 576 880 c 2
 576 659 l 1
EndSplineSet
EndChar

StartChar: eth
Encoding: 401 240 290
Width: 1000
VWidth: 0
GlyphClass: 2
Flags: HW
LayerCount: 2
UndoRedoHistory
Layer: 1
Undoes
EndUndoes
Redoes
EndRedoes
EndUndoRedoHistory
Fore
SplineSet
505 169 m 0
 325 169 371 395 371 591 c 0
 371 828 400 907 518 907 c 0
 608 907 625 864 660 835 c 1
 660 428 l 2
 660 284 646 169 505 169 c 0
498 -17 m 0
 789 -17 896 184 896 483 c 2
 896 788 l 2
 896 993 830 1263 766 1394 c 1
 956 1465 l 1
 956 1584 l 1
 705 1490 l 1
 615 1615 471 1674 197 1674 c 1
 187 1520 l 1
 383 1520 455 1478 512 1421 c 1
 336 1357 l 1
 336 1238 l 1
 575 1328 l 1
 614 1270 648 1134 657 1023 c 1
 620 1060 557 1100 458 1100 c 0
 176 1100 135 846 135 555 c 2
 135 460 l 2
 135 164 186 -17 498 -17 c 0
EndSplineSet
EndChar

StartChar: exclam
Encoding: 33 33 291
Width: 428
VWidth: 0
GlyphClass: 2
Flags: HW
LayerCount: 2
UndoRedoHistory
Layer: 1
Undoes
EndUndoes
Redoes
EndRedoes
EndUndoRedoHistory
Fore
SplineSet
172 355 m 1
 255 355 l 1
 332 1658 l 1
 96 1658 l 1
 172 355 l 1
96 0 m 1
 332 0 l 1
 332 237 l 1
 96 237 l 1
 96 0 l 1
EndSplineSet
EndChar

StartChar: exclamdown
Encoding: 402 161 292
Width: 428
VWidth: 0
GlyphClass: 2
Flags: HW
LayerCount: 2
UndoRedoHistory
Layer: 1
Undoes
EndUndoes
Redoes
EndRedoes
EndUndoRedoHistory
Fore
SplineSet
256 947 m 1
 173 947 l 1
 96 -356 l 1
 332 -356 l 1
 256 947 l 1
332 1302 m 1
 96 1302 l 1
 96 1065 l 1
 332 1065 l 1
 332 1302 l 1
EndSplineSet
EndChar

StartChar: f
Encoding: 102 102 293
Width: 598
VWidth: 0
GlyphClass: 2
Flags: HW
LayerCount: 2
UndoRedoHistory
Layer: 1
Undoes
EndUndoes
Redoes
EndRedoes
EndUndoRedoHistory
Fore
SplineSet
179 0 m 1
 414 0 l 1
 414 1007 l 1
 592 1007 l 1
 592 1184 l 1
 414 1184 l 1
 414 1273 l 2
 414 1358 427 1421 512 1421 c 0
 535 1421 568 1413 592 1411 c 1
 592 1587 l 1
 532 1594 503 1598 445 1598 c 0
 215 1598 179 1459 179 1230 c 2
 179 1184 l 1
 39 1184 l 1
 39 1007 l 1
 179 1007 l 1
 179 0 l 1
EndSplineSet
EndChar

StartChar: five
Encoding: 53 53 294
Width: 971
VWidth: 0
GlyphClass: 2
Flags: HW
LayerCount: 2
UndoRedoHistory
Layer: 1
Undoes
EndUndoes
Redoes
EndRedoes
EndUndoRedoHistory
Fore
SplineSet
495 -17 m 0
 832 -17 914 257 914 592 c 0
 914 867 832 1078 558 1078 c 0
 457 1078 377 1046 322 990 c 1
 337 1421 l 1
 855 1421 l 1
 855 1658 l 1
 122 1658 l 1
 122 764 l 1
 324 764 l 1
 349 829 410 901 501 901 c 0
 666 901 677 764 677 559 c 0
 677 348 675 172 498 172 c 0
 336 172 322 337 322 473 c 1
 85 473 l 1
 85 169 187 -17 495 -17 c 0
EndSplineSet
EndChar

StartChar: florin
Encoding: 65540 402 295
Width: 781
VWidth: 0
GlyphClass: 2
Flags: HW
LayerCount: 2
UndoRedoHistory
Layer: 1
Undoes
EndUndoes
Redoes
EndRedoes
EndUndoRedoHistory
Fore
SplineSet
146 -237 m 0
 374 -237 426 -108 449 118 c 2
 536 1007 l 1
 707 1007 l 1
 707 1184 l 1
 554 1184 l 1
 562 1273 l 1
 571 1358 591 1421 676 1421 c 0
 699 1421 730 1413 754 1411 c 1
 771 1587 l 1
 712 1594 684 1598 626 1598 c 0
 399 1598 345 1467 323 1243 c 1
 318 1184 l 1
 169 1184 l 1
 169 1007 l 1
 300 1007 l 1
 210 89 l 2
 201 4 182 -60 97 -60 c 0
 75 -60 40 -54 18 -50 c 1
 1 -226 l 1
 60 -233 88 -237 146 -237 c 0
EndSplineSet
EndChar

StartChar: foundryicon
Encoding: 403 -1 296
Width: 1397
VWidth: 0
GlyphClass: 2
Flags: HW
LayerCount: 2
UndoRedoHistory
Layer: 1
Undoes
EndUndoes
Redoes
EndRedoes
EndUndoRedoHistory
Fore
SplineSet
269 256 m 1
 694 558 l 1
 1128 256 l 1
 971 757 l 1
 1397 1080 l 1
 868 1080 l 1
 694 1582 l 1
 529 1080 l 1
 0 1080 l 1
 424 757 l 1
 269 256 l 1
EndSplineSet
EndChar

StartChar: four
Encoding: 52 52 297
Width: 1005
VWidth: 0
GlyphClass: 2
Flags: HW
LayerCount: 2
UndoRedoHistory
Layer: 1
Undoes
EndUndoes
Redoes
EndRedoes
EndUndoRedoHistory
Fore
SplineSet
314 649 m 1
 550 1362 l 1
 550 649 l 1
 314 649 l 1
550 0 m 1
 787 0 l 1
 787 425 l 1
 970 425 l 1
 970 649 l 1
 787 649 l 1
 787 1659 l 1
 492 1659 l 1
 77 690 l 1
 77 425 l 1
 550 425 l 1
 550 0 l 1
EndSplineSet
EndChar

StartChar: fraction
Encoding: 404 8260 298
Width: 484
VWidth: 0
GlyphClass: 2
Flags: HW
LayerCount: 2
UndoRedoHistory
Layer: 1
Undoes
EndUndoes
Redoes
EndRedoes
EndUndoRedoHistory
Fore
SplineSet
0 0 m 1
 203 0 l 1
 484 1658 l 1
 282 1658 l 1
 0 0 l 1
EndSplineSet
EndChar

StartChar: g
Encoding: 103 103 299
Width: 889
VWidth: 0
GlyphClass: 2
Flags: HW
LayerCount: 2
UndoRedoHistory
Layer: 1
Undoes
EndUndoes
Redoes
EndRedoes
EndUndoRedoHistory
Fore
SplineSet
433 527 m 0
 323 527 305 625 305 776 c 0
 305 958 325 1036 437 1036 c 0
 549 1036 562 948 562 776 c 0
 562 605 546 527 433 527 c 0
496 -175 m 0
 276 -175 252 -145 252 -84 c 0
 252 -18 305 41 323 58 c 1
 519 44 l 2
 633 36 665 2 665 -67 c 0
 665 -143 616 -175 496 -175 c 0
870 1199 m 1
 765.38634774 1199 710.237132094 1147.67763983 675 1074 c 1
 634 1160 558 1200 433 1200 c 0
 217 1200 101 1065 101 776 c 0
 101 581 149 491 235 424 c 1
 149 351 106 306 106 217 c 0
 106 161 136 108 216 83 c 1
 130 37 51 -48 51 -181 c 0
 51 -353 275 -362 499 -362 c 0
 741 -362 845 -281 845 -60 c 0
 845 121 752 218 576 231 c 2
 394 245 l 2
 323 250 294 265 294 299 c 0
 294 327 312 354 323 374 c 1
 323 374 410 360 433 360 c 0
 684 360 761 527 761 769 c 0
 761 839 744 942 724 989 c 1
 754 1022 807 1007 870 1007 c 1
 870 1199 l 1
EndSplineSet
EndChar

StartChar: gcommaaccent
Encoding: 505 291 302
Width: 899
VWidth: 0
GlyphClass: 2
Flags: HW
LayerCount: 2
UndoRedoHistory
Layer: 1
Undoes
EndUndoes
Redoes
EndRedoes
EndUndoRedoHistory
Fore
SplineSet
445 518 m 0
 325 518 297 648 297 769 c 0
 297 891 323 1036 445 1036 c 0
 565 1036 593 891 593 769 c 0
 593 648 566 518 445 518 c 0
343 1274 m 1
 580 1274 l 1
 580 1510 l 1
 461 1510 l 1
 461 1593 494 1629 580 1629 c 1
 521 1748 l 1
 306 1748 343 1497 343 1274 c 1
504 -180 m 0
 431 -180 239 -196 239 -125 c 0
 239 -50 282 21 326 53 c 1
 522 29 l 2
 638 15 700 -15 708 -61 c 1
 711 -71 712 -82 712 -92 c 0
 712 -175 588 -180 504 -180 c 0
504 -354 m 0
 721 -354 919 -281 919 -60 c 0
 919 272 293 122 293 279 c 0
 293 307 315 327 326 347 c 1
 370 347 l 1
 393 343 419 340 445 340 c 0
 686 340 801 527 801 769 c 0
 801 839 786 901 770 947 c 1
 803 980 851 1007 919 1007 c 1
 919 1200 l 1
 807 1200 740 1133 701 1061 c 1
 646 1145 581 1200 445 1200 c 0
 210 1200 90 1011 90 769 c 0
 90 621 135 501 208 414 c 1
 167 361 90 275 90 186 c 0
 90 130 153 98 208 83 c 1
 115 37 30 -48 30 -181 c 0
 30 -353 327 -354 504 -354 c 0
EndSplineSet
EndChar

StartChar: germandbls
Encoding: 408 223 304
Width: 1065
VWidth: 0
GlyphClass: 2
Flags: HW
LayerCount: 2
UndoRedoHistory
Layer: 1
Undoes
EndUndoes
Redoes
EndRedoes
EndUndoRedoHistory
Fore
SplineSet
473 -17 m 1
 799 -17 947 149 947 473 c 0
 947 680 848 824 686 868 c 1
 818 941 888 1049 888 1243 c 0
 888 1518 753 1674 473 1674 c 0
 235 1674 118 1498 118 1253 c 2
 118 0 l 1
 354 0 l 1
 354 1257 l 2
 354 1384 378 1480 503 1480 c 0
 635 1480 657 1376 657 1243 c 0
 657 1097 616 947 473 947 c 1
 473 751 l 1
 634 751 711 642 711 473 c 0
 711 273 670 178 473 178 c 1
 473 -17 l 1
EndSplineSet
EndChar

StartChar: grave
Encoding: 96 96 305
Width: 591
VWidth: 0
GlyphClass: 2
Flags: HW
LayerCount: 2
UndoRedoHistory
Layer: 1
Undoes
EndUndoes
Redoes
EndRedoes
EndUndoRedoHistory
Fore
SplineSet
355 1302 m 1
 473 1302 l 1
 355 1658 l 1
 118 1658 l 1
 355 1302 l 1
EndSplineSet
EndChar

StartChar: gravecomb
Encoding: 586 768 306
Width: 0
VWidth: 0
GlyphClass: 2
Flags: HW
LayerCount: 2
UndoRedoHistory
Layer: 1
Undoes
EndUndoes
Redoes
EndRedoes
EndUndoRedoHistory
Fore
SplineSet
137 1302 m 1
 255 1302 l 1
 137 1658 l 1
 -100 1658 l 1
 137 1302 l 1
EndSplineSet
EndChar

StartChar: greater
Encoding: 62 62 307
Width: 769
VWidth: 0
GlyphClass: 2
Flags: HW
LayerCount: 2
UndoRedoHistory
Layer: 1
Undoes
EndUndoes
Redoes
EndRedoes
EndUndoRedoHistory
Fore
SplineSet
118 60 m 1
 711 473 l 1
 711 711 l 1
 118 1125 l 1
 118 888 l 1
 533 593 l 1
 118 296 l 1
 118 60 l 1
EndSplineSet
EndChar

StartChar: greaterequal
Encoding: 65541 8805 308
Width: 805
VWidth: 0
Flags: HW
LayerCount: 2
UndoRedoHistory
Layer: 1
Undoes
EndUndoes
Redoes
EndRedoes
EndUndoRedoHistory
Fore
SplineSet
118 0 m 1
 737 0 l 1
 737 139 l 1
 118 139 l 1
 118 0 l 1
118 236 m 1
 711 649 l 1
 711 887 l 1
 118 1301 l 1
 118 1064 l 1
 533 769 l 1
 118 472 l 1
 118 236 l 1
EndSplineSet
EndChar

StartChar: guillemotleft
Encoding: 409 171 309
Width: 947
VWidth: 0
GlyphClass: 2
Flags: HW
LayerCount: 2
UndoRedoHistory
Layer: 1
Undoes
EndUndoes
Redoes
EndRedoes
EndUndoRedoHistory
Fore
SplineSet
808 60 m 1
 808 355 l 1
 651 593 l 1
 808 829 l 1
 808 1125 l 1
 473 651 l 1
 473 533 l 1
 808 60 l 1
393 60 m 1
 393 355 l 1
 237 593 l 1
 393 829 l 1
 393 1125 l 1
 60 651 l 1
 60 533 l 1
 393 60 l 1
EndSplineSet
EndChar

StartChar: guillemotright
Encoding: 410 187 310
Width: 1006
VWidth: 0
GlyphClass: 2
Flags: HW
LayerCount: 2
UndoRedoHistory
Layer: 1
Undoes
EndUndoes
Redoes
EndRedoes
EndUndoRedoHistory
Fore
SplineSet
534 60 m 1
 887 533 l 1
 887 651 l 1
 534 1125 l 1
 534 829 l 1
 710 593 l 1
 534 355 l 1
 534 60 l 1
119 60 m 1
 474 533 l 1
 474 651 l 1
 119 1125 l 1
 119 829 l 1
 296 593 l 1
 119 355 l 1
 119 60 l 1
EndSplineSet
EndChar

StartChar: guilsinglleft
Encoding: 411 8249 311
Width: 538
VWidth: 0
GlyphClass: 2
Flags: HW
LayerCount: 2
UndoRedoHistory
Layer: 1
Undoes
EndUndoes
Redoes
EndRedoes
EndUndoRedoHistory
Fore
SplineSet
473 60 m 1
 473 355 l 1
 237 593 l 1
 473 829 l 1
 473 1125 l 1
 60 651 l 1
 60 533 l 1
 473 60 l 1
EndSplineSet
EndChar

StartChar: guilsinglright
Encoding: 412 8250 312
Width: 587
VWidth: 0
GlyphClass: 2
Flags: HW
LayerCount: 2
UndoRedoHistory
Layer: 1
Undoes
EndUndoes
Redoes
EndRedoes
EndUndoRedoHistory
Fore
SplineSet
114 179 m 1
 527 652 l 1
 527 770 l 1
 114 1244 l 1
 114 948 l 1
 350 712 l 1
 114 474 l 1
 114 179 l 1
EndSplineSet
EndChar

StartChar: h
Encoding: 104 104 313
Width: 929
VWidth: 0
GlyphClass: 2
Flags: HW
LayerCount: 2
UndoRedoHistory
Layer: 1
Undoes
EndUndoes
Redoes
EndRedoes
EndUndoRedoHistory
Fore
SplineSet
590 0 m 1
 826 0 l 1
 826 960 l 2
 826 1064 797 1200 651 1200 c 0
 530.168198836 1200 432.300103512 1136.11914558 352 1061.50521988 c 1
 352 1658 l 1
 116 1658 l 1
 116 0 l 1
 352 0 l 1
 352 943.546185704 l 1
 399.902315007 981.588338609 454.014141557 1014 501 1014 c 0
 578 1014 590 963 590 888 c 2
 590 0 l 1
EndSplineSet
EndChar

StartChar: hbar
Encoding: 413 295 314
Width: 929
VWidth: 0
GlyphClass: 2
Flags: HW
LayerCount: 2
UndoRedoHistory
Layer: 1
Undoes
EndUndoes
Redoes
EndRedoes
EndUndoRedoHistory
Fore
SplineSet
116 0 m 1
 352 0 l 1
 352 943.546185704 l 1
 399.902315007 981.588338609 454.014141557 1014 501 1014 c 0
 578 1014 590 963 590 888 c 2
 590 0 l 1
 826 0 l 1
 826 960 l 2
 826 1064 797 1200 651 1200 c 0
 530.168198836 1200 432.300103512 1136.11914558 352 1061.50521988 c 1
 352 1411 l 1
 603 1411 l 1
 603 1542 l 1
 352 1542 l 1
 352 1658 l 1
 116 1658 l 1
 116 1542 l 1
 -12 1542 l 1
 -12 1411 l 1
 116 1411 l 1
 116 0 l 1
EndSplineSet
EndChar

StartChar: hungarumlaut
Encoding: 415 733 316
Width: 591
VWidth: 0
GlyphClass: 2
Flags: HW
LayerCount: 2
UndoRedoHistory
Layer: 1
Undoes
EndUndoes
Redoes
EndRedoes
EndUndoRedoHistory
Fore
SplineSet
473 1302 m 1
 592 1302 l 1
 829 1658 l 1
 592 1658 l 1
 473 1302 l 1
202 1302 m 1
 320 1302 l 1
 473 1658 l 1
 283 1658 l 1
 202 1302 l 1
EndSplineSet
EndChar

StartChar: hyphen
Encoding: 45 45 317
Width: 512
VWidth: 0
GlyphClass: 2
Flags: HW
LayerCount: 2
UndoRedoHistory
Layer: 1
Undoes
EndUndoes
Redoes
EndRedoes
EndUndoRedoHistory
Fore
SplineSet
24 516 m 1
 488 516 l 1
 488 694 l 1
 24 694 l 1
 24 516 l 1
EndSplineSet
EndChar

StartChar: i
Encoding: 105 105 318
Width: 480
VWidth: 0
GlyphClass: 2
Flags: HW
LayerCount: 2
UndoRedoHistory
Layer: 1
Undoes
EndUndoes
Redoes
EndRedoes
EndUndoRedoHistory
Fore
SplineSet
124 1362 m 1
 361 1362 l 1
 361 1598 l 1
 124 1598 l 1
 124 1362 l 1
124 0 m 1
 360 0 l 1
 360 1184 l 1
 124 1184 l 1
 124 0 l 1
EndSplineSet
EndChar

StartChar: infinity
Encoding: 65542 8734 326
Width: 1305
VWidth: 0
Flags: HW
LayerCount: 2
UndoRedoHistory
Layer: 1
Undoes
EndUndoes
Redoes
EndRedoes
EndUndoRedoHistory
Fore
SplineSet
972 434 m 0
 936 435 898 450 817 541 c 1
 898 633 936 647 972 648 c 0
 1032 649 1087 610 1087 541 c 0
 1087 472 1032 433 972 434 c 0
346 415 m 0
 275 410 219 468 219 541 c 0
 219 614 275 672 346 667 c 0
 393 664 447 639 531 541 c 1
 447 443 393 418 346 415 c 0
351 213 m 0
 500 213 592 289 671 378 c 1
 742 295 823 226 963 230 c 0
 1153 236 1261 353 1261 541 c 0
 1261 729 1153 846 963 852 c 0
 823 856 742 787 671 704 c 1
 592 793 500 869 351 869 c 0
 144 869 44 729 44 541 c 0
 44 353 144 213 351 213 c 0
EndSplineSet
EndChar

StartChar: integral
Encoding: 65543 8747 327
Width: 681
VWidth: 0
GlyphClass: 2
Flags: HW
LayerCount: 2
UndoRedoHistory
Layer: 1
Undoes
EndUndoes
Redoes
EndRedoes
EndUndoRedoHistory
Fore
SplineSet
174 -389 m 0
 402 -389 442 -260 442 -34 c 2
 442 1355 l 2
 442 1440 456 1503 541 1503 c 0
 564 1503 596 1495 620 1493 c 1
 620 1669 l 1
 560 1676 532 1680 474 1680 c 0
 247 1680 206 1549 206 1325 c 2
 206 -63 l 2
 206 -148 193 -212 108 -212 c 0
 86 -212 50 -206 28 -202 c 1
 28 -378 l 1
 88 -385 116 -389 174 -389 c 0
EndSplineSet
EndChar

StartChar: j
Encoding: 106 106 330
Width: 480
VWidth: 0
GlyphClass: 2
Flags: HW
LayerCount: 2
UndoRedoHistory
Layer: 1
Undoes
EndUndoes
Redoes
EndRedoes
EndUndoRedoHistory
Fore
SplineSet
138 1362 m 1
 376 1362 l 1
 376 1598 l 1
 138 1598 l 1
 138 1362 l 1
-39 -281 m 1
 -8 -293 40 -296 80 -296 c 0
 262 -296 374 -190 374 -6 c 2
 374 1184 l 1
 138 1184 l 1
 138 19 l 2
 138 -64 106 -118 20 -118 c 0
 3 -118 -25 -115 -39 -112 c 1
 -39 -281 l 1
EndSplineSet
EndChar

StartChar: k
Encoding: 107 107 332
Width: 892
VWidth: 0
GlyphClass: 2
Flags: HW
LayerCount: 2
UndoRedoHistory
Layer: 1
Undoes
EndUndoes
Redoes
EndRedoes
EndUndoRedoHistory
Fore
SplineSet
656 0 m 1
 891 0 l 1
 625 718 l 1
 898 1184 l 1
 652 1183 l 1
 350 687.918032787 l 1
 350 1661 l 1
 114 1661 l 1
 114 3 l 1
 350 3 l 1
 350 455.97235023 l 1
 442 598 l 1
 656 0 l 1
EndSplineSet
EndChar

StartChar: kgreenlandic
Encoding: 427 312 334
Width: 887
VWidth: 0
GlyphClass: 2
Flags: HW
LayerCount: 2
UndoRedoHistory
Layer: 1
Undoes
EndUndoes
Redoes
EndRedoes
EndUndoRedoHistory
Fore
SplineSet
651 0 m 1
 888 0 l 1
 623 734 l 1
 888 1184 l 1
 651 1184 l 1
 355 679.487684729 l 1
 355 1184 l 1
 119 1184 l 1
 119 0 l 1
 355 0 l 1
 355 404.767123288 l 1
 464 572 l 1
 651 0 l 1
EndSplineSet
EndChar

StartChar: l
Encoding: 108 108 335
Width: 483
VWidth: 0
GlyphClass: 2
Flags: HW
LayerCount: 2
UndoRedoHistory
Layer: 1
Undoes
EndUndoes
Redoes
EndRedoes
EndUndoRedoHistory
Fore
SplineSet
130 0 m 1
 367 0 l 1
 367 1658 l 1
 130 1658 l 1
 130 0 l 1
EndSplineSet
EndChar

StartChar: less
Encoding: 60 60 340
Width: 769
VWidth: 0
GlyphClass: 2
Flags: HW
LayerCount: 2
UndoRedoHistory
Layer: 1
Undoes
EndUndoes
Redoes
EndRedoes
EndUndoRedoHistory
Fore
SplineSet
651 60 m 1
 651 296 l 1
 237 593 l 1
 651 888 l 1
 651 1125 l 1
 60 711 l 1
 60 473 l 1
 651 60 l 1
EndSplineSet
EndChar

StartChar: lessequal
Encoding: 65544 8804 341
Width: 805
VWidth: 0
Flags: HW
LayerCount: 2
UndoRedoHistory
Layer: 1
Undoes
EndUndoes
Redoes
EndRedoes
EndUndoRedoHistory
Fore
SplineSet
68 0 m 1
 687 0 l 1
 687 139 l 1
 68 139 l 1
 68 0 l 1
676 221 m 1
 676 457 l 1
 262 754 l 1
 676 1049 l 1
 676 1286 l 1
 85 872 l 1
 85 634 l 1
 676 221 l 1
EndSplineSet
EndChar

StartChar: logicalnot
Encoding: 438 172 342
Width: 805
VWidth: 0
GlyphClass: 2
Flags: HW
LayerCount: 2
UndoRedoHistory
Layer: 1
Undoes
EndUndoes
Redoes
EndRedoes
EndUndoRedoHistory
Fore
SplineSet
632 515 m 1
 751 515 l 1
 751 922 l 1
 82 922 l 1
 82 744 l 1
 632 744 l 1
 632 515 l 1
EndSplineSet
EndChar

StartChar: lozenge
Encoding: 65545 9674 343
Width: 972
VWidth: 0
Flags: HW
LayerCount: 2
UndoRedoHistory
Layer: 1
Undoes
EndUndoes
Redoes
EndRedoes
EndUndoRedoHistory
Fore
SplineSet
490 158 m 1
 238 592 l 1
 482 1012 l 1
 734 592 l 1
 490 158 l 1
440 0 m 1
 546 0 l 1
 900 592 l 1
 532 1185 l 1
 426 1185 l 1
 72 592 l 1
 440 0 l 1
EndSplineSet
EndChar

StartChar: lslash
Encoding: 439 322 344
Width: 553
VWidth: 0
GlyphClass: 2
Flags: HW
LayerCount: 2
UndoRedoHistory
Layer: 1
Undoes
EndUndoes
Redoes
EndRedoes
EndUndoRedoHistory
Fore
SplineSet
170 0 m 1
 406 0 l 1
 406 946.383697813 l 1
 532 1005 l 1
 532 1186 l 1
 406 1127.88469185 l 1
 406 1658 l 1
 170 1658 l 1
 170 1019.03379722 l 1
 29 954 l 1
 29 771 l 1
 170 836.5944334 l 1
 170 0 l 1
EndSplineSet
EndChar

StartChar: m
Encoding: 109 109 345
Width: 1394
VWidth: 0
GlyphClass: 2
Flags: HW
LayerCount: 2
UndoRedoHistory
Layer: 1
Undoes
EndUndoes
Redoes
EndRedoes
EndUndoRedoHistory
Fore
SplineSet
108 0 m 1
 344 0 l 1
 344 951.33162544 l 1
 389.335755124 985.906799262 439.256137218 1014 483 1014 c 0
 560 1014 572 963 572 888 c 2
 572 0 l 1
 808 0 l 1
 808 949.029198355 l 1
 854.125464006 984.650903581 905.289051113 1014 950 1014 c 0
 1027 1014 1039 963 1039 888 c 2
 1039 0 l 1
 1275 0 l 1
 1275 960 l 2
 1275 1064 1246 1200 1100 1200 c 0
 977.476812243 1200 878.564715299 1134.31823829 797.638223287 1058.36575076 c 1
 779.807773694 1133.74816191 734.901920143 1200 633 1200 c 0
 517.139112755 1200 422.391382466 1141.2670361 344 1070.65567828 c 1
 344 1184 l 1
 108 1184 l 1
 108 0 l 1
EndSplineSet
EndChar

StartChar: macron
Encoding: 440 175 346
Width: 591
VWidth: 0
GlyphClass: 2
Flags: HW
LayerCount: 2
UndoRedoHistory
Layer: 1
Undoes
EndUndoes
Redoes
EndRedoes
EndUndoRedoHistory
Fore
SplineSet
114 1517 m 1
 515 1517 l 1
 515 1658 l 1
 114 1658 l 1
 114 1517 l 1
EndSplineSet
EndChar

StartChar: minus
Encoding: 441 8722 347
Width: 811
VWidth: 0
GlyphClass: 2
Flags: HW
LayerCount: 2
UndoRedoHistory
Layer: 1
Undoes
EndUndoes
Redoes
EndRedoes
EndUndoRedoHistory
Fore
SplineSet
96 754 m 1
 715 754 l 1
 715 893 l 1
 96 893 l 1
 96 754 l 1
EndSplineSet
EndChar

StartChar: mu
Encoding: 442 181 348
Width: 915
VWidth: 0
GlyphClass: 2
Flags: HW
LayerCount: 2
UndoRedoHistory
Layer: 1
Undoes
EndUndoes
Redoes
EndRedoes
EndUndoRedoHistory
Fore
SplineSet
339 1184 m 1
 103 1184 l 1
 103 864 103 544 103 224 c 0
 103 216.580954371 103.147579965 208.999061883 103.474686653 201.315311802 c 2
 105 -360 l 1
 343 -360 l 1
 341.669137037 -9.98304065326 l 1
 429.208021963 6.70305535474 503.47452164 56.1234877182 567 113.344321718 c 1
 567 0 l 1
 803 0 l 1
 803 1184 l 1
 567 1184 l 1
 567 232.66837456 l 1
 521.664244876 198.093200738 471.743862782 170 428 170 c 0
 351 170 339 221 339 296 c 2
 339 1184 l 1
EndSplineSet
EndChar

StartChar: multiply
Encoding: 443 215 349
Width: 799
VWidth: 0
GlyphClass: 2
Flags: HW
LayerCount: 2
UndoRedoHistory
Layer: 1
Undoes
EndUndoes
Redoes
EndRedoes
EndUndoRedoHistory
Fore
SplineSet
577 520 m 1
 695 638 l 1
 517 816 l 1
 695 993 l 1
 577 1112 l 1
 399 935 l 1
 222 1112 l 1
 104 993 l 1
 281 816 l 1
 104 638 l 1
 222 520 l 1
 399 697 l 1
 577 520 l 1
EndSplineSet
EndChar

StartChar: n
Encoding: 110 110 350
Width: 893
VWidth: 0
GlyphClass: 2
Flags: HW
LayerCount: 2
UndoRedoHistory
Layer: 1
Undoes
EndUndoes
Redoes
EndRedoes
EndUndoRedoHistory
Fore
SplineSet
88 0 m 1
 324 0 l 1
 324 949.799881678 l 1
 369.864032288 985.07323301 420.611908969 1014 465 1014 c 0
 542 1014 554 963 554 888 c 2
 554 0 l 1
 790 0 l 1
 790 960 l 2
 790 1064 761 1200 615 1200 c 0
 498.152039667 1200 402.77851443 1140.26202601 324 1068.84840726 c 1
 324 1184 l 1
 88 1184 l 1
 88 0 l 1
EndSplineSet
EndChar

StartChar: nine
Encoding: 57 57 354
Width: 1001
VWidth: 0
GlyphClass: 2
Flags: HW
LayerCount: 2
UndoRedoHistory
Layer: 1
Undoes
EndUndoes
Redoes
EndRedoes
EndUndoRedoHistory
Fore
SplineSet
500 829 m 0
 322 829 322 1006 322 1184 c 0
 322 1328 359 1480 500 1480 c 0
 640 1480 677 1329 677 1184 c 2
 677 947 l 1
 645 887 592 829 500 829 c 0
85 414 m 1
 85 141.0259386 231.968551976 -17 500 -17 c 0
 821 -17 914 267 914 592 c 2
 914 1125 l 2
 914 1423 791 1674 500 1674 c 0
 200 1674 85 1426 85 1125 c 0
 85 853 165 651 440 651 c 0
 557 651 635 697 677 769 c 1
 677 533 l 2
 677 296 618 178 500 178 c 0
 358 178 322 269 322 414 c 1
 85 414 l 1
EndSplineSet
EndChar

StartChar: notequal
Encoding: 65546 8800 355
Width: 857
VWidth: 0
Flags: HW
LayerCount: 2
UndoRedoHistory
Layer: 1
Undoes
EndUndoes
Redoes
EndRedoes
EndUndoRedoHistory
Fore
SplineSet
112 0 m 1
 316 0 l 1
 467.344390832 569 l 1
 745 569 l 1
 745 747 l 1
 514.689384801 747 l 1
 564.960193004 936 l 1
 745 936 l 1
 745 1114 l 1
 612.305186972 1114 l 1
 757 1658 l 1
 553 1658 l 1
 408.305186972 1114 l 1
 112 1114 l 1
 112 936 l 1
 360.960193004 936 l 1
 310.689384801 747 l 1
 112 747 l 1
 112 569 l 1
 263.344390832 569 l 1
 112 0 l 1
EndSplineSet
EndChar

StartChar: numbersign
Encoding: 35 35 357
Width: 1005
VWidth: 0
GlyphClass: 2
Flags: HW
LayerCount: 2
UndoRedoHistory
Layer: 1
Undoes
EndUndoes
Redoes
EndRedoes
EndUndoRedoHistory
Fore
SplineSet
404 769 m 1
 430 947 l 1
 608 947 l 1
 583 769 l 1
 404 769 l 1
60 0 m 1
 296 0 l 1
 380 592 l 1
 557 592 l 1
 473 0 l 1
 711 0 l 1
 794 592 l 1
 947 592 l 1
 947 769 l 1
 819 769 l 1
 845 947 l 1
 947 947 l 1
 947 1125 l 1
 869 1125 l 1
 945 1658 l 1
 709 1658 l 1
 633 1125 l 1
 455 1125 l 1
 531 1658 l 1
 294 1658 l 1
 218 1125 l 1
 60 1125 l 1
 60 947 l 1
 193 947 l 1
 168 769 l 1
 60 769 l 1
 60 592 l 1
 142 592 l 1
 60 0 l 1
EndSplineSet
EndChar

StartChar: o
Encoding: 111 111 358
Width: 881
VWidth: 0
GlyphClass: 2
Flags: HW
AnchorPoint: "ogonek" 502 0 basechar 0
LayerCount: 2
UndoRedoHistory
Layer: 1
Undoes
EndUndoes
Redoes
EndRedoes
EndUndoRedoHistory
Fore
SplineSet
440 -17 m 0
 707 -17 793 156 793 418 c 2
 793 765 l 2
 793 1027 707 1200 440 1200 c 0
 173 1200 88 1027 88 765 c 2
 88 418 l 2
 88 156 173 -17 440 -17 c 0
440 158 m 0
 322 158 324 284 324 402 c 2
 324 780 l 2
 324 898 322 1026 440 1026 c 0
 558 1026 556 898 556 780 c 2
 556 402 l 2
 556 284 558 158 440 158 c 0
EndSplineSet
EndChar

StartChar: oe
Encoding: 452 339 363
Width: 1420
VWidth: 0
GlyphClass: 2
Flags: HW
LayerCount: 2
UndoRedoHistory
Layer: 1
Undoes
EndUndoes
Redoes
EndRedoes
EndUndoRedoHistory
Fore
SplineSet
829 711 m 1
 829 741 l 2
 829 860 836 1007 948 1007 c 0
 1060 1007 1066 861 1066 741 c 2
 1066 711 l 1
 829 711 l 1
473 178 m 0
 355 178 355 296 355 414 c 2
 355 769 l 2
 355 887 355 1007 473 1007 c 0
 591 1007 592 887 592 769 c 2
 592 414 l 2
 592 296 591 178 473 178 c 0
473 -17 m 0
 595 -17 671 39 711 118 c 1
 751 39 825 -12 947 -17 c 0
 1189 -26 1302 88 1302 336 c 2
 1302 414 l 1
 1066 414 l 1
 1066 335 l 2
 1066 220 1039 172 947 178 c 0
 814 187 829 396 829 533 c 2
 829 592 l 1
 1302 592 l 1
 1302 690 l 2
 1302 1010 1248 1200 957 1200 c 0
 836 1200 750 1145 711 1066 c 1
 669 1144 595 1200 473 1200 c 0
 206 1200 118 1031 118 769 c 2
 118 414 l 2
 118 152 206 -17 473 -17 c 0
EndSplineSet
EndChar

StartChar: ogonek
Encoding: 453 731 364
Width: 496
VWidth: 0
GlyphClass: 2
Flags: HW
AnchorPoint: "ogonek" 244 0 mark 0
LayerCount: 2
UndoRedoHistory
Layer: 1
Undoes
EndUndoes
Redoes
EndRedoes
EndUndoRedoHistory
Fore
SplineSet
330 -475 m 1
 372 -356 l 1
 292.242 -356 135 -387 135 -293 c 0
 135 -188 256 -65 313 8 c 1
 194 8 l 1
 86 -23 -42 -158 -42 -297 c 0
 -42 -469 113 -475 330 -475 c 1
EndSplineSet
EndChar

StartChar: one
Encoding: 49 49 368
Width: 977
VWidth: 0
GlyphClass: 2
Flags: HW
LayerCount: 2
UndoRedoHistory
Layer: 1
Undoes
EndUndoes
Redoes
EndRedoes
EndUndoRedoHistory
Fore
SplineSet
695 0 m 1
 695 1658 l 1
 518 1658 l 1
 432 1547 260 1505 162 1480 c 1
 162 1302 l 1
 459 1352 l 1
 459 0 l 1
 695 0 l 1
EndSplineSet
EndChar

StartChar: onehalf
Encoding: 457 189 369
Width: 1666
VWidth: 0
GlyphClass: 2
Flags: HW
LayerCount: 2
UndoRedoHistory
Layer: 1
Undoes
EndUndoes
Redoes
EndRedoes
EndUndoRedoHistory
Fore
SplineSet
416 0 m 1
 612 0 l 1
 1145 1658 l 1
 948 1658 l 1
 416 0 l 1
239 830 m 1
 416 830 l 1
 416 1658 l 1
 357 1658 l 1
 295 1581 215 1528 120 1481 c 1
 120 1362 l 1
 239 1362 l 1
 239 830 l 1
1045 3 m 1
 1519 3 l 1
 1519 121 l 1
 1223 121 l 1
 1318 248 1519 406 1519 595 c 0
 1519 744 1434 832 1282 832 c 0
 1130 832 1045 744 1045 595 c 1
 1223 595 l 1
 1223 655 1222 713 1282 713 c 0
 1342 713 1342 655 1342 595 c 0
 1342 494 1273 424 1223 358 c 2
 1045 121 l 1
 1045 3 l 1
EndSplineSet
EndChar

StartChar: onequarter
Encoding: 458 188 370
Width: 1666
VWidth: 0
GlyphClass: 2
Flags: HW
LayerCount: 2
UndoRedoHistory
Layer: 1
Undoes
EndUndoes
Redoes
EndRedoes
EndUndoRedoHistory
Fore
SplineSet
1102 357 m 1
 1257 644 l 1
 1257 357 l 1
 1102 357 l 1
407 0 m 1
 603 0 l 1
 1136 1658 l 1
 939 1658 l 1
 407 0 l 1
238 830 m 1
 415 830 l 1
 415 1658 l 1
 357 1658 l 1
 295 1581 215 1528 120 1481 c 1
 120 1362 l 1
 238 1362 l 1
 238 830 l 1
1257 2 m 1
 1435 2 l 1
 1435 238 l 1
 1553 238 l 1
 1553 357 l 1
 1435 357 l 1
 1435 889 l 1
 1276 889 l 1
 962 357 l 1
 962 238 l 1
 1257 238 l 1
 1257 2 l 1
EndSplineSet
EndChar

StartChar: onesuperior
Encoding: -1 185 371
Width: 878
VWidth: 0
Flags: HW
LayerCount: 2
UndoRedoHistory
Layer: 1
Undoes
EndUndoes
Redoes
EndRedoes
EndUndoRedoHistory
Fore
SplineSet
584 612 m 1
 582.526622487 1809.83329508 l 1
 454.545022228 1809.83329508 l 1
 392.361871819 1729.57364746 267.995571002 1699.20513215 197.135701932 1681.12863494 c 1
 197.135701932 1552.42397479 l 1
 411.884488808 1588.57696921 l 1
 413 612 l 1
 584 612 l 1
EndSplineSet
EndChar

StartChar: ordfeminine
Encoding: 459 170 372
Width: 924
VWidth: 0
GlyphClass: 2
Flags: HW
LayerCount: 2
UndoRedoHistory
Layer: 1
Undoes
EndUndoes
Redoes
EndRedoes
EndUndoRedoHistory
Fore
SplineSet
446 830 m 0
 397 830 370 869 370 930 c 0
 370 1037 478 1094 565 1144 c 1
 565 920 l 1
 545 875 499 830 446 830 c 0
367 648 m 0
 464 648 542 711 582 792 c 1
 582 660 l 1
 773 660 l 1
 773 1278 l 2
 773 1533 720 1684 487 1684 c 0
 300 1684 197 1539 193 1333 c 1
 387 1333 l 1
 387 1426 405 1512 484 1512 c 0
 553 1512 565 1431 565 1347 c 2
 565 1235 l 1
 389 1176 159 1121 159 878 c 0
 159 746 247 648 367 648 c 0
EndSplineSet
EndChar

StartChar: ordmasculine
Encoding: 460 186 373
Width: 924
VWidth: 0
GlyphClass: 2
Flags: HW
LayerCount: 2
UndoRedoHistory
Layer: 1
Undoes
EndUndoes
Redoes
EndRedoes
EndUndoRedoHistory
Fore
SplineSet
462 645 m 0
 693 645 786 807 786 1038 c 2
 786 1292 l 2
 786 1523 693 1684 462 1684 c 0
 219 1684 138 1534 138 1292 c 2
 138 1038 l 2
 138 796 219 645 462 645 c 0
458 821 m 0
 338 821 335 938 335 1065 c 2
 335 1264 l 2
 335 1391 338 1508 458 1508 c 0
 581 1508 577 1393 577 1264 c 2
 577 1065 l 2
 577 937 579 821 458 821 c 0
EndSplineSet
EndChar

StartChar: oslash
Encoding: 461 248 374
Width: 881
VWidth: 0
GlyphClass: 2
Flags: HW
LayerCount: 2
UndoRedoHistory
Layer: 1
Undoes
EndUndoes
Redoes
EndRedoes
EndUndoRedoHistory
Fore
SplineSet
440 -17 m 0
 707 -17 793 156 793 418 c 2
 793 765 l 2
 793 922.443590523 761.943977028 1047.74780844 679.2163924 1122.68417743 c 1
 762 1353 l 1
 681 1379 l 1
 607.310070067 1169.09127623 l 1
 561.793189721 1189.26424152 506.512699728 1200 440 1200 c 0
 173 1200 88 1027 88 765 c 2
 88 418 l 2
 88 252.514405748 121.910698123 122.535307177 214.174752964 49.2295426592 c 1
 133 -182 l 1
 202 -205 l 1
 279.635758309 10.9937704377 l 1
 323.741509001 -7.2968138637 376.766766417 -17 440 -17 c 0
556 779.878571429 m 1
 556 402 l 2
 556 284 558 158 440 158 c 0
 394.435699198 158 366.763718197 176.786935791 349.960001414 206.645861077 c 1
 556 779.878571429 l 1
535.715128168 965.150209982 m 1
 324.095195106 362.342334966 l 1
 323.975042221 375.536856768 324 388.818343942 324 402 c 2
 324 780 l 2
 324 898 322 1026 440 1026 c 0
 491.120486867 1026 519.718961288 1001.97652006 535.715128168 965.150209982 c 1
EndSplineSet
EndChar

StartChar: p
Encoding: 112 112 376
Width: 929
VWidth: 0
GlyphClass: 2
Flags: HW
LayerCount: 2
UndoRedoHistory
Layer: 1
Undoes
EndUndoes
Redoes
EndRedoes
EndUndoRedoHistory
Fore
SplineSet
545 -17 m 0
 781 -17 841 226 841 466 c 2
 841 761 l 2
 841 879 822 1200 571 1200 c 0
 470.65467638 1200 398.731695709 1149.89218143 346 1089.78996239 c 1
 346 1184 l 1
 110 1184 l 1
 110 -390 l 1
 346 -390 l 1
 346 86.9193970088 l 1
 397.270233205 30.9850095661 463.950195384 -17 545 -17 c 0
346 960.566065594 m 1
 385.207142719 990.240704648 432.943948745 1014 486 1014 c 0
 593 1014 605 889 605 761 c 2
 605 465 l 2
 605 310 603 170 496 170 c 0
 433.829003565 170 385.043916441 188.534335968 346 213.640788819 c 1
 346 960.566065594 l 1
EndSplineSet
EndChar

StartChar: paragraph
Encoding: 463 182 377
Width: 1011
VWidth: 0
GlyphClass: 2
Flags: HW
LayerCount: 2
UndoRedoHistory
Layer: 1
Undoes
EndUndoes
Redoes
EndRedoes
EndUndoRedoHistory
Fore
SplineSet
406 -196 m 1
 574 -196 l 1
 574 1549 l 1
 717 1549 l 1
 717 -196 l 1
 885 -196 l 1
 885 1658 l 1
 445 1658 l 2
 216 1658 68 1566 68 1351 c 0
 68 1154 209 1048 406 1048 c 1
 406 -196 l 1
EndSplineSet
EndChar

StartChar: parenleft
Encoding: 40 40 378
Width: 620
VWidth: 0
GlyphClass: 2
Flags: HW
LayerCount: 2
UndoRedoHistory
Layer: 1
Undoes
EndUndoes
Redoes
EndRedoes
EndUndoRedoHistory
Fore
SplineSet
560 -255 m 1
 369 -255 373 215 373 629 c 0
 373 1038 370 1516 560 1516 c 1
 560 1674 l 1
 154 1674 147 1124 147 629 c 0
 147 135 154 -412 560 -412 c 1
 560 -255 l 1
EndSplineSet
EndChar

StartChar: parenright
Encoding: 41 41 379
Width: 533
VWidth: 0
GlyphClass: 2
Flags: HW
LayerCount: 2
UndoRedoHistory
Layer: 1
Undoes
EndUndoes
Redoes
EndRedoes
EndUndoRedoHistory
Fore
SplineSet
60 -254 m 1
 60 -412 l 1
 466 -412 473 138 473 633 c 0
 473 1127 466 1674 60 1674 c 1
 60 1517 l 1
 251 1517 247 1047 247 633 c 0
 247 224 250 -254 60 -254 c 1
EndSplineSet
EndChar

StartChar: partialdiff
Encoding: 65547 8706 380
Width: 994
VWidth: 0
Flags: HW
LayerCount: 2
UndoRedoHistory
Layer: 1
Undoes
EndUndoes
Redoes
EndRedoes
EndUndoRedoHistory
Fore
SplineSet
463 150 m 0
 339 150 284 231 284 340 c 0
 284 350 284 360 285 371 c 2
 319 754 l 2
 330 873 392 947 501 947 c 0
 561 947 635 925 722 874 c 1
 672 439 l 2
 642 180 573 150 463 150 c 0
451 -26 m 0
 652 -26 843 27 888 531 c 1
 888 531 931 1023 931 1055 c 0
 931 1595 572 1678 350 1678 c 1
 307 1528 l 1
 551 1505 756 1402 756 1122 c 0
 756 1089 753 1053 747 1014 c 1
 707 1049 611 1125 468 1125 c 0
 266 1125 129 991 111 790 c 2
 76 403 l 2
 74 385 74 367 74 350 c 0
 74 92 259 -26 451 -26 c 0
EndSplineSet
EndChar

StartChar: percent
Encoding: 37 37 381
Width: 1907
VWidth: 0
GlyphClass: 2
Flags: HW
LayerCount: 2
UndoRedoHistory
Layer: 1
Undoes
EndUndoes
Redoes
EndRedoes
EndUndoRedoHistory
Fore
SplineSet
634 0 m 1
 838 0 l 1
 1276 1658 l 1
 1073 1658 l 1
 634 0 l 1
1496 -10 m 0
 1736 -10 1835 134 1835 384 c 2
 1835 506 l 2
 1835 757 1740 891 1496 891 c 0
 1250 891 1157 748 1157 494 c 2
 1157 391 l 2
 1157 143 1257 -10 1496 -10 c 0
1496 168 m 0
 1391 168 1373 273 1373 382 c 2
 1373 504 l 2
 1373 615 1385 711 1496 711 c 0
 1606 711 1620 619 1620 506 c 2
 1620 384 l 2
 1620 275 1604 168 1496 168 c 0
411 767 m 0
 651 767 750 911 750 1161 c 2
 750 1283 l 2
 750 1534 655 1668 411 1668 c 0
 165 1668 72 1525 72 1271 c 2
 72 1168 l 2
 72 920 172 767 411 767 c 0
411 945 m 0
 306 945 288 1050 288 1159 c 2
 288 1281 l 2
 288 1392 300 1488 411 1488 c 0
 521 1488 535 1396 535 1283 c 2
 535 1161 l 2
 535 1052 519 945 411 945 c 0
EndSplineSet
EndChar

StartChar: period
Encoding: 46 46 382
Width: 390
VWidth: 0
GlyphClass: 2
Flags: HW
LayerCount: 2
UndoRedoHistory
Layer: 1
Undoes
EndUndoes
Redoes
EndRedoes
EndUndoRedoHistory
Fore
SplineSet
94 0 m 1
 330 0 l 1
 330 248 l 1
 94 248 l 1
 94 0 l 1
EndSplineSet
EndChar

StartChar: periodcentered
Encoding: 464 183 383
Width: 354
VWidth: 0
GlyphClass: 2
Flags: HW
LayerCount: 2
UndoRedoHistory
Layer: 1
Undoes
EndUndoes
Redoes
EndRedoes
EndUndoRedoHistory
Fore
SplineSet
60 653 m 1
 296 653 l 1
 296 889 l 1
 60 889 l 1
 60 653 l 1
EndSplineSet
EndChar

StartChar: perthousand
Encoding: 65548 8240 384
Width: 2694
VWidth: 0
Flags: HW
LayerCount: 2
UndoRedoHistory
Layer: 1
Undoes
EndUndoes
Redoes
EndRedoes
EndUndoRedoHistory
Fore
SplineSet
2283 -10 m 0
 2523 -10 2622 134 2622 384 c 2
 2622 506 l 2
 2622 757 2527 891 2283 891 c 0
 2037 891 1944 748 1944 494 c 2
 1944 391 l 2
 1944 143 2044 -10 2283 -10 c 0
2283 168 m 0
 2178 168 2160 273 2160 382 c 2
 2160 504 l 2
 2160 615 2172 711 2283 711 c 0
 2393 711 2407 619 2407 506 c 2
 2407 384 l 2
 2407 275 2391 168 2283 168 c 0
634 0 m 1
 838 0 l 1
 1276 1658 l 1
 1073 1658 l 1
 634 0 l 1
1496 -10 m 0
 1736 -10 1835 134 1835 384 c 2
 1835 506 l 2
 1835 757 1740 891 1496 891 c 0
 1250 891 1157 748 1157 494 c 2
 1157 391 l 2
 1157 143 1257 -10 1496 -10 c 0
1496 168 m 0
 1391 168 1373 273 1373 382 c 2
 1373 504 l 2
 1373 615 1385 711 1496 711 c 0
 1606 711 1620 619 1620 506 c 2
 1620 384 l 2
 1620 275 1604 168 1496 168 c 0
411 767 m 0
 651 767 750 911 750 1161 c 2
 750 1283 l 2
 750 1534 655 1668 411 1668 c 0
 165 1668 72 1525 72 1271 c 2
 72 1168 l 2
 72 920 172 767 411 767 c 0
411 945 m 0
 306 945 288 1050 288 1159 c 2
 288 1281 l 2
 288 1392 300 1488 411 1488 c 0
 521 1488 535 1396 535 1283 c 2
 535 1161 l 2
 535 1052 519 945 411 945 c 0
EndSplineSet
EndChar

StartChar: plus
Encoding: 43 43 385
Width: 866
VWidth: 0
GlyphClass: 2
Flags: HW
LayerCount: 2
UndoRedoHistory
Layer: 1
Undoes
EndUndoes
Redoes
EndRedoes
EndUndoRedoHistory
Fore
SplineSet
339 425 m 1
 516 425 l 1
 516 763 l 1
 814 763 l 1
 814 941 l 1
 516 941 l 1
 516 1278 l 1
 339 1278 l 1
 339 941 l 1
 52 941 l 1
 52 763 l 1
 339 763 l 1
 339 425 l 1
EndSplineSet
EndChar

StartChar: plusminus
Encoding: 465 177 386
Width: 769
VWidth: 0
GlyphClass: 2
Flags: HW
LayerCount: 2
UndoRedoHistory
Layer: 1
Undoes
EndUndoes
Redoes
EndRedoes
EndUndoRedoHistory
Fore
SplineSet
118 0 m 1
 651 0 l 1
 651 178 l 1
 118 178 l 1
 118 0 l 1
296 355 m 1
 473 355 l 1
 473 533 l 1
 651 533 l 1
 651 711 l 1
 473 711 l 1
 473 888 l 1
 296 888 l 1
 296 711 l 1
 118 711 l 1
 118 533 l 1
 296 533 l 1
 296 355 l 1
EndSplineSet
EndChar

StartChar: product
Encoding: 466 8719 387
Width: 1141
VWidth: 0
GlyphClass: 2
Flags: HW
LayerCount: 2
UndoRedoHistory
Layer: 1
Undoes
EndUndoes
Redoes
EndRedoes
EndUndoRedoHistory
Fore
SplineSet
777 -390 m 1
 1015 -390 l 1
 1015 1658 l 1
 126 1658 l 1
 126 -390 l 1
 363 -390 l 1
 363 1480 l 1
 777 1480 l 1
 777 -390 l 1
EndSplineSet
EndChar

StartChar: q
Encoding: 113 113 388
Width: 922
VWidth: 0
GlyphClass: 2
Flags: HW
LayerCount: 2
UndoRedoHistory
Layer: 1
Undoes
EndUndoes
Redoes
EndRedoes
EndUndoRedoHistory
Fore
SplineSet
576 -390 m 1
 812 -390 l 1
 812 1184 l 1
 576 1184 l 1
 576 1110.57712962 l 1
 524.71433811 1161.37223868 459.6801657 1200 382 1200 c 0
 137 1200 90 955 90 695 c 2
 90 462 l 2
 90 112 188 -18 390 -17 c 0
 462.652643834 -16.4696887311 524.056085992 18.370687647 576 73.3528804012 c 1
 576 -390 l 1
576 204.770568791 m 1
 530.826986961 180.564128631 486.326437627 170 451 170 c 0
 338 170 326 294 326 441 c 2
 326 790 l 2
 326 902 350 1014 447 1014 c 0
 493.665009713 1014 537.367266866 995.630934129 576 969.777788257 c 1
 576 204.770568791 l 1
EndSplineSet
EndChar

StartChar: question
Encoding: 63 63 389
Width: 1003
VWidth: 0
GlyphClass: 2
Flags: HW
LayerCount: 2
UndoRedoHistory
Layer: 1
Undoes
EndUndoes
Redoes
EndRedoes
EndUndoRedoHistory
Fore
SplineSet
315.145065441 0 m 1
 552.145065441 0 l 1
 552.145065441 237 l 1
 315.145065441 237 l 1
 315.145065441 0 l 1
325.145065441 416 m 1
 536.145065441 416 l 1
 536.145065441 612 l 1
 732.145065441 818 923.145065441 976 923.145065441 1254 c 0
 923.145065441 1522 773.145065441 1680 502.145065441 1680 c 0
 234.145065441 1680 67.1450654408 1507 118.145065441 1236 c 2
 131.145065441 1167 l 1
 351.145065441 1207 l 1
 341.145065441 1281 l 2
 326.145065441 1391 378.145065441 1473 500.145065441 1473 c 0
 618.145065441 1473 691.145065441 1379 691.145065441 1261 c 0
 691.145065441 1021 505.145065441 839 325.145065441 671 c 1
 325.145065441 416 l 1
EndSplineSet
EndChar

StartChar: questiondown
Encoding: 467 191 390
Width: 1065
VWidth: 0
GlyphClass: 2
Flags: HW
LayerCount: 2
UndoRedoHistory
Layer: 1
Undoes
EndUndoes
Redoes
EndRedoes
EndUndoRedoHistory
Fore
SplineSet
761.854492188 1295 m 1
 524.854492188 1295 l 1
 524.854492188 1058 l 1
 761.854492188 1058 l 1
 761.854492188 1295 l 1
751.854492188 879 m 1
 540.854492188 879 l 1
 540.854492188 683 l 1
 344.854492188 477 153.854492188 319 153.854492188 41 c 0
 153.854492188 -227 303.854492188 -385 574.854492188 -385 c 0
 842.854492188 -385 1009.85449219 -212 958.854492188 59 c 2
 945.854492188 128 l 1
 725.854492188 88 l 1
 735.854492188 14 l 2
 750.854492188 -96 698.854492188 -178 576.854492188 -178 c 0
 458.854492188 -178 385.854492188 -84 385.854492188 34 c 0
 385.854492188 274 571.854492188 456 751.854492188 624 c 1
 751.854492188 879 l 1
EndSplineSet
EndChar

StartChar: quotedbl
Encoding: 34 34 391
Width: 790
VWidth: 0
GlyphClass: 2
Flags: HW
LayerCount: 2
UndoRedoHistory
Layer: 1
Undoes
EndUndoes
Redoes
EndRedoes
EndUndoRedoHistory
Fore
SplineSet
488 1144 m 1
 615 1144 l 1
 698 1658 l 1
 488 1658 l 1
 488 1144 l 1
177 1144 m 1
 304 1144 l 1
 387 1658 l 1
 177 1658 l 1
 177 1144 l 1
EndSplineSet
EndChar

StartChar: quotedblbase
Encoding: 468 8222 392
Width: 974
VWidth: 0
GlyphClass: 2
Flags: HW
LayerCount: 2
UndoRedoHistory
Layer: 1
Undoes
EndUndoes
Redoes
EndRedoes
EndUndoRedoHistory
Fore
SplineSet
894 285 m 1
 638 285 l 1
 638 48 l 1
 753 48 l 1
 753 -115 725 -186 639 -186 c 1
 678 -274 l 1
 838 -274 894 -142 894 80 c 2
 894 285 l 1
453 285 m 1
 197 285 l 1
 197 48 l 1
 312 48 l 1
 312 -115 284 -186 198 -186 c 1
 237 -274 l 1
 397 -274 453 -142 453 80 c 2
 453 285 l 1
EndSplineSet
EndChar

StartChar: quotedblleft
Encoding: 469 8220 393
Width: 970
VWidth: 0
GlyphClass: 2
Flags: HW
LayerCount: 2
UndoRedoHistory
Layer: 1
Undoes
EndUndoes
Redoes
EndRedoes
EndUndoRedoHistory
Fore
SplineSet
103 1170 m 1
 359 1170 l 1
 359 1407 l 1
 244 1407 l 1
 244 1570 272 1641 358 1641 c 1
 319 1729 l 1
 159 1729 103 1597 103 1375 c 2
 103 1170 l 1
544 1170 m 1
 800 1170 l 1
 800 1407 l 1
 685 1407 l 1
 685 1570 713 1641 799 1641 c 1
 760 1729 l 1
 600 1729 544 1597 544 1375 c 2
 544 1170 l 1
EndSplineSet
EndChar

StartChar: quotedblright
Encoding: 470 8221 394
Width: 970
VWidth: 0
GlyphClass: 2
Flags: HW
LayerCount: 2
UndoRedoHistory
Layer: 1
Undoes
EndUndoes
Redoes
EndRedoes
EndUndoRedoHistory
Fore
SplineSet
449 1657 m 1
 193 1657 l 1
 193 1420 l 1
 308 1420 l 1
 308 1257 280 1186 194 1186 c 1
 233 1098 l 1
 393 1098 449 1230 449 1452 c 2
 449 1657 l 1
834 1657 m 1
 578 1657 l 1
 578 1420 l 1
 693 1420 l 1
 693 1257 665 1186 579 1186 c 1
 618 1098 l 1
 778 1098 834 1230 834 1452 c 2
 834 1657 l 1
EndSplineSet
EndChar

StartChar: quoteleft
Encoding: 471 8216 395
Width: 828
VWidth: 0
GlyphClass: 2
Flags: HW
LayerCount: 2
UndoRedoHistory
Layer: 1
Undoes
EndUndoes
Redoes
EndRedoes
EndUndoRedoHistory
Fore
SplineSet
103 1170 m 1
 359 1170 l 1
 359 1407 l 1
 244 1407 l 1
 244 1570 272 1641 358 1641 c 1
 319 1729 l 1
 159 1729 103 1597 103 1375 c 2
 103 1170 l 1
EndSplineSet
EndChar

StartChar: quoteright
Encoding: 472 8217 396
Width: 568
VWidth: 0
GlyphClass: 2
Flags: HW
LayerCount: 2
UndoRedoHistory
Layer: 1
Undoes
EndUndoes
Redoes
EndRedoes
EndUndoRedoHistory
Fore
SplineSet
453 1658 m 1
 197 1658 l 1
 197 1421 l 1
 312 1421 l 1
 312 1258 284 1187 198 1187 c 1
 237 1099 l 1
 397 1099 453 1231 453 1453 c 2
 453 1658 l 1
EndSplineSet
EndChar

StartChar: quotesinglbase
Encoding: 473 8218 397
Width: 572
VWidth: 0
GlyphClass: 2
Flags: HW
LayerCount: 2
UndoRedoHistory
Layer: 1
Undoes
EndUndoes
Redoes
EndRedoes
EndUndoRedoHistory
Fore
SplineSet
459 283 m 1
 203 283 l 1
 203 46 l 1
 318 46 l 1
 318 -117 290 -188 204 -188 c 1
 243 -276 l 1
 403 -276 459 -144 459 78 c 2
 459 283 l 1
EndSplineSet
EndChar

StartChar: quotesingle
Encoding: 39 39 398
Width: 791
VWidth: 0
GlyphClass: 2
Flags: HW
LayerCount: 2
UndoRedoHistory
Layer: 1
Undoes
EndUndoes
Redoes
EndRedoes
EndUndoRedoHistory
Fore
SplineSet
177 1144 m 1
 304 1144 l 1
 387 1658 l 1
 177 1658 l 1
 177 1144 l 1
EndSplineSet
EndChar

StartChar: r
Encoding: 114 114 399
Width: 656
VWidth: 0
GlyphClass: 2
Flags: HW
LayerCount: 2
UndoRedoHistory
Layer: 1
Undoes
EndUndoes
Redoes
EndRedoes
EndUndoRedoHistory
Fore
SplineSet
114 0 m 1
 350 0 l 1
 350 854.664885657 l 1
 405.719371178 942.630658299 454.07101583 961 516 961 c 0
 562 961 612 949 647 935 c 1
 647 1197 l 1
 630 1199 621 1200 609 1200 c 0
 521.031216412 1200 439.821408201 1163.08559602 350 1013.90347954 c 1
 350 1184 l 1
 114 1184 l 1
 114 0 l 1
EndSplineSet
EndChar

StartChar: radical
Encoding: 65549 8730 401
Width: 1061
VWidth: 0
Flags: HW
LayerCount: 2
UndoRedoHistory
Layer: 1
Undoes
EndUndoes
Redoes
EndRedoes
EndUndoRedoHistory
Fore
SplineSet
680 0 m 1
 1035 1658 l 1
 803 1658 l 1
 626 709 l 1
 563 345 l 1
 502 709 l 1
 412 1184 l 1
 -6 1184 l 1
 -6 1045 l 1
 218 1047 l 1
 443 0 l 1
 680 0 l 1
EndSplineSet
EndChar

StartChar: registered
Encoding: 477 174 404
Width: 1824
VWidth: 0
GlyphClass: 2
Flags: HW
LayerCount: 2
UndoRedoHistory
Layer: 1
Undoes
EndUndoes
Redoes
EndRedoes
EndUndoRedoHistory
Fore
SplineSet
913 -28 m 0
 1493 -28 1726 415 1726 828 c 0
 1726 1241 1491 1684 913 1684 c 0
 333 1684 98 1241 98 828 c 0
 98 417 333 -28 913 -28 c 0
912 81 m 0
 430 81 221 454 221 827 c 0
 221 1202 430 1571 912 1571 c 0
 1390 1571 1600 1202 1600 827 c 0
 1600 454 1390 81 912 81 c 0
800 861 m 1
 800 1230 l 1
 894 1230 l 2
 1014 1230 1056 1167 1056 1055 c 0
 1056 907 1009 861 843 861 c 2
 800 861 l 1
594 305 m 1
 800 305 l 1
 800 751 l 1
 908 751 l 1
 1076 305 l 1
 1291 305 l 1
 1097 793 l 1
 1197 841 1267 913 1267 1050 c 0
 1267 1259 1156 1366 911 1366 c 2
 594 1366 l 1
 594 305 l 1
EndSplineSet
EndChar

StartChar: ring
Encoding: 478 730 405
Width: 591
VWidth: 0
GlyphClass: 2
Flags: HW
LayerCount: 2
UndoRedoHistory
Layer: 1
Undoes
EndUndoes
Redoes
EndRedoes
EndUndoRedoHistory
Fore
SplineSet
296 1204 m 0
 440 1204 533 1300 533 1442 c 0
 533 1584 441 1678 296 1678 c 0
 152 1678 60 1584 60 1442 c 0
 60 1300 151 1204 296 1204 c 0
296 1323 m 0
 221 1323 178 1369 178 1442 c 0
 178 1515 221 1560 296 1560 c 0
 370 1560 414 1515 414 1442 c 0
 414 1369 370 1323 296 1323 c 0
EndSplineSet
EndChar

StartChar: s
Encoding: 115 115 406
Width: 738
VWidth: 0
GlyphClass: 2
Flags: HW
LayerCount: 2
UndoRedoHistory
Layer: 1
Undoes
EndUndoes
Redoes
EndRedoes
EndUndoRedoHistory
Fore
SplineSet
380 -17 m 0
 568 -17 708 83 708 290 c 0
 708 439 632 531 549 605 c 2
 323 807 l 2
 289.217 837.07 273.627 874.996 273.005 910.801 c 0
 271.951 971.443 313.836 1026 383 1026 c 0
 473 1026 510 942 528 829 c 1
 686 888 l 1
 670 1057 569 1200 380 1200 c 0
 192 1200 75 1092 69 902 c 0
 65 762 134 681 211 615 c 2
 423 433 l 2
 477.6 386.085 503.247 332.136 506.359 284.517 c 0
 510.941 214.396 466.658 158 394 158 c 0
 304 158 257 231 239 375 c 1
 63 316 l 1
 88 137 194 -17 380 -17 c 0
EndSplineSet
EndChar

StartChar: section
Encoding: 253 167 412
Width: 887
VWidth: 0
GlyphClass: 2
Flags: HW
LayerCount: 2
UndoRedoHistory
Layer: 1
Undoes
EndUndoes
Redoes
EndRedoes
EndUndoRedoHistory
Fore
SplineSet
491 682 m 1
 382 750 l 2
 354 768 326 811 326 856 c 0
 326 926 374 983 417 1009 c 1
 519 944 l 2
 567 913 585 855 585 816 c 0
 585 751 534 702 491 682 c 1
444 -16 m 0
 654 -16 800 90 800 297 c 0
 800 416 728 490 653 551 c 1
 740 601 800 688 800 816 c 0
 800 936.5 750 1036 659 1093 c 2
 385 1264 l 2
 358 1281 326 1316 326 1362 c 0
 326 1438 369 1480 444 1480 c 0
 546 1480 594 1377 622 1302 c 1
 800 1362 l 1
 761 1531 655 1674 444 1674 c 0
 234 1674 89 1571 89 1392 c 0
 89 1270 176 1183 260 1134 c 1
 156 1088 89 996 89 856 c 0
 89 709 169 637 267 578 c 2
 503 434 l 2
 559 400 582 350 576 289 c 0
 569 214 519 179 444 179 c 0
 345 179 294 281 267 356 c 1
 89 297 l 1
 128 129 235 -16 444 -16 c 0
EndSplineSet
EndChar

StartChar: semicolon
Encoding: 59 59 413
Width: 445
VWidth: 0
GlyphClass: 2
Flags: HW
LayerCount: 2
UndoRedoHistory
Layer: 1
Undoes
EndUndoes
Redoes
EndRedoes
EndUndoRedoHistory
Fore
SplineSet
116 916 m 1
 352 916 l 1
 352 1164 l 1
 116 1164 l 1
 116 916 l 1
153 -103 m 1
 302 -103 358 -13 358 136 c 2
 358 372 l 1
 116 372 l 1
 116 134 l 1
 240 134 l 1
 240 51 202 0 116 0 c 1
 153 -103 l 1
EndSplineSet
EndChar

StartChar: seven
Encoding: 55 55 414
Width: 763
VWidth: 0
GlyphClass: 2
Flags: HW
LayerCount: 2
UndoRedoHistory
Layer: 1
Undoes
EndUndoes
Redoes
EndRedoes
EndUndoRedoHistory
Fore
SplineSet
176 0 m 1
 403 0 l 1
 705 1544 l 1
 705 1658 l 1
 41 1658 l 1
 41 1473 l 1
 470 1473 l 1
 176 0 l 1
EndSplineSet
EndChar

StartChar: six
Encoding: 54 54 415
Width: 1001
VWidth: 0
GlyphClass: 2
Flags: HW
LayerCount: 2
UndoRedoHistory
Layer: 1
Undoes
EndUndoes
Redoes
EndRedoes
EndUndoRedoHistory
Fore
SplineSet
518 178 m 0
 378 178 340 328 340 473 c 2
 340 711 l 1
 371 771 427 829 518 829 c 0
 696 829 696 651 696 473 c 0
 696 329 659 178 518 178 c 0
933 1243 m 1
 933 1515.72169691 786.159212712 1674 518 1674 c 0
 197 1674 104 1391 104 1066 c 2
 104 533 l 2
 104 235 227 -17 518 -17 c 0
 818 -17 933 232 933 533 c 0
 933 805 852 1007 577 1007 c 0
 460 1007 381 960 340 888 c 1
 340 1125 l 2
 340 1362 400 1480 518 1480 c 0
 660 1480 696 1388 696 1243 c 1
 933 1243 l 1
EndSplineSet
EndChar

StartChar: slash
Encoding: 47 47 416
Width: 769
VWidth: 0
GlyphClass: 2
Flags: HW
LayerCount: 2
UndoRedoHistory
Layer: 1
Undoes
EndUndoes
Redoes
EndRedoes
EndUndoRedoHistory
Fore
SplineSet
61 0 m 1
 265 0 l 1
 706 1658 l 1
 502 1658 l 1
 61 0 l 1
EndSplineSet
EndChar

StartChar: sterling
Encoding: 484 163 418
Width: 828
VWidth: 0
GlyphClass: 2
Flags: HW
LayerCount: 2
UndoRedoHistory
Layer: 1
Undoes
EndUndoes
Redoes
EndRedoes
EndUndoRedoHistory
Fore
SplineSet
0 0 m 1
 769 0 l 1
 769 178 l 1
 355 178 l 1
 355 711 l 1
 592 711 l 1
 592 888 l 1
 355 888 l 1
 355 1231 l 1
 358 1340 368 1480 473 1480 c 0
 581 1480 592 1352 592 1243 c 1
 769 1243 l 1
 769 1315 l 1
 767 1523 687 1674 473 1674 c 0
 152 1674 118 1386 118 1066 c 2
 118 888 l 1
 0 888 l 1
 0 711 l 1
 118 711 l 1
 118 177 l 1
 0 118 l 1
 0 0 l 1
EndSplineSet
EndChar

StartChar: summation
Encoding: 65550 8721 419
Width: 839
VWidth: 0
Flags: HW
LayerCount: 2
UndoRedoHistory
Layer: 1
Undoes
EndUndoes
Redoes
EndRedoes
EndUndoRedoHistory
Fore
SplineSet
51 -390 m 1
 739 -390 l 1
 739 -212 l 1
 323 -212 l 1
 601 639 l 1
 330 1474 l 1
 734 1474 l 1
 734 1658 l 1
 51 1658 l 1
 377 639 l 1
 51 -390 l 1
EndSplineSet
EndChar

StartChar: t
Encoding: 116 116 420
Width: 630
VWidth: 0
GlyphClass: 2
Flags: HW
LayerCount: 2
UndoRedoHistory
Layer: 1
Undoes
EndUndoes
Redoes
EndRedoes
EndUndoRedoHistory
Fore
SplineSet
434 -17 m 0
 492 -17 532 -13 592 -6 c 1
 592 169 l 1
 565 165 532 164 512 164 c 0
 426 164 403 200 403 286 c 2
 403 1026 l 1
 592 1026 l 1
 592 1184 l 1
 403 1184 l 1
 403 1524 l 1
 167 1524 l 1
 167 1184 l 1
 48 1184 l 1
 48 1026 l 1
 167 1026 l 1
 167 271 l 1
 169 84 243 -17 434 -17 c 0
EndSplineSet
EndChar

StartChar: tbar
Encoding: 485 359 421
Width: 500
VWidth: 0
GlyphClass: 2
Flags: HW
LayerCount: 2
UndoRedoHistory
Layer: 1
Undoes
EndUndoes
Redoes
EndRedoes
EndUndoRedoHistory
Fore
SplineSet
434 -17 m 0
 492 -17 532 -13 592 -6 c 1
 592 169 l 1
 565 165 532 164 512 164 c 0
 426 164 403 200 403 286 c 2
 403 1026 l 1
 592 1026 l 1
 592 1184 l 1
 403 1184 l 1
 403 1524 l 1
 167 1524 l 1
 167 1184 l 1
 48 1184 l 1
 48 1026 l 1
 167 1026 l 1
 167 809 l 1
 63 809 l 1
 63 760 l 1
 167 760 l 1
 167 271 l 1
 169 84 243 -17 434 -17 c 0
EndSplineSet
EndChar

StartChar: thorn
Encoding: 488 254 424
Width: 931
VWidth: 0
GlyphClass: 2
Flags: HW
LayerCount: 2
UndoRedoHistory
Layer: 1
Undoes
EndUndoes
Redoes
EndRedoes
EndUndoRedoHistory
Fore
SplineSet
112 -390 m 1
 348 -390 l 1
 348 -231.026867664 348 -72.0537353275 348 86.9193970088 c 1
 399.270233205 30.9850095661 465.950195384 -17 547 -17 c 0
 783 -17 843 226 843 466 c 2
 843 761 l 2
 843 879 824 1200 573 1200 c 0
 472.65467638 1200 400.731695709 1149.89218143 348 1089.78996239 c 1
 348 1279.19330826 348 1468.59665413 348 1658 c 1
 112 1658 l 1
 112 -390 l 1
348 960.566065594 m 1
 387.207142719 990.240704648 434.943948745 1014 488 1014 c 0
 595 1014 607 889 607 761 c 2
 607 465 l 2
 607 310 605 170 498 170 c 0
 435.829003565 170 387.043916441 188.534335968 348 213.640788819 c 1
 348 960.566065594 l 1
EndSplineSet
EndChar

StartChar: three
Encoding: 51 51 425
Width: 950
VWidth: 0
GlyphClass: 2
Flags: HW
LayerCount: 2
UndoRedoHistory
Layer: 1
Undoes
EndUndoes
Redoes
EndRedoes
EndUndoRedoHistory
Fore
SplineSet
487 178 m 0
 326.097879101 178 309 311.086172939 309 473 c 1
 72 473 l 1
 72 414 l 2
 72 144 214 -17 487 -17 c 0
 784 -17 901 176 901 473 c 0
 901 688 819 837 664 888 c 1
 807 932 901 1050 901 1243 c 0
 901 1513 760 1674 487 1674 c 0
 216 1674 72 1512 72 1243 c 2
 72 1184 l 1
 309 1184 l 1
 309 1346.01943672 326.129623169 1480 487 1480 c 0
 628 1480 664 1387 664 1243 c 0
 664 1066.82535518 595.772557962 1007 427 1007 c 1
 427 769 l 1
 604.910613155 769 664 651.060950474 664 473 c 0
 664 308 647 178 487 178 c 0
EndSplineSet
EndChar

StartChar: threequarters
Encoding: 489 190 426
Width: 1666
VWidth: 0
GlyphClass: 2
Flags: HW
LayerCount: 2
UndoRedoHistory
Layer: 1
Undoes
EndUndoes
Redoes
EndRedoes
EndUndoRedoHistory
Fore
SplineSet
1165 357 m 1
 1320 644 l 1
 1320 357 l 1
 1165 357 l 1
487 0 m 1
 683 0 l 1
 1216 1658 l 1
 1019 1658 l 1
 487 0 l 1
1320 2 m 1
 1498 2 l 1
 1498 238 l 1
 1616 238 l 1
 1616 357 l 1
 1498 357 l 1
 1498 889 l 1
 1339 889 l 1
 1025 357 l 1
 1025 238 l 1
 1320 238 l 1
 1320 2 l 1
337 849 m 0
 489 849 573 937 573 1086 c 0
 573 1203 501 1256 395 1263 c 1
 501 1267 573 1325 573 1440 c 0
 573 1589 489 1678 337 1678 c 0
 185 1678 100 1589 100 1440 c 1
 277 1440 l 1
 277 1500 277 1559 337 1559 c 0
 397 1559 395 1500 395 1440 c 0
 395 1352 368 1322 277 1322 c 1
 277 1204 l 1
 367 1204 395 1173 395 1086 c 0
 395 1026 397 967 337 967 c 0
 277 967 277 1026 277 1086 c 1
 100 1086 l 1
 100 937 185 849 337 849 c 0
EndSplineSet
EndChar

StartChar: threesuperior
Encoding: -1 179 427
Width: 904
VWidth: 0
Flags: HW
LayerCount: 2
UndoRedoHistory
Layer: 1
Undoes
EndUndoes
Redoes
EndRedoes
EndUndoRedoHistory
Fore
SplineSet
503 602 m 0
 713 602 814 741 814 961 c 0
 814 1134 730 1213 656 1242 c 1
 730 1261 814 1371 814 1509 c 0
 814 1729 703 1838 493 1838 c 0
 288 1838 177 1708 177 1515 c 2
 177 1412 l 1
 374 1412 l 1
 374 1521 l 2
 374 1621 417 1681 498 1681 c 0
 580 1681 629 1625 629 1521 c 0
 629 1404 580 1300 478 1300 c 2
 396 1300 l 1
 396 1151 l 1
 483 1151 l 2
 581 1151 629 1054 629 938 c 0
 629 839 587 770 497 770 c 0
 415 770 373 836 373 959 c 2
 373 1041 l 1
 177 1041 l 1
 177 964 l 2
 177 731 261 602 503 602 c 0
EndSplineSet
EndChar

StartChar: tilde
Encoding: 490 732 428
Width: 887
VWidth: 0
GlyphClass: 2
Flags: HW
LayerCount: 2
UndoRedoHistory
Layer: 1
Undoes
EndUndoes
Redoes
EndRedoes
EndUndoRedoHistory
Fore
SplineSet
586 1423 m 0
 722 1423 760 1523 760 1658 c 1
 628 1658 l 1
 628 1594 617 1574 586 1574 c 0
 533 1574 408 1674 308 1674 c 0
 172 1674 127 1576 127 1442 c 1
 260 1442 l 1
 260 1502 275 1525 308 1525 c 0
 374 1525 486 1423 586 1423 c 0
EndSplineSet
EndChar

StartChar: tildecomb
Encoding: 589 771 429
Width: 887
VWidth: 0
GlyphClass: 2
Flags: HW
LayerCount: 2
UndoRedoHistory
Layer: 1
Undoes
EndUndoes
Redoes
EndRedoes
EndUndoRedoHistory
Fore
SplineSet
586 1423 m 0
 722 1423 760 1523 760 1658 c 1
 628 1658 l 1
 628 1594 617 1574 586 1574 c 0
 533 1574 408 1674 308 1674 c 0
 172 1674 127 1576 127 1442 c 1
 260 1442 l 1
 260 1502 275 1525 308 1525 c 0
 374 1525 486 1423 586 1423 c 0
EndSplineSet
EndChar

StartChar: trademark
Encoding: 491 8482 430
Width: 1520
VWidth: 0
GlyphClass: 2
Flags: HW
LayerCount: 2
UndoRedoHistory
Layer: 1
Undoes
EndUndoes
Redoes
EndRedoes
EndUndoRedoHistory
Fore
SplineSet
284 754 m 1
 458 754 l 1
 458 1513 l 1
 610 1513 l 1
 610 1658 l 1
 122 1658 l 1
 122 1513 l 1
 284 1513 l 1
 284 754 l 1
711 754 m 1
 847 754 l 1
 847 1287 l 1
 1026 754 l 1
 1100 754 l 1
 1271 1287 l 1
 1271 754 l 1
 1407 754 l 1
 1407 1658 l 1
 1264 1658 l 1
 1057 1047 l 1
 869 1658 l 1
 711 1658 l 1
 711 754 l 1
EndSplineSet
EndChar

StartChar: two
Encoding: 50 50 431
Width: 976
VWidth: 0
GlyphClass: 2
Flags: HW
LayerCount: 2
UndoRedoHistory
Layer: 1
Undoes
EndUndoes
Redoes
EndRedoes
EndUndoRedoHistory
Fore
SplineSet
79 0 m 1
 869 0 l 1
 869 198 l 1
 359 198 l 1
 731 769 l 2
 827 916 909 1028 909 1243 c 0
 909 1513 779 1674 506 1674 c 0
 209 1674 100 1481 100 1184 c 2
 100 1125 l 1
 337 1125 l 1
 337 1184 l 2
 337 1332 374 1480 519 1480 c 0
 635 1480 671 1387 671 1243 c 0
 671 1058 586 964 494 819 c 2
 79 167 l 1
 79 0 l 1
EndSplineSet
EndChar

StartChar: twosuperior
Encoding: -1 178 432
Width: 904
VWidth: 0
Flags: HW
LayerCount: 2
UndoRedoHistory
Layer: 1
Undoes
EndUndoes
Redoes
EndRedoes
EndUndoRedoHistory
Fore
SplineSet
175 615 m 1
 752 615 l 1
 752 760 l 1
 380 760 l 1
 652 1177 l 2
 722 1285 782 1367 782 1524 c 0
 782 1721 687 1839 487 1839 c 0
 270 1839 190 1698 190 1481 c 2
 190 1438 l 1
 363 1438 l 1
 363 1481 l 2
 363 1589 390 1697 496 1697 c 0
 581 1697 608 1629 608 1524 c 0
 608 1389 545 1320 478 1214 c 2
 175 737 l 1
 175 615 l 1
EndSplineSet
EndChar

StartChar: u
Encoding: 117 117 433
Width: 915
VWidth: 0
GlyphClass: 2
Flags: HW
HStem: -16 186<205 449.418>
VStem: 103 236<178.694 296>
AnchorPoint: "ogonek" 692 0 basechar 0
LayerCount: 2
UndoRedoHistory
Layer: 1
Undoes
EndUndoes
Redoes
EndRedoes
EndUndoRedoHistory
Fore
SplineSet
803 1184 m 1
 567 1184 l 1
 567 232.66837456 l 1
 521.664244876 198.093200738 471.743862782 170 428 170 c 0
 351 170 339 221 339 296 c 2
 339 1184 l 1
 103 1184 l 1
 103 224 l 2
 103 120 132 -16 278 -16 c 0
 393.860887245 -16 488.608617534 42.7329638987 567 113.344321718 c 1
 567 0 l 1
 803 0 l 1
 803 1184 l 1
EndSplineSet
EndChar

StartChar: underscore
Encoding: 95 95 441
Width: 709
VWidth: 0
GlyphClass: 2
Flags: HW
LayerCount: 2
UndoRedoHistory
Layer: 1
Undoes
EndUndoes
Redoes
EndRedoes
EndUndoRedoHistory
Fore
SplineSet
0 0 m 1
 711 0 l 1
 711 178 l 1
 0 178 l 1
 0 0 l 1
EndSplineSet
EndChar

StartChar: uni00AD
Encoding: 173 173 443
Width: 709
VWidth: 0
GlyphClass: 2
Flags: HW
LayerCount: 2
UndoRedoHistory
Layer: 1
Undoes
EndUndoes
Redoes
EndRedoes
EndUndoRedoHistory
Fore
SplineSet
118 1006 m 1
 592 1006 l 1
 592 1184 l 1
 118 1184 l 1
 118 1006 l 1
EndSplineSet
EndChar

StartChar: uni00B2
Encoding: 502 -1 444
Width: 643
VWidth: 0
GlyphClass: 2
Flags: HW
LayerCount: 2
UndoRedoHistory
Layer: 1
Undoes
EndUndoes
Redoes
EndRedoes
EndUndoRedoHistory
Fore
SplineSet
87 821 m 1
 560 821 l 1
 560 939 l 1
 264 939 l 1
 359 1066 560 1224 560 1413 c 0
 560 1562 475 1650 323 1650 c 0
 171 1650 87 1562 87 1413 c 1
 264 1413 l 1
 264 1473 263 1531 323 1531 c 0
 383 1531 382 1473 382 1413 c 0
 382 1312 314 1242 264 1176 c 2
 87 939 l 1
 87 821 l 1
EndSplineSet
EndChar

StartChar: uni00B3
Encoding: 503 -1 445
Width: 709
VWidth: 0
GlyphClass: 2
Flags: HW
LayerCount: 2
UndoRedoHistory
Layer: 1
Undoes
EndUndoes
Redoes
EndRedoes
EndUndoRedoHistory
Fore
SplineSet
366 823 m 0
 518 823 603 911 603 1060 c 0
 603 1177 531 1231 425 1238 c 1
 531 1242 603 1300 603 1415 c 0
 603 1564 518 1652 366 1652 c 0
 214 1652 129 1564 129 1415 c 1
 307 1415 l 1
 307 1475 306 1533 366 1533 c 0
 426 1533 425 1475 425 1415 c 0
 425 1327 398 1297 307 1297 c 1
 307 1178 l 1
 397 1178 425 1147 425 1060 c 0
 425 1000 426 942 366 942 c 0
 306 942 307 1000 307 1060 c 1
 129 1060 l 1
 129 911 214 823 366 823 c 0
EndSplineSet
EndChar

StartChar: uni00B9
Encoding: 504 -1 446
Width: 473
VWidth: 0
GlyphClass: 2
Flags: HW
LayerCount: 2
UndoRedoHistory
Layer: 1
Undoes
EndUndoes
Redoes
EndRedoes
EndUndoRedoHistory
Fore
SplineSet
355 721 m 1
 355 1658 l 1
 266 1658 l 1
 204 1581 155 1548 60 1501 c 1
 60 1362 l 1
 178 1412 l 1
 178 721 l 1
 355 721 l 1
EndSplineSet
EndChar

StartChar: uni0237
Encoding: 546 567 487
Width: 480
VWidth: 0
GlyphClass: 2
Flags: HW
LayerCount: 2
UndoRedoHistory
Layer: 1
Undoes
EndUndoes
Redoes
EndRedoes
EndUndoRedoHistory
Fore
SplineSet
374 -36 m 2
 374 1184 l 1
 138 1184 l 1
 138 -11 l 2
 138 -94 106 -148 20 -148 c 0
 3 -148 -25 -145 -39 -142 c 1
 -39 -311 l 1
 -8 -323 40 -326 80 -326 c 0
 262 -326 374 -220 374 -36 c 2
EndSplineSet
EndChar

StartChar: uni0302
Encoding: 588 770 488
Width: 709
VWidth: 0
GlyphClass: 2
Flags: HW
LayerCount: 2
UndoRedoHistory
Layer: 1
Undoes
EndUndoes
Redoes
EndRedoes
EndUndoRedoHistory
Fore
SplineSet
60 1302 m 1
 237 1302 l 1
 355 1540 l 1
 473 1302 l 1
 651 1302 l 1
 473 1658 l 1
 237 1658 l 1
 60 1302 l 1
EndSplineSet
EndChar

StartChar: uni0304
Encoding: 590 772 489
Width: 591
VWidth: 0
GlyphClass: 2
Flags: HW
LayerCount: 2
UndoRedoHistory
Layer: 1
Undoes
EndUndoes
Redoes
EndRedoes
EndUndoRedoHistory
Fore
SplineSet
114 1517 m 1
 515 1517 l 1
 515 1658 l 1
 114 1658 l 1
 114 1517 l 1
EndSplineSet
EndChar

StartChar: uni0306
Encoding: 591 -1 490
Width: 709
VWidth: 0
GlyphClass: 2
Flags: HW
LayerCount: 2
UndoRedoHistory
Layer: 1
Undoes
EndUndoes
Redoes
EndRedoes
EndUndoRedoHistory
Fore
SplineSet
355 1342 m 0
 587 1342 631 1484 631 1658 c 1
 493 1658 l 1
 493 1527 460 1474 355 1474 c 0
 250 1474 217 1526 217 1658 c 1
 80 1658 l 1
 80 1485 126 1342 355 1342 c 0
EndSplineSet
EndChar

StartChar: uni0307
Encoding: 592 775 491
Width: 0
VWidth: 0
GlyphClass: 2
Flags: HW
LayerCount: 2
UndoRedoHistory
Layer: 1
Undoes
EndUndoes
Redoes
EndRedoes
EndUndoRedoHistory
Fore
SplineSet
-85 1410 m 1
 151 1410 l 1
 151 1658 l 1
 -85 1658 l 1
 -85 1410 l 1
EndSplineSet
EndChar

StartChar: uni0308
Encoding: 593 776 492
Width: 828
VWidth: 0
GlyphClass: 2
Flags: HW
LayerCount: 2
UndoRedoHistory
Layer: 1
Undoes
EndUndoes
Redoes
EndRedoes
EndUndoRedoHistory
Fore
SplineSet
473 1421 m 1
 711 1421 l 1
 711 1658 l 1
 473 1658 l 1
 473 1421 l 1
118 1421 m 1
 355 1421 l 1
 355 1658 l 1
 118 1658 l 1
 118 1421 l 1
EndSplineSet
EndChar

StartChar: uni030A
Encoding: 594 778 493
Width: 591
VWidth: 0
GlyphClass: 2
Flags: HW
LayerCount: 2
UndoRedoHistory
Layer: 1
Undoes
EndUndoes
Redoes
EndRedoes
EndUndoRedoHistory
Fore
SplineSet
296 1204 m 0
 440 1204 533 1300 533 1442 c 0
 533 1584 441 1678 296 1678 c 0
 152 1678 60 1584 60 1442 c 0
 60 1300 151 1204 296 1204 c 0
296 1323 m 0
 221 1323 178 1369 178 1442 c 0
 178 1515 221 1560 296 1560 c 0
 370 1560 414 1515 414 1442 c 0
 414 1369 370 1323 296 1323 c 0
EndSplineSet
EndChar

StartChar: uni030C
Encoding: 595 780 494
Width: 0
VWidth: 0
GlyphClass: 2
Flags: HW
LayerCount: 2
UndoRedoHistory
Layer: 1
Undoes
EndUndoes
Redoes
EndRedoes
EndUndoRedoHistory
Fore
SplineSet
-26 1302 m 1
 210 1302 l 1
 388 1658 l 1
 210 1658 l 1
 92 1421 l 1
 -26 1658 l 1
 -203 1658 l 1
 -26 1302 l 1
EndSplineSet
EndChar

StartChar: uni030F
Encoding: 547 783 495
Width: 591
VWidth: 0
GlyphClass: 2
Flags: HW
LayerCount: 2
UndoRedoHistory
Layer: 1
Undoes
EndUndoes
Redoes
EndRedoes
EndUndoRedoHistory
Fore
SplineSet
516 1302 m 1
 635 1302 l 1
 553 1658 l 1
 362 1658 l 1
 516 1302 l 1
244 1302 m 1
 362 1302 l 1
 244 1658 l 1
 7 1658 l 1
 244 1302 l 1
EndSplineSet
EndChar

StartChar: uni0311
Encoding: 548 785 496
Width: 709
VWidth: 0
GlyphClass: 2
Flags: HW
LayerCount: 2
UndoRedoHistory
Layer: 1
Undoes
EndUndoes
Redoes
EndRedoes
EndUndoRedoHistory
Fore
SplineSet
355 1658 m 0
 123 1658 79 1516 79 1342 c 1
 217 1342 l 1
 217 1473 250 1526 355 1526 c 0
 460 1526 493 1474 493 1342 c 1
 630 1342 l 1
 630 1515 584 1658 355 1658 c 0
EndSplineSet
EndChar

StartChar: uni0326
Encoding: 549 806 497
Width: 304
VWidth: 0
GlyphClass: 2
Flags: HW
LayerCount: 2
UndoRedoHistory
Layer: 1
Undoes
EndUndoes
Redoes
EndRedoes
EndUndoRedoHistory
Fore
SplineSet
94 -547 m 1
 243 -547 268 -446 269 -297 c 2
 271 -73 l 1
 34 -73 l 1
 34 -310 l 1
 152 -310 l 1
 152 -393 120 -428 34 -428 c 1
 94 -547 l 1
EndSplineSet
EndChar

StartChar: uni2074
Encoding: 565 8308 513
Width: 709
VWidth: 0
GlyphClass: 2
Flags: HW
LayerCount: 2
UndoRedoHistory
Layer: 1
Undoes
EndUndoes
Redoes
EndRedoes
EndUndoRedoHistory
Fore
SplineSet
200 985 m 1
 379 1362 l 1
 379 985 l 1
 200 985 l 1
379 570 m 1
 557 570 l 1
 557 866 l 1
 675 866 l 1
 675 985 l 1
 557 985 l 1
 557 1658 l 1
 398 1658 l 1
 54 985 l 1
 54 866 l 1
 379 866 l 1
 379 570 l 1
EndSplineSet
EndChar

StartChar: uni2215
Encoding: 65552 8725 514
Width: 769
VWidth: 0
GlyphClass: 2
Flags: HW
LayerCount: 2
UndoRedoHistory
Layer: 1
Undoes
EndUndoes
Redoes
EndRedoes
EndUndoRedoHistory
Fore
SplineSet
61 0 m 1
 265 0 l 1
 706 1658 l 1
 502 1658 l 1
 61 0 l 1
EndSplineSet
EndChar

StartChar: uni2219
Encoding: 65553 8729 515
Width: 354
VWidth: 0
Flags: HW
LayerCount: 2
UndoRedoHistory
Layer: 1
Undoes
EndUndoes
Redoes
EndRedoes
EndUndoRedoHistory
Fore
SplineSet
60 653 m 1
 296 653 l 1
 296 889 l 1
 60 889 l 1
 60 653 l 1
EndSplineSet
EndChar

StartChar: uniFB00
Encoding: 566 -1 516
Width: 1127
VWidth: 0
GlyphClass: 2
Flags: HW
LayerCount: 2
UndoRedoHistory
Layer: 1
Undoes
EndUndoes
Redoes
EndRedoes
EndUndoRedoHistory
Fore
SplineSet
161 0 m 1
 398 0 l 1
 398 1007 l 1
 716 1007 l 1
 716 0 l 1
 953 0 l 1
 953 1007 l 1
 1131 1007 l 1
 1131 1184 l 1
 953 1184 l 1
 953 1273 l 2
 953 1358 966 1421 1051 1421 c 0
 1074 1421 1107 1413 1131 1411 c 1
 1131 1587 l 1
 1071 1594 1042 1598 984 1598 c 0
 754 1598 716 1459 716 1230 c 2
 716 1184 l 1
 398 1184 l 1
 398 1273 l 2
 398 1358 411 1421 496 1421 c 0
 519 1421 551 1413 575 1411 c 1
 575 1587 l 1
 515 1594 487 1598 429 1598 c 0
 199 1598 161 1459 161 1230 c 2
 161 1184 l 1
 42 1184 l 1
 42 1007 l 1
 161 1007 l 1
 161 0 l 1
EndSplineSet
EndChar

StartChar: uniFB01
Encoding: 567 64257 517
Width: 1096
VWidth: 0
GlyphClass: 2
Flags: HW
LayerCount: 2
UndoRedoHistory
Layer: 1
Undoes
EndUndoes
Redoes
EndRedoes
EndUndoRedoHistory
Fore
SplineSet
742 1362 m 1
 978 1362 l 1
 978 1598 l 1
 742 1598 l 1
 742 1362 l 1
161 0 m 1
 398 0 l 1
 398 1007 l 1
 742 1007 l 1
 742 0 l 1
 978 0 l 1
 978 1184 l 1
 398 1184 l 1
 398 1273 l 2
 398 1358 411 1421 496 1421 c 0
 519 1421 551 1413 575 1411 c 1
 575 1587 l 1
 515 1594 487 1598 429 1598 c 0
 199 1598 161 1459 161 1230 c 2
 161 1184 l 1
 42 1184 l 1
 42 1007 l 1
 161 1007 l 1
 161 0 l 1
EndSplineSet
EndChar

StartChar: uniFB02
Encoding: 568 64258 518
Width: 1073
VWidth: 0
GlyphClass: 2
Flags: HW
LayerCount: 2
UndoRedoHistory
Layer: 1
Undoes
EndUndoes
Redoes
EndRedoes
EndUndoRedoHistory
Fore
SplineSet
161 0 m 1
 398 0 l 1
 398 1007 l 1
 575 1007 l 1
 575 1184 l 1
 398 1184 l 1
 398 1273 l 2
 398 1358 411 1421 496 1421 c 0
 564 1421 644 1415 727 1408 c 1
 727 0 l 1
 964 0 l 1
 964 1555 l 1
 748 1583 639 1598 429 1598 c 0
 199 1598 161 1459 161 1230 c 2
 161 1184 l 1
 42 1184 l 1
 42 1007 l 1
 161 1007 l 1
 161 0 l 1
EndSplineSet
EndChar

StartChar: uniFB03
Encoding: 569 -1 519
Width: 1589
VWidth: 0
GlyphClass: 2
Flags: HW
LayerCount: 2
UndoRedoHistory
Layer: 1
Undoes
EndUndoes
Redoes
EndRedoes
EndUndoRedoHistory
Fore
SplineSet
1234 1362 m 1
 1471 1362 l 1
 1471 1598 l 1
 1234 1598 l 1
 1234 1362 l 1
161 0 m 1
 398 0 l 1
 398 1007 l 1
 680 1007 l 1
 680 0 l 1
 918 0 l 1
 918 1007 l 1
 1234 1007 l 1
 1234 0 l 1
 1471 0 l 1
 1471 1184 l 1
 918 1184 l 1
 918 1273 l 2
 918 1358 931 1421 1016 1421 c 0
 1039 1421 1071 1413 1095 1411 c 1
 1095 1587 l 1
 1035 1594 1007 1598 949 1598 c 0
 719 1598 680 1459 680 1230 c 2
 680 1184 l 1
 398 1184 l 1
 398 1273 l 2
 398 1358 411 1421 496 1421 c 0
 519 1421 551 1413 575 1411 c 1
 575 1587 l 1
 515 1594 487 1598 429 1598 c 0
 199 1598 161 1459 161 1230 c 2
 161 1184 l 1
 42 1184 l 1
 42 1007 l 1
 161 1007 l 1
 161 0 l 1
EndSplineSet
EndChar

StartChar: uniFB04
Encoding: 570 -1 520
Width: 1550
VWidth: 0
GlyphClass: 2
Flags: HW
LayerCount: 2
UndoRedoHistory
Layer: 1
Undoes
EndUndoes
Redoes
EndRedoes
EndUndoRedoHistory
Fore
SplineSet
161 0 m 1
 398 0 l 1
 398 1007 l 1
 658 1007 l 1
 658 0 l 1
 896 0 l 1
 896 1007 l 1
 1073 1007 l 1
 1073 1184 l 1
 896 1184 l 1
 896 1273 l 2
 896 1358 908 1421 993 1421 c 0
 1055 1421 1129 1415 1204 1408 c 1
 1204 0 l 1
 1442 0 l 1
 1442 1555 l 1
 1234 1583 1129 1598 927 1598 c 0
 697 1598 658 1459 658 1230 c 2
 658 1184 l 1
 398 1184 l 1
 398 1273 l 2
 398 1358 411 1421 496 1421 c 0
 519 1421 551 1413 575 1411 c 1
 575 1587 l 1
 515 1594 487 1598 429 1598 c 0
 199 1598 161 1459 161 1230 c 2
 161 1184 l 1
 42 1184 l 1
 42 1007 l 1
 161 1007 l 1
 161 0 l 1
EndSplineSet
EndChar

StartChar: v
Encoding: 118 118 524
Width: 797
VWidth: 0
GlyphClass: 2
Flags: HW
LayerCount: 2
UndoRedoHistory
Layer: 1
Undoes
EndUndoes
Redoes
EndRedoes
EndUndoRedoHistory
Fore
SplineSet
258 0 m 1
 549 0 l 1
 767 1184 l 1
 537 1184 l 1
 401 245 l 1
 267 1184 l 1
 30 1184 l 1
 258 0 l 1
EndSplineSet
EndChar

StartChar: w
Encoding: 119 119 525
Width: 1191
VWidth: 0
GlyphClass: 2
Flags: HW
LayerCount: 2
UndoRedoHistory
Layer: 1
Undoes
EndUndoes
Redoes
EndRedoes
EndUndoRedoHistory
Fore
SplineSet
221 0 m 1
 472 0 l 1
 596 853 l 1
 720 0 l 1
 973 0 l 1
 1149 1184 l 1
 943 1184 l 1
 823 264 l 1
 707 1184 l 1
 483 1184 l 1
 364 261 l 1
 248 1184 l 1
 42 1184 l 1
 221 0 l 1
EndSplineSet
EndChar

StartChar: x
Encoding: 120 120 530
Width: 800
VWidth: 0
GlyphClass: 2
Flags: HW
LayerCount: 2
UndoRedoHistory
Layer: 1
Undoes
EndUndoes
Redoes
EndRedoes
EndUndoRedoHistory
Fore
SplineSet
564 0 m 1
 789 0 l 1
 516.041186169 592.996762525 l 1
 784 1184 l 1
 553 1184 l 1
 409.883413377 823.622089105 l 1
 244 1184 l 1
 18 1184 l 1
 276.826644559 622.734895315 l 1
 16 0 l 1
 238 0 l 1
 386.04652976 385.891774293 l 1
 564 0 l 1
EndSplineSet
EndChar

StartChar: y
Encoding: 121 121 531
Width: 798
VWidth: 0
GlyphClass: 2
Flags: HW
LayerCount: 2
UndoRedoHistory
Layer: 1
Undoes
EndUndoes
Redoes
EndRedoes
EndUndoRedoHistory
Fore
SplineSet
95 -296 m 1
 119 -296 l 2
 337 -296 467 -238 507 -60 c 2
 790 1184 l 1
 550 1184 l 1
 407 330 l 1
 260 1184 l 1
 20 1184 l 1
 111.666695838 796.666695838 203.333928449 409.333928449 295 22 c 0
 323 -95 284 -118 95 -118 c 1
 95 -296 l 1
EndSplineSet
EndChar

StartChar: yen
Encoding: 581 165 535
Width: 947
VWidth: 0
GlyphClass: 2
Flags: HW
LayerCount: 2
UndoRedoHistory
Layer: 1
Undoes
EndUndoes
Redoes
EndRedoes
EndUndoRedoHistory
Fore
SplineSet
377 0 m 1
 615 0 l 1
 615 237 l 1
 791 237 l 1
 791 392 l 1
 615 392 l 1
 615 512 l 1
 791 512 l 1
 791 665 l 1
 638.688909774 665 l 1
 970 1658 l 1
 735 1658 l 1
 495 890 l 1
 253 1658 l 1
 22 1658 l 1
 353.311090226 665 l 1
 200 665 l 1
 200 512 l 1
 377 512 l 1
 377 392 l 1
 200 392 l 1
 200 237 l 1
 377 237 l 1
 377 0 l 1
EndSplineSet
EndChar

StartChar: z
Encoding: 122 122 537
Width: 690
VWidth: 0
GlyphClass: 2
Flags: HW
LayerCount: 2
UndoRedoHistory
Layer: 1
Undoes
EndUndoes
Redoes
EndRedoes
EndUndoRedoHistory
Fore
SplineSet
56 0 m 1
 645 0 l 1
 645 178 l 1
 310 178 l 1
 663 1057 l 1
 663 1184 l 1
 104 1184 l 1
 104 1007 l 1
 409 1007 l 1
 56 158 l 1
 56 0 l 1
EndSplineSet
EndChar

StartChar: zero
Encoding: 48 48 541
Width: 1005
VWidth: 0
GlyphClass: 2
Flags: HW
LayerCount: 2
UndoRedoHistory
Layer: 1
Undoes
EndUndoes
Redoes
EndRedoes
EndUndoRedoHistory
Fore
SplineSet
503 -17 m 0
 783 -17 918 186 918 473 c 2
 918 1184 l 2
 918 1477 787 1674 503 1674 c 0
 217 1674 89 1477 89 1184 c 2
 89 473 l 2
 89 188 225 -17 503 -17 c 0
503 178 m 0
 360 178 326 330 326 473 c 2
 326 1184 l 2
 326 1334 352 1480 503 1480 c 0
 654 1480 680 1334 680 1184 c 2
 680 473 l 2
 680 330 648 178 503 178 c 0
EndSplineSet
EndChar
